<?xml version="1.0" encoding="UTF-8"?>
<svg version="1.1" xmlns="http://www.w3.org/2000/svg" width="207" height="194">
<path d="M0 0 C4.42878495 3.10616139 8.36927837 6.96671804 10.5234375 11.99609375 C10.87535156 12.59679687 11.22726563 13.1975 11.58984375 13.81640625 C12.20430862 13.94519165 12.8187735 14.07397705 13.45185852 14.20666504 C16.21247639 14.99397753 17.07102972 16.17665161 18.86401367 18.39257812 C22.44873486 22.6777292 26.25755259 26.64540651 30.203125 30.59765625 C30.89875046 31.29661011 31.59437592 31.99556396 32.31108093 32.71569824 C33.76606067 34.17569829 35.22235862 35.63438579 36.67993164 37.09179688 C38.91906486 39.3331439 41.15004653 41.58240639 43.38085938 43.83203125 C44.80029268 45.25439398 46.22019738 46.67628648 47.640625 48.09765625 C48.64214348 49.109953 48.64214348 49.109953 49.66389465 50.1427002 C50.28181381 50.75754272 50.89973297 51.37238525 51.53637695 52.00585938 C52.07929886 52.5502063 52.62222076 53.09455322 53.18159485 53.65539551 C54.54285055 55.02844754 54.54285055 55.02844754 56.58984375 54.81640625 C59.14760598 52.46057261 61.41753271 50.03179505 63.58984375 47.31640625 C67.140897 42.87758969 71.16927562 39.35286075 75.58984375 35.81640625 C78.10964019 33.41952671 80.41708908 31.03234958 82.58984375 28.31640625 C86.140897 23.87758969 90.16927562 20.35286075 94.58984375 16.81640625 C97.10964019 14.41952671 99.41708908 12.03234958 101.58984375 9.31640625 C105.0806003 4.95296057 108.58529318 1.3863106 113.58984375 -1.18359375 C114.24984375 -1.18359375 114.90984375 -1.18359375 115.58984375 -1.18359375 C115.58984375 -1.84359375 115.58984375 -2.50359375 115.58984375 -3.18359375 C123.08588879 -5.50055313 129.39944981 -5.79862973 136.71484375 -2.62109375 C142.21763881 0.40544353 146.14157706 5.0458091 149.02734375 10.56640625 C150.37035941 18.32605231 150.6804639 25.86235199 146.58984375 32.81640625 C143.38403753 37.14608707 139.86125717 40.53070362 135.58984375 43.81640625 C133.90050453 45.46008765 132.23724451 47.13069385 130.58984375 48.81640625 C129.2578675 50.15109528 127.92442845 51.48432546 126.58984375 52.81640625 C125.55923828 53.84701172 125.55923828 53.84701172 124.5078125 54.8984375 C117.58984375 61.81640625 117.58984375 61.81640625 115.02734375 64.31640625 C112.56968487 66.74556158 112.56968487 66.74556158 110.58984375 69.37890625 C108.47105768 71.96117678 106.21781453 73.76530711 103.58984375 75.81640625 C101.90221524 77.46184405 100.23580885 79.12929202 98.58984375 80.81640625 C95.92317708 83.48307292 93.25651042 86.14973958 90.58984375 88.81640625 C91.88513728 91.67313366 93.24164025 93.70939632 95.47900391 95.90087891 C96.34968002 96.76164536 96.34968002 96.76164536 97.23794556 97.63980103 C97.86196259 98.24722137 98.48597961 98.85464172 99.12890625 99.48046875 C99.76976166 100.11375092 100.41061707 100.74703308 101.07089233 101.39950562 C103.11413812 103.41834886 105.16367898 105.43061117 107.21484375 107.44140625 C109.9210212 110.09459561 112.62066586 112.7541804 115.31640625 115.41796875 C115.94447174 116.02943756 116.57253723 116.64090637 117.21963501 117.27090454 C118.71444912 118.7485185 120.1577256 120.27794928 121.58984375 121.81640625 C121.58984375 122.47640625 121.58984375 123.13640625 121.58984375 123.81640625 C122.15445313 124.05866943 122.7190625 124.30093262 123.30078125 124.55053711 C128.08787233 127.19783524 131.73694542 131.55077655 135.58984375 135.37890625 C136.4921875 136.24837891 137.39453125 137.11785156 138.32421875 138.01367188 C144.4358524 144.0755807 148.75564223 149.39738065 150.0859375 158.0390625 C149.92611917 165.78492412 149.3780241 171.6882039 144.02734375 177.69140625 C143.22296875 178.39265625 142.41859375 179.09390625 141.58984375 179.81640625 C140.92984375 180.47640625 140.26984375 181.13640625 139.58984375 181.81640625 C133.09112901 184.91959876 125.74124599 185.375526 118.71484375 184.12890625 C110.29255913 180.59154671 104.07693252 174.57065915 98.25390625 167.734375 C96.86980071 166.13907965 95.39578196 164.62234446 93.90234375 163.12890625 C91.58984375 160.81640625 91.58984375 160.81640625 89.58984375 158.19140625 C87.46757967 155.67121765 85.3938757 154.48366849 82.58984375 152.81640625 C82.25984375 151.82640625 81.92984375 150.83640625 81.58984375 149.81640625 C79.95017165 148.45001283 78.27874247 147.12146435 76.58984375 145.81640625 C74.90221524 144.17096845 73.23580885 142.50352048 71.58984375 140.81640625 C70.74421875 139.99140625 69.89859375 139.16640625 69.02734375 138.31640625 C66.58984375 135.81640625 66.58984375 135.81640625 64.65234375 133.31640625 C62.93717268 131.23741101 61.41831236 129.78876057 59.33984375 128.12890625 C57.97859375 126.98421875 57.97859375 126.98421875 56.58984375 125.81640625 C56.58984375 125.15640625 56.58984375 124.49640625 56.58984375 123.81640625 C52.98406445 126.59800742 49.7687154 129.55806281 46.58984375 132.81640625 C45.74421875 133.64140625 44.89859375 134.46640625 44.02734375 135.31640625 C41.59528128 137.71031593 41.59528128 137.71031593 39.77734375 140.19140625 C37.28414798 143.18324118 34.50057267 145.53134087 31.54296875 148.05078125 C29.8078756 149.61930546 28.3575292 151.18031942 26.90234375 153.00390625 C24.65016447 155.74304321 22.38096707 157.65328568 19.58984375 159.81640625 C17.90221524 161.46184405 16.23580885 163.12929202 14.58984375 164.81640625 C13.80609375 165.57953125 13.02234375 166.34265625 12.21484375 167.12890625 C9.46625419 169.94293842 6.89553809 172.86634703 4.3359375 175.8515625 C-0.80845273 181.6404401 -4.72080717 183.58651036 -12.41015625 184.81640625 C-19.74328261 185.16847679 -26.72405702 183.72231977 -32.41015625 178.81640625 C-33.15234375 176.6484375 -33.15234375 176.6484375 -33.41015625 174.81640625 C-34.07015625 174.81640625 -34.73015625 174.81640625 -35.41015625 174.81640625 C-39.46123027 168.23341096 -40.8327799 162.51754228 -39.41015625 154.81640625 C-36.57374294 148.12944302 -33.23407088 143.17258149 -27.41015625 138.81640625 C-25.72252774 137.17096845 -24.05612135 135.50352048 -22.41015625 133.81640625 C-21.17265625 132.60984375 -21.17265625 132.60984375 -19.91015625 131.37890625 C-17.33762606 128.80890875 -17.33762606 128.80890875 -14.91015625 125.81640625 C-11.11105773 121.25748803 -7.03054421 117.51271661 -2.41015625 113.81640625 C0.10964019 111.41952671 2.41708908 109.03234958 4.58984375 106.31640625 C7.61143163 102.5394214 10.96222386 99.29129908 14.71484375 96.25390625 C17.12544836 94.21013277 18.85176172 92.4235293 20.58984375 89.81640625 C17.89257477 86.22004761 15.12268554 83.57374618 11.58984375 80.81640625 C9.90221524 79.17096845 8.23580885 77.50352048 6.58984375 75.81640625 C5.32140625 74.57890625 5.32140625 74.57890625 4.02734375 73.31640625 C1.58984375 70.81640625 1.58984375 70.81640625 -0.41015625 68.25390625 C-2.52894232 65.67163572 -4.78218547 63.86750539 -7.41015625 61.81640625 C-9.09778476 60.17096845 -10.76419115 58.50352048 -12.41015625 56.81640625 C-13.25578125 55.99140625 -14.10140625 55.16640625 -14.97265625 54.31640625 C-17.41015625 51.81640625 -17.41015625 51.81640625 -19.34765625 49.31640625 C-21.75930141 46.3932 -24.47744545 44.21045589 -27.41015625 41.81640625 C-34.54174998 35.02441222 -39.41913272 29.04456559 -39.97265625 19.00390625 C-39.77723103 11.21621131 -36.3844657 5.7907157 -30.97265625 0.37890625 C-19.86443832 -6.39439737 -11.17497461 -6.50436811 0 0 Z " fill="#FEFEFE" transform="translate(46.41015625,6.18359375)"/>
</svg>
