<?xml version="1.0" encoding="UTF-8"?>
<svg version="1.1" xmlns="http://www.w3.org/2000/svg" width="100" height="100">
<path d="M0 0 C0.93494797 -0.01283524 1.86989594 -0.02567047 2.83317566 -0.03889465 C4.34721733 -0.04997505 4.34721733 -0.04997505 5.8918457 -0.0612793 C7.45513359 -0.07338692 7.45513359 -0.07338692 9.05000305 -0.08573914 C11.25825337 -0.09957559 13.46652503 -0.1102997 15.67480469 -0.11816406 C19.03728305 -0.13534302 22.39876949 -0.17923013 25.76098633 -0.22338867 C27.90876557 -0.2335189 30.05655316 -0.24203397 32.2043457 -0.2487793 C33.70320564 -0.27504143 33.70320564 -0.27504143 35.23234558 -0.30183411 C42.47652832 -0.27954195 48.17082993 1.00424341 53.4387207 6.2121582 C53.89375977 6.88118164 54.34879883 7.55020508 54.81762695 8.23950195 C55.29071289 8.91110352 55.76379883 9.58270508 56.2512207 10.2746582 C58.79346979 14.5586558 58.38012695 16.78799748 58.38012695 22.17700195 C32.64012695 22.17700195 6.90012695 22.17700195 -19.61987305 22.17700195 C-19.61987305 15.45558343 -19.43430424 12.39674991 -15.61987305 7.17700195 C-10.82620972 2.72092055 -6.64664365 0.07960711 0 0 Z " fill="#FDFDFD" transform="translate(30.619873046875,10.822998046875)"/>
<path d="M0 0 C0.67690887 -0.00700928 1.35381775 -0.01401855 2.05123901 -0.02124023 C4.28327762 -0.03881012 6.51404281 -0.0272026 8.74609375 -0.01367188 C10.30021406 -0.01636712 11.85433272 -0.02024981 13.40844727 -0.02526855 C16.66341224 -0.03116218 19.91793773 -0.02260554 23.17285156 -0.00390625 C27.34282919 0.01888385 31.51177706 0.00575995 35.68171692 -0.01819611 C38.89025618 -0.03265812 42.09855174 -0.02804639 45.30709839 -0.01768494 C46.84447349 -0.01501873 48.3818708 -0.01828372 49.91921997 -0.02760315 C52.0691376 -0.03777617 54.2173935 -0.02226075 56.3671875 0 C57.58978271 0.00318237 58.81237793 0.00636475 60.07202148 0.00964355 C63.18359375 0.51757812 63.18359375 0.51757812 65.60961914 2.32336426 C67.18359375 4.51757812 67.18359375 4.51757812 67.18359375 8.14257812 C66.18359375 11.51757812 66.18359375 11.51757812 64.53564453 12.71234131 C61.45382423 13.76741851 58.80995968 13.77199846 55.55078125 13.77636719 C54.89337952 13.77987183 54.23597778 13.78337646 53.55865479 13.7869873 C51.39185944 13.79576896 49.22539225 13.78996826 47.05859375 13.78320312 C45.54931577 13.7845508 44.04003821 13.7864922 42.53076172 13.78900146 C39.37007508 13.79194789 36.2095016 13.78767062 33.04882812 13.77832031 C29.00018302 13.766926 24.9518031 13.77348805 20.90316772 13.78546524 C17.78733324 13.79269687 14.67156149 13.79038993 11.5557251 13.78520966 C10.06300831 13.78387676 8.57028579 13.78550825 7.07757568 13.79016876 C4.99036602 13.79525548 2.90358411 13.78749403 0.81640625 13.77636719 C-0.37065918 13.774776 -1.55772461 13.77318481 -2.78076172 13.77154541 C-5.73508995 13.52438119 -7.42697633 13.24991482 -9.81640625 11.51757812 C-10.81640625 8.14257812 -10.81640625 8.14257812 -10.81640625 4.51757812 C-7.72984914 0.21473463 -5.12463313 0.01333924 0 0 Z " fill="#FEFEFE" transform="translate(21.81640625,38.482421875)"/>
<path d="M0 0 C0.71884369 -0.00175232 1.43768738 -0.00350464 2.17831421 -0.00531006 C4.56030677 -0.00972016 6.9422254 -0.00679354 9.32421875 -0.00341797 C10.97566746 -0.00409125 12.62711608 -0.00506148 14.27856445 -0.00631714 C17.74203432 -0.00779297 21.20547843 -0.00564323 24.66894531 -0.00097656 C29.11460928 0.00472066 33.56021288 0.00144104 38.00587463 -0.00454903 C41.41671201 -0.00815772 44.827535 -0.00701463 48.2383728 -0.00442123 C49.8778789 -0.00375282 51.51738628 -0.00457741 53.15689087 -0.00690079 C55.44577506 -0.00943235 57.73456067 -0.00557958 60.0234375 0 C61.32756592 0.00079559 62.63169434 0.00159119 63.9753418 0.00241089 C67.01171875 0.12939453 67.01171875 0.12939453 69.01171875 1.12939453 C68.84958673 5.26376111 68.46754025 7.559308 65.85546875 10.82617188 C60.69900937 14.81861958 53.83760957 13.8455856 47.63671875 13.79345703 C46.22476789 13.79682935 44.81281988 13.80168542 43.40087891 13.80795288 C40.44861074 13.81530492 37.49710146 13.8046744 34.54492188 13.78125 C30.77177524 13.75276114 27.00040692 13.76917438 23.22732544 13.79911232 C20.31374861 13.81723176 17.40058933 13.81140648 14.48699951 13.79847336 C13.09641303 13.79515207 11.7057879 13.79918136 10.31524658 13.81087112 C-1.87381355 13.89086724 -1.87381355 13.89086724 -5.83203125 10.82617188 C-8.44410275 7.559308 -8.82614923 5.26376111 -8.98828125 1.12939453 C-6.0115205 -0.35898584 -3.32096911 0.00202598 0 0 Z " fill="#FEFEFE" transform="translate(19.98828125,75.87060546875)"/>
<path d="M0 0 C0.69787628 -0.00525696 1.39575256 -0.01051392 2.11477661 -0.01593018 C4.42179745 -0.02913487 6.72812838 -0.02039095 9.03515625 -0.01025391 C10.6379408 -0.01227452 12.24072446 -0.01518585 13.84350586 -0.01895142 C17.20272575 -0.02337538 20.56170635 -0.01694153 23.92089844 -0.00292969 C28.22872464 0.01416244 32.53599015 0.00432162 36.84379578 -0.01364708 C40.15348543 -0.02448306 43.46304195 -0.02103947 46.7727356 -0.0132637 C48.36117621 -0.01126117 49.94962888 -0.01372284 51.53805542 -0.02070236 C53.75746721 -0.02831404 55.97596859 -0.01671786 58.1953125 0 C59.45867432 0.00238678 60.72203613 0.00477356 62.02368164 0.00723267 C65.09765625 0.38818359 65.09765625 0.38818359 67.00561523 1.72494507 C68.71942213 4.33516722 68.47693982 6.35391503 68.09765625 9.38818359 C67.00561523 11.05142212 67.00561523 11.05142212 65.09765625 12.38818359 C62.02368164 12.76913452 62.02368164 12.76913452 58.1953125 12.77636719 C57.49743622 12.78162415 56.79955994 12.7868811 56.08053589 12.79229736 C53.77351505 12.80550205 51.46718412 12.79675814 49.16015625 12.78662109 C47.5573717 12.78864171 45.95458804 12.79155304 44.35180664 12.7953186 C40.99258675 12.79974257 37.63360615 12.79330872 34.27441406 12.77929688 C29.96658786 12.76220475 25.65932235 12.77204557 21.35151672 12.79001427 C18.04182707 12.80085025 14.73227055 12.79740666 11.4225769 12.78963089 C9.83413629 12.78762836 8.24568362 12.79009003 6.65725708 12.79706955 C4.43784529 12.80468123 2.21934391 12.79308505 0 12.77636719 C-1.26336182 12.77398041 -2.52672363 12.77159363 -3.82836914 12.76913452 C-6.90234375 12.38818359 -6.90234375 12.38818359 -8.81030273 11.05142212 C-10.52410963 8.44119997 -10.28162732 6.42245216 -9.90234375 3.38818359 C-7.38457092 -0.44652289 -4.30266905 0.00812873 0 0 Z " fill="#FEFEFE" transform="translate(20.90234375,57.61181640625)"/>
</svg>
