<?xml version="1.0" encoding="UTF-8"?>
<svg version="1.1" xmlns="http://www.w3.org/2000/svg" width="1039" height="849">
<path d="M0 0 C1.21333008 0.27360352 1.21333008 0.27360352 2.45117188 0.55273438 C7.75940576 1.81903595 12.40387919 3.47553873 17.171875 6.17578125 C19.44721764 7.41430995 21.6777819 8.22176217 24.125 9.0625 C37.5638993 14.4338469 45.89231064 23.62329905 53.90625 35.26855469 C55.40794107 37.42224328 56.95860765 39.53046857 58.53125 41.6328125 C59.04018799 42.31384033 59.54912598 42.99486816 60.07348633 43.6965332 C61.04440436 44.99475202 62.01558328 46.29277578 62.98706055 47.59057617 C64.89215543 50.1766472 66.35199364 52.30598093 67.375 55.375 C68.035 55.375 68.695 55.375 69.375 55.375 C69.90609375 56.36242187 70.4371875 57.34984375 70.984375 58.3671875 C71.69733757 59.66177743 72.41091136 60.95603087 73.125 62.25 C73.47304688 62.90097656 73.82109375 63.55195313 74.1796875 64.22265625 C76.77462148 68.97114806 76.77462148 68.97114806 81.375 71.375 C85.39689655 71.83846074 89.51660613 71.66113129 93.375 70.375 C94.375 73.375 94.375 73.375 92.94140625 76.51171875 C92.28364027 77.7010128 91.61522185 78.88446371 90.9375 80.0625 C90.42993164 80.97225586 90.42993164 80.97225586 89.91210938 81.90039062 C89.07542085 83.3970025 88.22637169 84.88669189 87.375 86.375 C88.14199219 86.67792969 88.90898438 86.98085937 89.69921875 87.29296875 C95.50323584 89.63999464 101.39124852 92.54231803 106.375 96.375 C106.375 97.035 106.375 97.695 106.375 98.375 C100.59740116 98.49536664 95.09540011 98.2070582 89.375 97.375 C89.39820313 98.34179688 89.42140625 99.30859375 89.4453125 100.3046875 C89.61617894 112.63148061 88.95974821 122.18780997 81.375 132.375 C80.56546875 133.13683594 79.7559375 133.89867187 78.921875 134.68359375 C75.86938999 137.9093026 74.32144717 141.15056451 72.4375 145.125 C67.15755285 155.69993358 59.68862401 164.28689932 51.87036133 173.06420898 C48.37630703 177.07516108 47.4991981 180.15009464 47.375 185.375 C47.34140381 186.1369165 47.30780762 186.89883301 47.27319336 187.68383789 C47.0891077 195.69348986 48.3175142 203.26242347 49.75 211.125 C49.97171875 212.39988281 50.1934375 213.67476562 50.421875 214.98828125 C50.85267045 217.41847442 51.30302773 219.84531197 51.77636719 222.26757812 C52.12455187 224.07495767 52.43970816 225.89051548 52.66894531 227.71679688 C52.92092466 229.81108282 52.92092466 229.81108282 54.375 232.375 C56.4426143 233.46173547 58.44354075 234.0402823 60.70263672 234.63525391 C63.60022335 235.43734485 66.22116309 236.51996092 68.97265625 237.73046875 C70.00076416 238.1797876 71.02887207 238.62910645 72.08813477 239.09204102 C73.19342529 239.57729248 74.29871582 240.06254395 75.4375 240.5625 C87.35462456 245.73386942 99.36735344 250.63494168 111.4375 255.4375 C112.29492798 255.77880951 113.15235596 256.12011902 114.0357666 256.47177124 C117.43936605 257.82641794 120.84308654 259.18075927 124.24713135 260.5342865 C134.68549792 264.68730279 145.09307215 268.91446726 155.48291016 273.1875 C157.41877231 273.9823703 159.35596257 274.77401337 161.29443359 275.5625 C163.99097823 276.65946232 166.68347247 277.76579576 169.375 278.875 C170.15335205 279.18953125 170.9317041 279.5040625 171.73364258 279.828125 C177.10688206 282.06294174 179.96157559 283.88859656 182.23413086 289.25244141 C182.57054596 290.03696686 182.90696106 290.82149231 183.25357056 291.62979126 C183.61204071 292.48672577 183.97051086 293.34366028 184.33984375 294.2265625 C184.72506195 295.13191742 185.11028015 296.03727234 185.50717163 296.97006226 C186.78347926 299.97677994 188.04841536 302.98812501 189.3125 306 C190.20641336 308.11727659 191.10054121 310.23446264 191.99487305 312.3515625 C273.50983607 505.72161383 273.50983607 505.72161383 260.375 538.375 C250.4935786 553.24144341 228.82599014 564.25831073 213.375 572.375 C212.715 572.375 212.055 572.375 211.375 572.375 C210.61856843 581.73224806 210.18970133 591.04390183 210.05859375 600.4296875 C210.03781265 601.69724884 210.01703156 602.96481018 209.99562073 604.27078247 C209.94191364 607.58812074 209.89149381 610.90548589 209.84277344 614.22290039 C209.79190381 617.62911435 209.7365649 621.03525568 209.68164062 624.44140625 C209.575382 631.08587907 209.4734687 637.73040741 209.375 644.375 C210.50627319 644.35324707 210.50627319 644.35324707 211.66040039 644.33105469 C212.65031982 644.31977539 213.64023926 644.30849609 214.66015625 644.296875 C216.13174194 644.27512207 216.13174194 644.27512207 217.63305664 644.25292969 C222.36716868 644.46369062 225.19242394 646.35223151 228.6875 649.375 C231.943522 653.23398904 231.49552098 657.28246372 231.4375 662.0625 C231.43298828 662.76439453 231.42847656 663.46628906 231.42382812 664.18945312 C231.41206927 665.91800538 231.39413454 667.64651365 231.375 669.375 C232.18488373 669.37055878 232.99476746 669.36611755 233.82919312 669.36154175 C241.45152597 669.32151249 249.07380806 669.29103985 256.69621849 669.27137566 C260.61523284 669.26092635 264.53416053 669.24674638 268.453125 669.22412109 C272.23323039 669.20243339 276.01325228 669.19044002 279.79341507 669.18524551 C281.23755839 669.18154241 282.681697 669.1743114 284.1258049 669.16353989 C286.14420894 669.14907983 288.16269652 669.14818355 290.18115234 669.14794922 C291.90656754 669.14128738 291.90656754 669.14128738 293.6668396 669.13449097 C296.375 669.375 296.375 669.375 298.375 671.375 C297.52388641 671.37864563 296.67277283 671.38229126 295.79586792 671.38604736 C287.76249006 671.42396372 279.72951667 671.48085769 271.69642448 671.55890274 C267.56680623 671.5983589 263.43740061 671.63055631 259.30761719 671.64599609 C255.31973701 671.66117525 251.33244146 671.69564226 247.34482193 671.74330902 C245.82589941 671.75811 244.30689341 671.76604028 242.78789902 671.76688385 C240.65468266 671.76925932 238.52307447 671.7963808 236.39013672 671.82910156 C235.1776828 671.83798401 233.96522888 671.84686646 232.71603394 671.85601807 C228.71243975 672.47791928 226.59945369 673.97705559 223.375 676.375 C219.71112314 678.76644701 216.12590773 678.65578427 211.89016247 678.62947559 C211.12956448 678.63268207 210.3689665 678.63588855 209.58532009 678.63919219 C207.02190748 678.64753173 204.45872612 678.64155414 201.89530945 678.63569641 C200.04480914 678.6387153 198.19431008 678.64260346 196.34381324 678.64728898 C191.24703693 678.65761173 186.15033062 678.6553763 181.05354846 678.65110838 C175.56126489 678.64864887 170.06899852 678.6576457 164.57672119 678.66514587 C153.81185979 678.67791688 143.0470233 678.67968355 132.2821556 678.67734561 C123.5342141 678.67556484 114.7862802 678.67730691 106.03833961 678.68157005 C104.17297835 678.68246284 104.17297835 678.68246284 102.26993302 678.68337366 C99.74384627 678.68458537 97.21775952 678.6857995 94.69167278 678.68701603 C77.72183755 678.69480731 60.75200505 678.69871955 43.78216839 678.69469929 C42.78637289 678.69446472 42.78637289 678.69446472 41.77046032 678.69422542 C38.40562873 678.69341962 35.04079715 678.69257385 31.67596557 678.69171212 C30.67354232 678.69145549 30.67354232 678.69145549 29.65086809 678.69119367 C28.29943811 678.69084702 26.94800813 678.69049849 25.59657815 678.69014808 C4.56998408 678.6847913 -16.45656805 678.69271908 -37.4831543 678.71118164 C-61.0998608 678.73189412 -84.71654721 678.74259462 -108.33326501 678.73860615 C-120.84025212 678.73669144 -133.34720103 678.73920783 -145.85418129 678.75332069 C-156.50240096 678.7652142 -167.15055892 678.76666228 -177.79877941 678.75453053 C-183.23350464 678.74862734 -188.66811688 678.74758207 -194.1028347 678.75953293 C-199.076434 678.77034282 -204.04982527 678.76734688 -209.02341463 678.75327124 C-210.82421512 678.75061076 -212.62503166 678.75303298 -214.42581645 678.76100711 C-216.87167598 678.77108727 -219.31680881 678.76271362 -221.76263905 678.74973011 C-222.46345766 678.75703946 -223.16427628 678.7643488 -223.88633183 678.77187964 C-229.44227884 678.71065523 -234.26021218 677.50775796 -238.46612549 673.71452332 C-242.08561601 671.46872722 -245.99648791 671.93605967 -250.16699219 671.94262695 C-251.13317978 671.9324353 -252.09936737 671.92224365 -253.09483337 671.91174316 C-256.28723915 671.88155789 -259.47934513 671.87233863 -262.671875 671.86328125 C-264.88577272 671.8464387 -267.09966086 671.82828903 -269.3135376 671.80888367 C-275.13976038 671.76133173 -280.96594429 671.73155584 -286.79229736 671.70544434 C-292.73791176 671.67566511 -298.68339216 671.62912571 -304.62890625 671.58398438 C-316.29420082 671.49789208 -327.95952292 671.43057306 -339.625 671.375 C-340.41839944 667.60422175 -340.80845283 664.05486787 -340.94140625 660.19921875 C-340.98330078 659.04228516 -341.02519531 657.88535156 -341.06835938 656.69335938 C-341.10767578 655.49517578 -341.14699219 654.29699219 -341.1875 653.0625 C-341.23068359 651.84498047 -341.27386719 650.62746094 -341.31835938 649.37304688 C-341.42421496 646.3738053 -341.52629726 643.37448409 -341.625 640.375 C-342.5325 639.93414063 -343.44 639.49328125 -344.375 639.0390625 C-353.34823319 634.44459454 -359.30898886 628.63488953 -362.84765625 619.0703125 C-368.69814443 599.90419712 -365.39097243 584.03567874 -356.625 566.375 C-350.90215972 555.64623026 -343.69709186 546.41129273 -335.625 537.375 C-334.29123561 535.81286794 -332.95783534 534.25042481 -331.625 532.6875 C-329.6500098 530.38169894 -328.21376053 529.10084035 -325.625 527.375 C-322.44937233 527.70635295 -320.78829737 528.8284899 -318.55859375 531.04296875 C-317.99615967 531.59919922 -317.43372559 532.15542969 -316.85424805 532.72851562 C-316.26297119 533.33373047 -315.67169434 533.93894531 -315.0625 534.5625 C-314.44479736 535.18962891 -313.82709473 535.81675781 -313.19067383 536.46289062 C-295.6930174 554.52673395 -278.89331004 577.37873822 -278.625 603.375 C-279.5231424 614.89403266 -282.75180708 625.57126913 -291.625 633.375 C-295.4679306 636.01953545 -299.45533941 638.29016971 -303.625 640.375 C-303.955 649.615 -304.285 658.855 -304.625 668.375 C-272.945 668.87 -272.945 668.87 -240.625 669.375 C-240.625 664.755 -240.625 660.135 -240.625 655.375 C-237.4097914 650.01631899 -235.21405549 647.46240331 -229.5 645.0625 C-226.625 644.375 -226.625 644.375 -223.625 645.375 C-223.65422924 644.37128388 -223.68345848 643.36756777 -223.71357346 642.33343601 C-224.48185832 615.52402391 -224.8004839 588.73260878 -224.82518864 561.91284442 C-224.82817578 558.81848726 -224.83228793 555.72413335 -224.83669281 552.62977791 C-224.85021809 542.89304552 -224.85997115 533.15632102 -224.8638947 523.41957992 C-224.86841848 512.26896867 -224.88622546 501.11847736 -224.9148953 489.9679026 C-224.93649622 481.26043879 -224.94659719 472.55300896 -224.94793582 463.84551865 C-224.94897971 458.67699314 -224.95480585 453.5085828 -224.97275543 448.34008598 C-224.98922106 443.51083203 -224.99139913 438.68178057 -224.98261642 433.85250854 C-224.9818468 432.08685322 -224.98617893 430.32118692 -224.99607468 428.55555916 C-225.00881564 426.14087933 -225.0029077 423.72691611 -224.99249268 421.3122406 C-225.00457728 420.27438837 -225.00457728 420.27438837 -225.01690602 419.21556944 C-224.96420796 413.96985051 -223.74467436 410.10344231 -221.625 405.375 C-219.63134766 404.27246094 -219.63134766 404.27246094 -217.4140625 403.859375 C-212.50107175 402.03415221 -210.81813374 398.89410658 -208.7109375 394.328125 C-207.4223008 391.44748488 -206.20645644 388.54081607 -205 385.625 C-204.3804003 384.18759357 -203.7580215 382.75138177 -203.1328125 381.31640625 C-201.88746104 378.44656549 -200.66217045 375.56937497 -199.4519043 372.68457031 C-198.23956071 369.80337458 -196.99407404 366.94066311 -195.71411133 364.08886719 C-192.48145232 356.8825358 -189.54673543 349.78987161 -187.5625 342.125 C-187.0698134 340.33311236 -186.57630222 338.54145126 -186.08203125 336.75 C-185.59620497 334.95837378 -185.11052657 333.16670746 -184.625 331.375 C-179.96219844 314.29401851 -174.2711195 297.76874453 -163.625 283.375 C-163.09132813 282.64925781 -162.55765625 281.92351562 -162.0078125 281.17578125 C-158.01253119 276.51461972 -153.52316728 274.29524017 -147.87890625 272.1171875 C-141.97300344 269.76166573 -136.13664653 267.31314412 -130.36328125 264.6484375 C-129.68201675 264.33432419 -129.00075226 264.02021088 -128.29884338 263.69657898 C-126.89871049 263.0494314 -125.49902086 262.40132399 -124.09976196 261.75228882 C-112.11303063 256.19599315 -100.07816729 250.77374439 -87.9375 245.5625 C-67.60404393 236.85734179 -67.60404393 236.85734179 -47.625 227.375 C-46.34756681 219.96588751 -46.62644658 212.67540408 -46.9375 205.1875 C-46.98817627 203.96385742 -47.03885254 202.74021484 -47.09106445 201.47949219 C-47.25539153 197.77720071 -47.43776241 194.07619659 -47.625 190.375 C-47.67495117 189.2804248 -47.72490234 188.18584961 -47.77636719 187.05810547 C-47.92263366 184.07734389 -48.10933999 181.10236266 -48.3125 178.125 C-48.3535083 177.25206299 -48.3945166 176.37912598 -48.43676758 175.47973633 C-48.89135717 169.80652488 -50.4437113 166.60913214 -54.07641602 162.25097656 C-56.3657857 159.47760171 -57.98917264 156.51169651 -59.75 153.375 C-60.0905542 152.77051025 -60.4311084 152.16602051 -60.78198242 151.54321289 C-63.20328644 147.21643022 -65.44074958 142.82439901 -67.625 138.375 C-68.10066406 137.71113281 -68.57632812 137.04726562 -69.06640625 136.36328125 C-71.42278761 131.84540722 -72.22773743 127.09117681 -73.25 122.125 C-73.4665625 121.12597656 -73.683125 120.12695312 -73.90625 119.09765625 C-78.14888897 99.06297222 -79.95913142 76.09556396 -69.31640625 57.82421875 C-67.19169495 54.74755827 -64.81304428 52.21586117 -62.04296875 49.71484375 C-60.49952808 48.40986037 -60.49952808 48.40986037 -59.625 46.375 C-60.26308594 46.19324219 -60.90117187 46.01148438 -61.55859375 45.82421875 C-62.79802734 45.44716797 -62.79802734 45.44716797 -64.0625 45.0625 C-64.88621094 44.81886719 -65.70992188 44.57523438 -66.55859375 44.32421875 C-67.24050781 44.01097656 -67.92242187 43.69773438 -68.625 43.375 C-68.955 42.385 -69.285 41.395 -69.625 40.375 C-64.96403658 36.0823416 -60.22689058 32.26122491 -54.890625 28.83984375 C-53.41909752 27.88842512 -51.96898549 26.90271888 -50.546875 25.87890625 C-40.26061285 18.54518231 -27.9870138 13.6426328 -15.4375 12.3125 C-9.95664805 11.73462256 -9.95664805 11.73462256 -4.625 10.375 C-7.20284846 7.72747996 -9.54148098 5.43067935 -12.625 3.375 C-12.625 2.055 -12.625 0.735 -12.625 -0.625 C-8.06804988 -2.02371817 -4.55026756 -1.04144762 0 0 Z M-315.7265625 641.59375 C-317.36359131 641.6546582 -317.36359131 641.6546582 -319.03369141 641.71679688 C-320.42507324 641.76900391 -321.81645508 641.82121094 -323.25 641.875 C-327.66375 642.04 -332.0775 642.205 -336.625 642.375 C-336.625 651.285 -336.625 660.195 -336.625 669.375 C-327.055 669.375 -317.485 669.375 -307.625 669.375 C-307.625 660.135 -307.625 650.895 -307.625 641.375 C-310.32898638 641.375 -313.02440491 641.49273476 -315.7265625 641.59375 Z " fill="#1E1D28" transform="translate(551.625,81.625)"/>
<path d="M0 0 C0.80888672 0.18240234 1.61777344 0.36480469 2.45117188 0.55273438 C7.75940576 1.81903595 12.40387919 3.47553873 17.171875 6.17578125 C19.44721764 7.41430995 21.6777819 8.22176217 24.125 9.0625 C37.5638993 14.4338469 45.89231064 23.62329905 53.90625 35.26855469 C55.40794107 37.42224328 56.95860765 39.53046857 58.53125 41.6328125 C59.04018799 42.31384033 59.54912598 42.99486816 60.07348633 43.6965332 C61.04440436 44.99475202 62.01558328 46.29277578 62.98706055 47.59057617 C64.89215543 50.1766472 66.35199364 52.30598093 67.375 55.375 C68.035 55.375 68.695 55.375 69.375 55.375 C69.90609375 56.36242187 70.4371875 57.34984375 70.984375 58.3671875 C71.69733757 59.66177743 72.41091136 60.95603087 73.125 62.25 C73.47304688 62.90097656 73.82109375 63.55195313 74.1796875 64.22265625 C76.77462148 68.97114806 76.77462148 68.97114806 81.375 71.375 C85.39689655 71.83846074 89.51660613 71.66113129 93.375 70.375 C94.375 73.375 94.375 73.375 92.94140625 76.51171875 C92.28364027 77.7010128 91.61522185 78.88446371 90.9375 80.0625 C90.42993164 80.97225586 90.42993164 80.97225586 89.91210938 81.90039062 C89.07542085 83.3970025 88.22637169 84.88669189 87.375 86.375 C88.14199219 86.67792969 88.90898438 86.98085937 89.69921875 87.29296875 C95.50323584 89.63999464 101.39124852 92.54231803 106.375 96.375 C106.375 97.035 106.375 97.695 106.375 98.375 C100.59740116 98.49536664 95.09540011 98.2070582 89.375 97.375 C89.39820313 98.34179688 89.42140625 99.30859375 89.4453125 100.3046875 C89.61617894 112.63148061 88.95974821 122.18780997 81.375 132.375 C80.56546875 133.13683594 79.7559375 133.89867187 78.921875 134.68359375 C75.86938999 137.9093026 74.32144717 141.15056451 72.4375 145.125 C67.15755285 155.69993358 59.68862401 164.28689932 51.87036133 173.06420898 C48.37630703 177.07516108 47.4991981 180.15009464 47.375 185.375 C47.34140381 186.1369165 47.30780762 186.89883301 47.27319336 187.68383789 C47.0891077 195.69348986 48.3175142 203.26242347 49.75 211.125 C49.97171875 212.39988281 50.1934375 213.67476562 50.421875 214.98828125 C50.85267045 217.41847442 51.30302773 219.84531197 51.77636719 222.26757812 C52.12455187 224.07495767 52.43970816 225.89051548 52.66894531 227.71679688 C52.92092466 229.81108282 52.92092466 229.81108282 54.375 232.375 C56.4426143 233.46173547 58.44354075 234.0402823 60.70263672 234.63525391 C63.60022335 235.43734485 66.22116309 236.51996092 68.97265625 237.73046875 C70.00076416 238.1797876 71.02887207 238.62910645 72.08813477 239.09204102 C73.19342529 239.57729248 74.29871582 240.06254395 75.4375 240.5625 C87.35462456 245.73386942 99.36735344 250.63494168 111.4375 255.4375 C112.29492798 255.77880951 113.15235596 256.12011902 114.0357666 256.47177124 C117.43936605 257.82641794 120.84308654 259.18075927 124.24713135 260.5342865 C134.68549792 264.68730279 145.09307215 268.91446726 155.48291016 273.1875 C157.41877231 273.9823703 159.35596257 274.77401337 161.29443359 275.5625 C163.99097823 276.65946232 166.68347247 277.76579576 169.375 278.875 C170.15335205 279.18953125 170.9317041 279.5040625 171.73364258 279.828125 C177.10688206 282.06294174 179.96157559 283.88859656 182.23413086 289.25244141 C182.57054596 290.03696686 182.90696106 290.82149231 183.25357056 291.62979126 C183.79127579 292.91519302 183.79127579 292.91519302 184.33984375 294.2265625 C184.72506195 295.13191742 185.11028015 296.03727234 185.50717163 296.97006226 C186.78347926 299.97677994 188.04841536 302.98812501 189.3125 306 C190.20641336 308.11727659 191.10054121 310.23446264 191.99487305 312.3515625 C273.50983607 505.72161383 273.50983607 505.72161383 260.375 538.375 C250.4935786 553.24144341 228.82599014 564.25831073 213.375 572.375 C212.715 572.375 212.055 572.375 211.375 572.375 C210.61856843 581.73224806 210.18970133 591.04390183 210.05859375 600.4296875 C210.0274221 602.33102951 210.0274221 602.33102951 209.99562073 604.27078247 C209.94191364 607.58812074 209.89149381 610.90548589 209.84277344 614.22290039 C209.79190381 617.62911435 209.7365649 621.03525568 209.68164062 624.44140625 C209.57538197 631.08588056 209.47388348 637.73041201 209.375 644.375 C213.005 644.375 216.635 644.375 220.375 644.375 C220.375 644.705 220.375 645.035 220.375 645.375 C216.085 645.375 211.795 645.375 207.375 645.375 C207.37003478 643.59117999 207.37003478 643.59117999 207.36496925 641.7713232 C207.28593659 613.53623313 207.19671097 585.30118784 207.09494839 557.0661706 C207.08242965 553.59025658 207.06999686 550.11434225 207.05761719 546.63842773 C207.0539182 545.60044805 207.0539182 545.60044805 207.05014448 544.54149909 C207.01043034 533.33975082 206.97767705 522.13799247 206.94750018 510.93621492 C206.91637647 499.44053363 206.87761572 487.94489927 206.83220994 476.44926506 C206.80695085 469.99303352 206.78516772 463.5368322 206.77165604 457.0805645 C206.75883048 451.00428565 206.73677045 444.92811043 206.70761681 438.85188866 C206.69854495 436.62144847 206.69285171 434.39099159 206.69078636 432.16053391 C206.68746113 429.11503781 206.67197619 426.06983507 206.6534729 423.0243988 C206.656375 421.70093363 206.656375 421.70093363 206.65933573 420.35073179 C206.61390256 415.34772163 206.36102272 411.0090886 204.375 406.375 C200.78831701 404.09491883 197.2935976 404.11763824 193.11711121 404.0965271 C191.85652893 404.08536362 190.59594666 404.07420013 189.29716492 404.06269836 C187.9079898 404.06033364 186.51881435 404.05815795 185.12963867 404.05615234 C183.66093394 404.04685019 182.19223448 404.03668108 180.72354126 404.02571106 C176.74257052 403.99842933 172.76163514 403.98326709 168.78059554 403.97028303 C164.61787474 403.9546445 160.45522604 403.92785657 156.29255676 403.9022522 C148.41269769 403.85547722 140.53282503 403.81872691 132.65289813 403.78557932 C123.68071969 403.7473489 114.70861369 403.69794114 105.73649633 403.64759517 C87.28271725 403.54429436 68.82889394 403.45502793 50.375 403.375 C50.045 402.715 49.715 402.055 49.375 401.375 C58.5476945 397.90567142 67.74214414 394.50130474 76.9609375 391.15625 C78.47143677 390.60759277 78.47143677 390.60759277 80.01245117 390.04785156 C82.4664995 389.15652956 84.9206844 388.26558574 87.375 387.375 C86.63538025 387.36691315 85.8957605 387.35882629 85.13372803 387.35049438 C78.01971292 387.27119262 70.90585452 387.18355041 63.79204941 387.08747292 C60.13841962 387.03839696 56.48480735 386.99209474 52.83105469 386.953125 C3.3222063 386.41781209 3.3222063 386.41781209 -20.4375 381.75 C-39.84788534 377.97192609 -55.30220184 378.31264263 -72.625 388.375 C-77.1528721 391.5610146 -80.29194494 394.78199717 -83.09173584 399.53890991 C-85.00795374 402.10300938 -86.04023368 403.20533622 -89.14008331 404.10472488 C-92.3379797 404.37569335 -95.44846162 404.38738637 -98.65722656 404.31494141 C-99.86433289 404.3193222 -101.07143921 404.323703 -102.31512451 404.32821655 C-105.61386456 404.33203999 -108.90856718 404.30034747 -112.20670795 404.25201464 C-115.65968505 404.20932926 -119.11265795 404.21060881 -122.56585693 404.20663452 C-128.35972901 404.19375654 -134.15275387 404.15132142 -139.94628906 404.08837891 C-147.38719226 404.00764637 -154.82754508 403.97297927 -162.26883316 403.95376015 C-168.66608185 403.9371726 -175.06321365 403.90270466 -181.46036053 403.86368513 C-182.83376819 403.85558432 -184.20717967 403.84810565 -185.58059406 403.84124041 C-190.09073124 403.81869415 -194.60040983 403.77839278 -199.11035156 403.72900391 C-200.25322632 403.7236261 -201.39610107 403.71824829 -202.5736084 403.71270752 C-203.61104187 403.69839691 -204.64847534 403.6840863 -205.71734619 403.66934204 C-206.62212833 403.66079508 -207.52691048 403.65224812 -208.45911026 403.64344215 C-210.625 403.375 -210.625 403.375 -212.625 401.375 C-211.99839478 400.00118164 -211.99839478 400.00118164 -211.35913086 398.59960938 C-209.7718041 395.11855945 -208.18610305 391.6367708 -206.60083008 388.15478516 C-205.92156843 386.66338019 -205.24189743 385.17216158 -204.56176758 383.68115234 C-202.56807338 379.31007743 -200.58238904 374.93551202 -198.60830688 370.55554199 C-197.9546396 369.10599558 -197.29935432 367.65717768 -196.64242554 366.20910645 C-193.06876398 358.31561316 -189.74014714 350.53699863 -187.5625 342.125 C-187.0698134 340.33311236 -186.57630222 338.54145126 -186.08203125 336.75 C-185.59620497 334.95837378 -185.11052657 333.16670746 -184.625 331.375 C-179.96219844 314.29401851 -174.2711195 297.76874453 -163.625 283.375 C-163.09132813 282.64925781 -162.55765625 281.92351562 -162.0078125 281.17578125 C-158.01253119 276.51461972 -153.52316728 274.29524017 -147.87890625 272.1171875 C-141.97300344 269.76166573 -136.13664653 267.31314412 -130.36328125 264.6484375 C-129.68201675 264.33432419 -129.00075226 264.02021088 -128.29884338 263.69657898 C-126.89871049 263.0494314 -125.49902086 262.40132399 -124.09976196 261.75228882 C-112.11303063 256.19599315 -100.07816729 250.77374439 -87.9375 245.5625 C-67.60404393 236.85734179 -67.60404393 236.85734179 -47.625 227.375 C-46.34756681 219.96588751 -46.62644658 212.67540408 -46.9375 205.1875 C-46.98817627 203.96385742 -47.03885254 202.74021484 -47.09106445 201.47949219 C-47.25539153 197.77720071 -47.43776241 194.07619659 -47.625 190.375 C-47.69992676 188.73313721 -47.69992676 188.73313721 -47.77636719 187.05810547 C-47.92263366 184.07734389 -48.10933999 181.10236266 -48.3125 178.125 C-48.3535083 177.25206299 -48.3945166 176.37912598 -48.43676758 175.47973633 C-48.89135717 169.80652488 -50.4437113 166.60913214 -54.07641602 162.25097656 C-56.3657857 159.47760171 -57.98917264 156.51169651 -59.75 153.375 C-60.0905542 152.77051025 -60.4311084 152.16602051 -60.78198242 151.54321289 C-63.20328644 147.21643022 -65.44074958 142.82439901 -67.625 138.375 C-68.10066406 137.71113281 -68.57632813 137.04726562 -69.06640625 136.36328125 C-71.42278761 131.84540722 -72.22773743 127.09117681 -73.25 122.125 C-73.4665625 121.12597656 -73.683125 120.12695312 -73.90625 119.09765625 C-78.14888897 99.06297222 -79.95913142 76.09556396 -69.31640625 57.82421875 C-67.19169495 54.74755827 -64.81304428 52.21586117 -62.04296875 49.71484375 C-60.49952808 48.40986037 -60.49952808 48.40986037 -59.625 46.375 C-60.26308594 46.19324219 -60.90117187 46.01148438 -61.55859375 45.82421875 C-62.79802734 45.44716797 -62.79802734 45.44716797 -64.0625 45.0625 C-65.29806641 44.69705078 -65.29806641 44.69705078 -66.55859375 44.32421875 C-67.24050781 44.01097656 -67.92242187 43.69773438 -68.625 43.375 C-68.955 42.385 -69.285 41.395 -69.625 40.375 C-64.96403658 36.0823416 -60.22689058 32.26122491 -54.890625 28.83984375 C-53.41909752 27.88842512 -51.96898549 26.90271888 -50.546875 25.87890625 C-40.26061285 18.54518231 -27.9870138 13.6426328 -15.4375 12.3125 C-9.95664805 11.73462256 -9.95664805 11.73462256 -4.625 10.375 C-7.20284846 7.72747996 -9.54148098 5.43067935 -12.625 3.375 C-12.625 2.055 -12.625 0.735 -12.625 -0.625 C-8.06804988 -2.02371817 -4.55026756 -1.04144762 0 0 Z " fill="#F5F5F5" transform="translate(551.625,81.625)"/>
<path d="M0 0 C0.80888672 0.18240234 1.61777344 0.36480469 2.45117188 0.55273438 C7.75940576 1.81903595 12.40387919 3.47553873 17.171875 6.17578125 C19.44721764 7.41430995 21.6777819 8.22176217 24.125 9.0625 C37.5638993 14.4338469 45.89231064 23.62329905 53.90625 35.26855469 C55.40794107 37.42224328 56.95860765 39.53046857 58.53125 41.6328125 C59.29465698 42.65435425 59.29465698 42.65435425 60.07348633 43.6965332 C61.04440436 44.99475202 62.01558328 46.29277578 62.98706055 47.59057617 C64.89215543 50.1766472 66.35199364 52.30598093 67.375 55.375 C68.035 55.375 68.695 55.375 69.375 55.375 C69.90609375 56.36242187 70.4371875 57.34984375 70.984375 58.3671875 C71.69733757 59.66177743 72.41091136 60.95603087 73.125 62.25 C73.47304688 62.90097656 73.82109375 63.55195313 74.1796875 64.22265625 C76.77462148 68.97114806 76.77462148 68.97114806 81.375 71.375 C85.39689655 71.83846074 89.51660613 71.66113129 93.375 70.375 C94.375 73.375 94.375 73.375 92.94140625 76.51171875 C92.28364027 77.7010128 91.61522185 78.88446371 90.9375 80.0625 C90.42993164 80.97225586 90.42993164 80.97225586 89.91210938 81.90039062 C89.07542085 83.3970025 88.22637169 84.88669189 87.375 86.375 C88.14199219 86.67792969 88.90898438 86.98085937 89.69921875 87.29296875 C95.50323584 89.63999464 101.39124852 92.54231803 106.375 96.375 C106.375 97.035 106.375 97.695 106.375 98.375 C100.59740116 98.49536664 95.09540011 98.2070582 89.375 97.375 C89.39820313 98.34179688 89.42140625 99.30859375 89.4453125 100.3046875 C89.61617894 112.63148061 88.95974821 122.18780997 81.375 132.375 C80.56546875 133.13683594 79.7559375 133.89867187 78.921875 134.68359375 C75.86938999 137.9093026 74.32144717 141.15056451 72.4375 145.125 C67.15755285 155.69993358 59.68862401 164.28689932 51.87036133 173.06420898 C48.37630197 177.07516689 47.49922595 180.15006807 47.375 185.375 C47.34140381 186.13546631 47.30780762 186.89593262 47.27319336 187.67944336 C47.08795266 195.72850044 48.32036384 203.34684279 49.75 211.25 C49.97171875 212.54164063 50.1934375 213.83328125 50.421875 215.1640625 C51.36472529 220.51057829 52.34798676 225.33814661 54.375 230.375 C54.375 231.365 54.375 232.355 54.375 233.375 C40.63771724 240.57245932 27.23480588 246.59291933 12 249.8125 C11.19208008 249.9887793 10.38416016 250.16505859 9.55175781 250.34667969 C-0.23389312 252.2397729 -8.7454646 250.4318247 -18.0625 247.25 C-18.97974854 246.93796631 -19.89699707 246.62593262 -20.84204102 246.30444336 C-31.1505505 242.66157287 -40.15455781 238.2570992 -45.625 228.375 C-46.55873328 224.59482602 -46.71218538 220.89040513 -46.83203125 217.0078125 C-46.88775803 215.93304657 -46.9434848 214.85828064 -47.00090027 213.75094604 C-47.17253953 210.33461668 -47.30599801 206.91808651 -47.4375 203.5 C-47.59566616 200.08988929 -47.76155324 196.68020922 -47.92765808 193.27047729 C-48.02770615 191.15596912 -48.12160855 189.04115763 -48.20820618 186.92605591 C-48.40352754 182.24042537 -48.63619684 177.55822595 -48.9987793 172.88232422 C-49.05696335 172.10267303 -49.1151474 171.32302185 -49.1750946 170.51974487 C-49.86374542 167.23687626 -51.68361714 165.22237438 -53.80859375 162.703125 C-56.1009166 159.76500797 -57.92513322 156.61366997 -59.75 153.375 C-60.09385742 152.76567627 -60.43771484 152.15635254 -60.79199219 151.52856445 C-63.20708368 147.20512986 -65.44334322 142.81911567 -67.625 138.375 C-68.10066406 137.71113281 -68.57632812 137.04726562 -69.06640625 136.36328125 C-71.42278761 131.84540722 -72.22773743 127.09117681 -73.25 122.125 C-73.4665625 121.12597656 -73.683125 120.12695312 -73.90625 119.09765625 C-78.14888897 99.06297222 -79.95913142 76.09556396 -69.31640625 57.82421875 C-67.19169495 54.74755827 -64.81304428 52.21586117 -62.04296875 49.71484375 C-60.49952808 48.40986037 -60.49952808 48.40986037 -59.625 46.375 C-60.26308594 46.19324219 -60.90117187 46.01148438 -61.55859375 45.82421875 C-62.79802734 45.44716797 -62.79802734 45.44716797 -64.0625 45.0625 C-64.88621094 44.81886719 -65.70992188 44.57523438 -66.55859375 44.32421875 C-67.24050781 44.01097656 -67.92242187 43.69773438 -68.625 43.375 C-69.12 41.89 -69.12 41.89 -69.625 40.375 C-64.96403658 36.0823416 -60.22689058 32.26122491 -54.890625 28.83984375 C-53.41909752 27.88842512 -51.96898549 26.90271888 -50.546875 25.87890625 C-40.26061285 18.54518231 -27.9870138 13.6426328 -15.4375 12.3125 C-9.95664805 11.73462256 -9.95664805 11.73462256 -4.625 10.375 C-7.20284846 7.72747996 -9.54148098 5.43067935 -12.625 3.375 C-12.625 2.055 -12.625 0.735 -12.625 -0.625 C-8.06804988 -2.02371817 -4.55026756 -1.04144762 0 0 Z " fill="#A0616A" transform="translate(551.625,81.625)"/>
<path d="M0 0 C1.1537915 0.00088623 2.30758301 0.00177246 3.49633789 0.00268555 C11.9204078 0.1198931 21.2303022 0.25819785 28.1015625 5.82421875 C29.3125 7.375 29.3125 7.375 29.75 10.375 C29.3125 13.375 29.3125 13.375 27.70703125 14.92578125 C23.00446912 17.77186697 17.55716843 18.85404616 12.3125 20.375 C12.3125 25.985 12.3125 31.595 12.3125 37.375 C13.4675 37.41625 14.6225 37.4575 15.8125 37.5 C33.29997644 39.4583767 48.08860567 49.45010741 60.3125 61.375 C60.97121094 61.96023437 61.62992188 62.54546875 62.30859375 63.1484375 C77.05940263 76.57065159 83.91909661 97.96688139 85.3125 117.375 C85.39371094 118.45974609 85.39371094 118.45974609 85.4765625 119.56640625 C86.28359496 141.24623272 77.60973161 162.76664202 63.6875 179.0625 C55.66403664 187.5310245 45.70956121 194.14896394 35.3125 199.375 C40.11309625 200.14617944 44.732893 200.51129453 49.59301758 200.54858398 C50.28333069 200.555271 50.9736438 200.56195801 51.68487549 200.56884766 C53.17002993 200.58279902 54.65520457 200.59472372 56.1403904 200.60479546 C58.48972217 200.62132374 60.83890154 200.64455897 63.18815613 200.66969299 C69.86258279 200.74018998 76.53706576 200.80083099 83.21166992 200.85180664 C87.30469012 200.88353273 91.39752344 200.92477152 95.49039268 200.97200203 C97.04892326 200.98803682 98.60749663 201.00035156 100.1660862 201.00890923 C102.33723717 201.02101602 104.50794415 201.04513888 106.67895508 201.07202148 C107.91470779 201.08232895 109.15046051 201.09263641 110.42366028 201.10325623 C113.3125 201.375 113.3125 201.375 115.3125 203.375 C113.58054382 203.37713753 113.58054382 203.37713753 111.81359863 203.37931824 C100.86958116 203.39607294 89.92593149 203.43910342 78.98210907 203.50709057 C73.35732311 203.54121021 67.73280444 203.56644705 62.10791016 203.57055664 C56.66761899 203.57487197 51.22792926 203.60360031 45.78782654 203.64843178 C43.72451801 203.66130414 41.66113713 203.66575141 39.59779358 203.66115379 C28.26410837 203.64180289 18.41033654 204.23978788 7.7166748 208.17793274 C-10.64272147 214.63395614 -34.14443317 212.26327598 -52.3677063 206.04917908 C-59.77628321 203.89609644 -67.86037601 204.23502543 -75.5078125 204.27734375 C-76.49248505 204.2787587 -77.47715759 204.28017365 -78.4916687 204.28163147 C-81.598645 204.28717385 -84.70554593 204.29971517 -87.8125 204.3125 C-89.93489478 204.31752246 -92.05729071 204.32208405 -94.1796875 204.32617188 C-99.34898683 204.33712433 -104.51823069 204.35434834 -109.6875 204.375 C-107.26483381 201.95233381 -106.56521199 202.09163379 -103.23779297 201.96435547 C-102.31698944 201.92446503 -101.39618591 201.88457458 -100.44747925 201.84347534 C-99.45160797 201.81005035 -98.45573669 201.77662537 -97.4296875 201.7421875 C-96.41149933 201.70062531 -95.39331116 201.65906311 -94.3442688 201.61624146 C-91.08395995 201.48521914 -87.82332265 201.36746825 -84.5625 201.25 C-82.35543446 201.16363235 -80.14840242 201.07640385 -77.94140625 200.98828125 C-72.5237871 200.77385428 -67.1058395 200.57032855 -61.6875 200.375 C-62.36151855 199.77461914 -63.03553711 199.17423828 -63.72998047 198.55566406 C-64.62088379 197.75870117 -65.51178711 196.96173828 -66.4296875 196.140625 C-67.75009033 194.96161621 -67.75009033 194.96161621 -69.09716797 193.75878906 C-86.30590696 177.92220777 -94.81421762 157.77307562 -95.97265625 134.7109375 C-96.56124341 115.02666275 -91.37907836 94.9690779 -77.6875 80.375 C-76.58521463 79.16862886 -75.48371554 77.96153901 -74.3828125 76.75390625 C-71.39072619 73.49292329 -68.35731142 70.27425196 -65.30175781 67.07275391 C-63.93641173 65.63678647 -62.5874195 64.18529632 -61.2421875 62.73046875 C-48.25537499 49.04878989 -31.92348387 41.38550098 -13.6875 37.375 C-13.0275 37.375 -12.3675 37.375 -11.6875 37.375 C-11.6875 31.765 -11.6875 26.155 -11.6875 20.375 C-13.75 19.776875 -15.8125 19.17875 -17.9375 18.5625 C-25.54885005 16.35520849 -25.54885005 16.35520849 -28.6875 13.375 C-29.4375 10.5 -29.4375 10.5 -28.6875 7.375 C-20.84752415 -0.02044114 -10.12007601 -0.01382027 0 0 Z M57.3125 65.375 C56.39774432 66.79795327 55.48635183 68.22320255 54.59375 69.66015625 C52.70774566 72.18441206 50.32224833 73.9224022 47.80078125 75.78515625 C45.76352142 77.96144168 45.42843787 79.40966596 45.3125 82.375 C46.50583678 84.69289635 46.50583678 84.69289635 48.375 86.875 C54.89680727 95.64436237 58.57294175 105.28543528 61.35546875 115.79296875 C62.13948103 118.68388695 62.13948103 118.68388695 65.3125 120.375 C68.28092658 120.83415507 68.28092658 120.83415507 71.5 121 C72.58667969 121.07476562 73.67335938 121.14953125 74.79296875 121.2265625 C75.62441406 121.27554688 76.45585937 121.32453125 77.3125 121.375 C76.38566406 121.43558594 75.45882812 121.49617188 74.50390625 121.55859375 C73.30636719 121.64238281 72.10882813 121.72617188 70.875 121.8125 C69.68003906 121.89371094 68.48507812 121.97492188 67.25390625 122.05859375 C64.42679756 122.05156114 64.42679756 122.05156114 63.3125 123.375 C63.21682442 125.5032501 63.12782835 127.63201862 63.07324219 129.76171875 C62.6630325 144.74804583 59.64278013 157.6766889 53.3125 171.375 C53.9725 172.035 54.6325 172.695 55.3125 173.375 C56.00998583 174.69247324 56.68209957 176.02414193 57.3125 177.375 C71.52461363 164.32305891 80.67140265 147.14227121 81.59765625 127.6328125 C82.2080254 105.04915409 76.58127238 83.97064961 61.1640625 67.01171875 C59.47463091 65.154233 59.47463091 65.154233 57.3125 65.375 Z " fill="#FDFDFD" transform="translate(231.6875,98.625)"/>
<path d="M0 0 C0.80888672 0.18240234 1.61777344 0.36480469 2.45117188 0.55273438 C7.75940576 1.81903595 12.40387919 3.47553873 17.171875 6.17578125 C19.44721764 7.41430995 21.6777819 8.22176217 24.125 9.0625 C37.5638993 14.4338469 45.89231064 23.62329905 53.90625 35.26855469 C55.40794107 37.42224328 56.95860765 39.53046857 58.53125 41.6328125 C59.29465698 42.65435425 59.29465698 42.65435425 60.07348633 43.6965332 C61.04440436 44.99475202 62.01558328 46.29277578 62.98706055 47.59057617 C64.89215543 50.1766472 66.35199364 52.30598093 67.375 55.375 C68.035 55.375 68.695 55.375 69.375 55.375 C69.90609375 56.36242187 70.4371875 57.34984375 70.984375 58.3671875 C71.69733757 59.66177743 72.41091136 60.95603087 73.125 62.25 C73.47304688 62.90097656 73.82109375 63.55195313 74.1796875 64.22265625 C76.77462148 68.97114806 76.77462148 68.97114806 81.375 71.375 C85.39689655 71.83846074 89.51660613 71.66113129 93.375 70.375 C94.375 73.375 94.375 73.375 92.94140625 76.51171875 C92.28364027 77.7010128 91.61522185 78.88446371 90.9375 80.0625 C90.42993164 80.97225586 90.42993164 80.97225586 89.91210938 81.90039062 C89.07542085 83.3970025 88.22637169 84.88669189 87.375 86.375 C88.14199219 86.67792969 88.90898438 86.98085937 89.69921875 87.29296875 C95.50323584 89.63999464 101.39124852 92.54231803 106.375 96.375 C106.375 97.035 106.375 97.695 106.375 98.375 C100.59740116 98.49536664 95.09540011 98.2070582 89.375 97.375 C89.39820313 98.34179688 89.42140625 99.30859375 89.4453125 100.3046875 C89.62623218 113.35674988 88.79831264 123.73806677 79.94140625 134.04296875 C78.79781022 135.20013862 77.59097179 136.29413619 76.375 137.375 C75.715 138.035 75.055 138.695 74.375 139.375 C61.375 113.66532258 61.375 113.66532258 61.375 110.375 C59.395 111.365 59.395 111.365 57.375 112.375 C51.80977794 107.26649829 47.53827918 101.66420898 43.375 95.375 C41.725 97.025 40.075 98.675 38.375 100.375 C36.5 99.8125 36.5 99.8125 34.375 98.375 C32.93260783 94.48054113 32.375 91.53977964 32.375 87.375 C31.84517517 87.55483429 31.31535034 87.73466858 30.76947021 87.91995239 C25.2599567 89.78673976 19.74374187 91.63256529 14.22314453 93.46630859 C12.1630769 94.15364716 10.10478519 94.84633225 8.04833984 95.54443359 C5.09401532 96.54631017 2.13386146 97.52885727 -0.828125 98.5078125 C-1.74805237 98.82436798 -2.66797974 99.14092346 -3.61578369 99.46707153 C-4.4763739 99.74751312 -5.33696411 100.02795471 -6.22363281 100.31689453 C-7.35614471 100.69661911 -7.35614471 100.69661911 -8.51153564 101.08401489 C-10.625 101.375 -10.625 101.375 -14.625 99.375 C-13.305 96.405 -11.985 93.435 -10.625 90.375 C-18.215 91.365 -25.805 92.355 -33.625 93.375 C-34.285 92.055 -34.945 90.735 -35.625 89.375 C-34.305 87.725 -32.985 86.075 -31.625 84.375 C-41.81260702 90.88952422 -51.59467766 97.2176183 -54.3828125 109.79296875 C-54.58648437 111.01628906 -54.79015625 112.23960937 -55 113.5 C-56.47545068 122.36175595 -60.30830956 129.57214626 -64.625 137.375 C-65.945 137.375 -67.265 137.375 -68.625 137.375 C-70.93371824 131.61639708 -72.52414154 126.01285454 -73.75 119.9375 C-73.91886719 119.14279297 -74.08773438 118.34808594 -74.26171875 117.52929688 C-78.30086215 97.98556757 -79.64603871 75.55804891 -69.31640625 57.82421875 C-67.19169495 54.74755827 -64.81304428 52.21586117 -62.04296875 49.71484375 C-60.49952808 48.40986037 -60.49952808 48.40986037 -59.625 46.375 C-60.26308594 46.19324219 -60.90117187 46.01148438 -61.55859375 45.82421875 C-62.79802734 45.44716797 -62.79802734 45.44716797 -64.0625 45.0625 C-64.88621094 44.81886719 -65.70992188 44.57523438 -66.55859375 44.32421875 C-67.24050781 44.01097656 -67.92242187 43.69773438 -68.625 43.375 C-69.12 41.89 -69.12 41.89 -69.625 40.375 C-64.96403658 36.0823416 -60.22689058 32.26122491 -54.890625 28.83984375 C-53.41909752 27.88842512 -51.96898549 26.90271888 -50.546875 25.87890625 C-40.26061285 18.54518231 -27.9870138 13.6426328 -15.4375 12.3125 C-9.95664805 11.73462256 -9.95664805 11.73462256 -4.625 10.375 C-7.20284846 7.72747996 -9.54148098 5.43067935 -12.625 3.375 C-12.625 2.055 -12.625 0.735 -12.625 -0.625 C-8.06804988 -2.02371817 -4.55026756 -1.04144762 0 0 Z " fill="#F0F0F0" transform="translate(551.625,81.625)"/>
<path d="M0 0 C9.37528612 3.85525784 17.04193622 15.15918806 23 23 C23.70640625 23.88945313 24.4128125 24.77890625 25.140625 25.6953125 C39.09136254 43.59713305 48.01173043 60.32483429 45.64453125 83.4765625 C44.27151894 92.93509173 40.67331583 100.11102944 34 107 C31.1944491 109.00838747 28.35078587 110.78175814 25.35546875 112.4921875 C22.75244669 113.93614111 22.75244669 113.93614111 21 117 C20.34 117 19.68 117 19 117 C19 116.34 19 115.68 19 115 C18.01 115.33 17.02 115.66 16 116 C14.11641666 116.09417917 12.22968518 116.13071168 10.34375 116.1328125 C9.23902344 116.13410156 8.13429688 116.13539063 6.99609375 116.13671875 C5.84238281 116.13285156 4.68867187 116.12898437 3.5 116.125 C1.76943359 116.13080078 1.76943359 116.13080078 0.00390625 116.13671875 C-1.65318359 116.13478516 -1.65318359 116.13478516 -3.34375 116.1328125 C-4.86258789 116.13112061 -4.86258789 116.13112061 -6.41210938 116.12939453 C-9 116 -9 116 -12 115 C-11.67 123.91 -11.34 132.82 -11 142 C-1.43 142.33 8.14 142.66 18 143 C18.33 137.06 18.66 131.12 19 125 C19.66 125 20.32 125 21 125 C22.23107198 130.69370789 22.07070544 136.20215428 22 142 C28.27 142.33 34.54 142.66 41 143 C37.69477196 145.20348536 36.72339001 145.24563385 32.88598633 145.22705078 C31.84513382 145.22689972 30.80428131 145.22674866 29.73188782 145.22659302 C28.60993515 145.21627045 27.48798248 145.20594788 26.33203125 145.1953125 C25.18208176 145.1924826 24.03213226 145.18965271 22.84733582 145.18673706 C19.16895204 145.17552833 15.49081038 145.15042224 11.8125 145.125 C9.32096705 145.11497111 6.8294303 145.1058451 4.33789062 145.09765625 C-1.77482241 145.07558673 -7.88739391 145.04210224 -14 145 C-15.19305058 134.59080572 -15.19305058 134.59080572 -14.67578125 129.89453125 C-14.03123972 122.40473888 -14.03123972 122.40473888 -15 115 C-17.76955556 112.10536774 -20.20016005 110.96461441 -23.875 109.421875 C-29.78892442 106.73103939 -33.24483704 101.23733565 -35.75 95.375 C-42.25054499 74.93891168 -39.37802331 58.53117284 -29.88671875 39.68359375 C-25.15682417 30.74840447 -19.449037 22.77059926 -13 15 C-12.51112305 14.40960937 -12.02224609 13.81921875 -11.51855469 13.2109375 C-3.17409306 3.17409306 -3.17409306 3.17409306 0 0 Z " fill="#69CE8E" transform="translate(873,608)"/>
<path d="M0 0 C2.2078746 0.87223015 3.39186976 1.79249226 5.07055664 3.4597168 C5.63299072 4.01594727 6.1954248 4.57217773 6.77490234 5.14526367 C7.66181763 6.05308594 7.66181763 6.05308594 8.56665039 6.97924805 C9.18435303 7.60637695 9.80205566 8.23350586 10.43847656 8.87963867 C27.93613299 26.943482 44.73584035 49.79548627 45.00415039 75.79174805 C44.10600799 87.31078071 40.87734331 97.98801718 32.00415039 105.79174805 C28.16121979 108.4362835 24.17381098 110.70691775 20.00415039 112.79174805 C19.67415039 122.03174805 19.34415039 131.27174805 19.00415039 140.79174805 C20.32415039 141.12174805 21.64415039 141.45174805 23.00415039 141.79174805 C20.69415039 141.46174805 18.38415039 141.13174805 16.00415039 140.79174805 C16.00415039 131.88174805 16.00415039 122.97174805 16.00415039 113.79174805 C15.01415039 114.28674805 15.01415039 114.28674805 14.00415039 114.79174805 C11.97182405 114.87702433 9.93668033 114.8989094 7.90258789 114.8894043 C6.81123535 114.88690674 5.71988281 114.88440918 4.59545898 114.88183594 C3.20407715 114.87273193 1.81269531 114.86362793 0.37915039 114.85424805 C-4.03459961 114.83362305 -8.44834961 114.81299805 -12.99584961 114.79174805 C-12.99584961 123.70174805 -12.99584961 132.61174805 -12.99584961 141.79174805 C-13.32584961 141.79174805 -13.65584961 141.79174805 -13.99584961 141.79174805 C-14.32584961 132.22174805 -14.65584961 122.65174805 -14.99584961 112.79174805 C-16.97584961 112.46174805 -18.95584961 112.13174805 -20.99584961 111.79174805 C-23.55834961 109.91674805 -23.55834961 109.91674805 -25.99584961 107.79174805 C-26.80022461 107.37924805 -27.60459961 106.96674805 -28.43334961 106.54174805 C-36.71580272 100.88543861 -39.80955539 91.43102845 -41.78881836 82.0222168 C-45.37192164 61.27166184 -35.93933946 41.45847614 -24.35473633 24.66870117 C-20.5625642 19.43078897 -16.29962953 14.60960888 -11.99584961 9.79174805 C-10.66208522 8.22961598 -9.32868495 6.66717286 -7.99584961 5.10424805 C-3.32659614 -0.34710538 -3.32659614 -0.34710538 0 0 Z " fill="#6ECE92" transform="translate(227.995849609375,609.208251953125)"/>
<path d="M0 0 C0.99 0 1.98 0 3 0 C3.33 11.88 3.66 23.76 4 36 C5.65 34.02 7.3 32.04 9 30 C9 33 9 33 7.046875 35.4765625 C3.8994136 39.96460931 4.32517455 45.07861133 4.25 50.375 C4.20552734 51.90833984 4.20552734 51.90833984 4.16015625 53.47265625 C4.08980506 55.98184853 4.03693794 58.49013054 4 61 C5.32 58.69 6.64 56.38 8 54 C8.33 54.66 8.66 55.32 9 56 C8.38125 57.093125 7.7625 58.18625 7.125 59.3125 C4.13495145 64.89048712 4.18938079 70.78831006 4 77 C4.99 75.35 5.98 73.7 7 72 C7.33 72.99 7.66 73.98 8 75 C7.53166748 75.75498779 7.06333496 76.50997559 6.58081055 77.2878418 C4.65826617 80.58630441 4.6531001 82.60137377 4.70703125 86.39453125 C4.71669922 87.59658203 4.72636719 88.79863281 4.73632812 90.03710938 C4.76146484 91.28298828 4.78660156 92.52886719 4.8125 93.8125 C4.82603516 95.07771484 4.83957031 96.34292969 4.85351562 97.64648438 C4.88881682 100.76475643 4.93813181 103.88216042 5 107 C5.99 106.01 6.98 105.02 8 104 C6.66666667 107.33333333 5.33333333 110.66666667 4 114 C-0.29 114 -4.58 114 -9 114 C-9 122.91 -9 131.82 -9 141 C-9.33 141 -9.66 141 -10 141 C-10.33 131.43 -10.66 121.86 -11 112 C-12.98 111.67 -14.96 111.34 -17 111 C-19.5625 109.125 -19.5625 109.125 -22 107 C-22.804375 106.5875 -23.60875 106.175 -24.4375 105.75 C-32.71995311 100.09369056 -35.81370578 90.6392804 -37.79296875 81.23046875 C-41.37607203 60.47991379 -31.94348985 40.6667281 -20.35888672 23.87695312 C-16.5671279 18.63961181 -12.30748051 13.81385608 -8 9 C-6.62390805 7.4176156 -5.24873522 5.83443081 -3.875 4.25 C-1.17241379 1.17241379 -1.17241379 1.17241379 0 0 Z " fill="#69CE8E" transform="translate(224,610)"/>
<path d="M0 0 C1.1537915 0.00088623 2.30758301 0.00177246 3.49633789 0.00268555 C11.9204078 0.1198931 21.2303022 0.25819785 28.1015625 5.82421875 C29.3125 7.375 29.3125 7.375 29.75 10.375 C29.3125 13.375 29.3125 13.375 27.70703125 14.92578125 C23.00446912 17.77186697 17.55716843 18.85404616 12.3125 20.375 C12.3125 25.985 12.3125 31.595 12.3125 37.375 C13.4675 37.41625 14.6225 37.4575 15.8125 37.5 C33.29997644 39.4583767 48.08860567 49.45010741 60.3125 61.375 C60.97121094 61.96023437 61.62992188 62.54546875 62.30859375 63.1484375 C77.05940263 76.57065159 83.91909661 97.96688139 85.3125 117.375 C85.39371094 118.45974609 85.39371094 118.45974609 85.4765625 119.56640625 C86.28359496 141.24623272 77.60973161 162.76664202 63.6875 179.0625 C55.66403664 187.5310245 45.70956121 194.14896394 35.3125 199.375 C40.11309625 200.14617944 44.732893 200.51129453 49.59301758 200.54858398 C50.28333069 200.555271 50.9736438 200.56195801 51.68487549 200.56884766 C53.17002993 200.58279902 54.65520457 200.59472372 56.1403904 200.60479546 C58.48972217 200.62132374 60.83890154 200.64455897 63.18815613 200.66969299 C69.86258279 200.74018998 76.53706576 200.80083099 83.21166992 200.85180664 C87.30469012 200.88353273 91.39752344 200.92477152 95.49039268 200.97200203 C97.04892326 200.98803682 98.60749663 201.00035156 100.1660862 201.00890923 C102.33723717 201.02101602 104.50794415 201.04513888 106.67895508 201.07202148 C107.91470779 201.08232895 109.15046051 201.09263641 110.42366028 201.10325623 C113.3125 201.375 113.3125 201.375 115.3125 203.375 C113.58054382 203.37713753 113.58054382 203.37713753 111.81359863 203.37931824 C100.86958116 203.39607294 89.92593149 203.43910342 78.98210907 203.50709057 C73.35732311 203.54121021 67.73280444 203.56644705 62.10791016 203.57055664 C56.66761899 203.57487197 51.22792926 203.60360031 45.78782654 203.64843178 C43.72451801 203.66130414 41.66113713 203.66575141 39.59779358 203.66115379 C28.26410837 203.64180289 18.41033654 204.23978788 7.7166748 208.17793274 C-10.64272147 214.63395614 -34.14443317 212.26327598 -52.3677063 206.04917908 C-59.77628321 203.89609644 -67.86037601 204.23502543 -75.5078125 204.27734375 C-76.49248505 204.2787587 -77.47715759 204.28017365 -78.4916687 204.28163147 C-81.598645 204.28717385 -84.70554593 204.29971517 -87.8125 204.3125 C-89.93489478 204.31752246 -92.05729071 204.32208405 -94.1796875 204.32617188 C-99.34898683 204.33712433 -104.51823069 204.35434834 -109.6875 204.375 C-107.27458762 201.96208762 -106.60746039 202.09086846 -103.296875 201.96313477 C-102.37543701 201.92469955 -101.45399902 201.88626434 -100.50463867 201.84666443 C-99.49248291 201.81605423 -98.48032715 201.78544403 -97.4375 201.75390625 C-95.84675659 201.69729576 -95.84675659 201.69729576 -94.22387695 201.63954163 C-80.71465287 201.20818963 -67.20176907 201.26691923 -53.6875 201.3125 C-51.05078211 201.31753252 -48.41406328 201.32209229 -45.77734375 201.32617188 C-39.41404132 201.33702143 -33.05077532 201.35361646 -26.6875 201.375 C-27.23393661 201.12298325 -27.78037323 200.87096649 -28.34336853 200.61131287 C-30.84489612 199.45364692 -33.34235903 198.28745439 -35.83984375 197.12109375 C-36.69944702 196.72482788 -37.55905029 196.32856201 -38.44470215 195.92028809 C-44.9967777 192.8494449 -50.41829673 189.37133382 -55.6875 184.375 C-56.5125 183.63894531 -57.3375 182.90289062 -58.1875 182.14453125 C-73.75577481 167.59673787 -82.86068478 147.21803257 -83.96875 125.95703125 C-84.38651812 112.35554935 -83.45102449 93.09065485 -74.03125 82.515625 C-73.5878125 82.13921875 -73.144375 81.7628125 -72.6875 81.375 C-73.30625 83.23125 -73.30625 83.23125 -73.9375 85.125 C-74.20949219 85.95 -74.48148438 86.775 -74.76171875 87.625 C-75.38842975 89.48662256 -76.03760515 91.3408073 -76.70703125 93.1875 C-84.5020079 115.14189116 -82.83082765 137.25816668 -73.0625 158.3125 C-62.67861457 178.2453856 -45.66640959 191.71829063 -24.6875 199.375 C-17.19783745 201.49293217 -10.07723747 201.78124037 -2.32666016 201.80053711 C-0.08773084 201.81236669 2.14837423 201.86158519 4.38671875 201.91210938 C14.38274606 202.02519036 22.07912245 200.47796788 31.3125 196.375 C32.45114502 195.88012085 32.45114502 195.88012085 33.61279297 195.37524414 C46.85645941 189.27711484 61.85640055 179.34689388 67.3125 165.375 C68.22296948 163.85844087 69.16205758 162.35879518 70.125 160.875 C81.15914612 142.7455472 83.13406359 121.42675091 78.34375 100.95703125 C74.87599138 88.91182423 69.99431967 79.27425215 62.3125 69.375 C61.68601562 68.55257812 61.05953125 67.73015625 60.4140625 66.8828125 C47.92758928 51.65669115 27.57157118 42.83306566 8.3125 40.375 C-15.22817829 38.84736024 -35.35433414 45.51027092 -53.6875 60.375 C-54.48800781 61.01179688 -55.28851563 61.64859375 -56.11328125 62.3046875 C-61.12666056 66.5007596 -64.72068608 70.92097961 -68.1796875 76.46875 C-68.67726562 77.0978125 -69.17484375 77.726875 -69.6875 78.375 C-70.6775 78.375 -71.6675 78.375 -72.6875 78.375 C-74.58489368 79.9084075 -74.58489368 79.9084075 -76.375 81.875 C-76.99761719 82.5246875 -77.62023437 83.174375 -78.26171875 83.84375 C-78.73222656 84.3490625 -79.20273438 84.854375 -79.6875 85.375 C-79.6875 81.68980742 -78.98729914 81.26915251 -76.50390625 78.6796875 C-75.8281958 77.968125 -75.15248535 77.2565625 -74.45629883 76.5234375 C-73.72822021 75.77320313 -73.0001416 75.02296875 -72.25 74.25 C-71.51225342 73.48171875 -70.77450684 72.7134375 -70.0144043 71.921875 C-68.5552242 70.40534301 -67.0928212 68.89190435 -65.62695312 67.38183594 C-64.09315232 65.79474598 -62.58151857 64.18623553 -61.078125 62.5703125 C-48.18290165 48.9479149 -31.80544451 41.35954148 -13.6875 37.375 C-13.0275 37.375 -12.3675 37.375 -11.6875 37.375 C-11.6875 31.765 -11.6875 26.155 -11.6875 20.375 C-13.75 19.776875 -15.8125 19.17875 -17.9375 18.5625 C-25.54885005 16.35520849 -25.54885005 16.35520849 -28.6875 13.375 C-29.4375 10.5 -29.4375 10.5 -28.6875 7.375 C-20.84752415 -0.02044114 -10.12007601 -0.01382027 0 0 Z " fill="#424058" transform="translate(231.6875,98.625)"/>
<path d="M0 0 C23.99090426 4.39725469 48.5953006 4.30321453 72.91027832 4.55401611 C76.70653912 4.59501581 80.50267248 4.64565324 84.29882812 4.6953125 C91.66332193 4.79031396 99.0278812 4.87523943 106.39257812 4.953125 C104.08155402 7.26414911 102.39513448 7.82105077 99.32617188 8.90625 C97.77434204 9.46034546 97.77434204 9.46034546 96.19116211 10.02563477 C94.52742554 10.60849243 94.52742554 10.60849243 92.83007812 11.203125 C90.53825741 12.00867643 88.24659105 12.81466716 85.95507812 13.62109375 C84.83101562 14.01603027 83.70695313 14.4109668 82.54882812 14.81787109 C79.8479869 15.78932156 77.18057786 16.8092756 74.51757812 17.87890625 C64.88735003 21.68595146 56.72793482 22.70428148 46.39257812 21.953125 C46.39257812 20.963125 46.39257812 19.973125 46.39257812 18.953125 C21.64257812 18.623125 -3.10742188 18.293125 -28.60742188 17.953125 C-28.60742188 19.273125 -28.60742188 20.593125 -28.60742188 21.953125 C-42.13742187 21.953125 -55.66742188 21.953125 -69.60742188 21.953125 C-62.93605245 11.94607087 -57.83179676 6.8369865 -47.54492188 1.578125 C-46.87219238 1.23193115 -46.19946289 0.8857373 -45.50634766 0.52905273 C-44.84747559 0.20751221 -44.18860352 -0.11402832 -43.50976562 -0.4453125 C-42.92702881 -0.73067871 -42.34429199 -1.01604492 -41.74389648 -1.31005859 C-28.50819977 -5.8747178 -13.2798971 -2.60895751 0 0 Z " fill="#030303" transform="translate(534.607421875,463.046875)"/>
<path d="M0 0 C5.99260894 3.11747855 9.66453168 8.05018218 13.0625 13.75 C15.3199912 21.71761601 15.07691869 29.2119142 11.25 36.61328125 C8.27229996 41.60713236 4.46165424 45.1388576 0.05859375 48.86328125 C-1.4177304 50.11293745 -2.84585406 51.41975648 -4.25 52.75 C-10.45277213 56.88518142 -17.1599623 58.15819527 -24.4921875 57.06640625 C-31.71075889 55.35051633 -36.88977296 51.79442402 -40.875 45.5 C-43.62008919 39.83372155 -45.07400391 33.74481201 -43.875 27.5 C-39.9483165 16.65699898 -32.78409133 6.04545478 -22.6015625 0.3046875 C-15.8159914 -2.85781849 -6.93321746 -2.71351787 0 0 Z " fill="#CFCCE0" transform="translate(554.875,540.5)"/>
<path d="M0 0 C0.75 1.75 0.75 1.75 1 4 C0.39800781 4.58652344 -0.20398438 5.17304688 -0.82421875 5.77734375 C-10.33057694 15.48850679 -11.48558467 34.25618668 -11.35131836 47.30078125 C-10.6614941 69.75972855 -1.61744319 89.06274568 14 105 C14.65226562 105.68835938 15.30453125 106.37671875 15.9765625 107.0859375 C22.87467495 113.82424812 31.44752432 117.76565447 40 122 C41.16144531 122.58136719 42.32289063 123.16273438 43.51953125 123.76171875 C44.74736328 124.37466797 44.74736328 124.37466797 46 125 C46 125.33 46 125.66 46 126 C41.46528314 126.17451545 36.93256561 126.30073676 32.39526367 126.38452148 C30.85585441 126.41948243 29.31667345 126.46707162 27.77807617 126.52807617 C13.3651801 127.08475732 13.3651801 127.08475732 7.6796875 122.6953125 C6.41993348 121.49750836 5.1911163 120.26607934 4 119 C2.68972502 117.81004539 1.37748593 116.6222466 0.0625 115.4375 C-17.67963834 97.09333301 -24.59821856 74.77156823 -24.20703125 49.58984375 C-23.72184329 35.18005907 -18.73196713 17.22122943 -7.9296875 7.05078125 C-6.91261719 6.19033203 -6.91261719 6.19033203 -5.875 5.3125 C-3.84411909 3.5843353 -1.88645821 1.88645821 0 0 Z " fill="#F0F0F0" transform="translate(160,175)"/>
<path d="M0 0 C1.1537915 0.00088623 2.30758301 0.00177246 3.49633789 0.00268555 C11.9204078 0.1198931 21.2303022 0.25819785 28.1015625 5.82421875 C29.3125 7.375 29.3125 7.375 29.75 10.375 C29.3125 13.375 29.3125 13.375 27.70703125 14.92578125 C23.00446912 17.77186697 17.55716843 18.85404616 12.3125 20.375 C12.3125 25.985 12.3125 31.595 12.3125 37.375 C14.9525 38.035 17.5925 38.695 20.3125 39.375 C20.3125 40.035 20.3125 40.695 20.3125 41.375 C19.64347656 41.3028125 18.97445312 41.230625 18.28515625 41.15625 C-9.15280274 38.50452779 -31.86658922 42.68236964 -53.6875 60.375 C-54.88826172 61.33019531 -54.88826172 61.33019531 -56.11328125 62.3046875 C-61.12666056 66.5007596 -64.72068608 70.92097961 -68.1796875 76.46875 C-68.67726562 77.0978125 -69.17484375 77.726875 -69.6875 78.375 C-70.6775 78.375 -71.6675 78.375 -72.6875 78.375 C-74.58489368 79.9084075 -74.58489368 79.9084075 -76.375 81.875 C-77.30892578 82.84953125 -77.30892578 82.84953125 -78.26171875 83.84375 C-78.73222656 84.3490625 -79.20273438 84.854375 -79.6875 85.375 C-79.6875 81.68980742 -78.98729914 81.26915251 -76.50390625 78.6796875 C-75.8281958 77.968125 -75.15248535 77.2565625 -74.45629883 76.5234375 C-73.72822021 75.77320313 -73.0001416 75.02296875 -72.25 74.25 C-71.51225342 73.48171875 -70.77450684 72.7134375 -70.0144043 71.921875 C-68.5552242 70.40534301 -67.0928212 68.89190435 -65.62695312 67.38183594 C-64.09315232 65.79474598 -62.58151857 64.18623553 -61.078125 62.5703125 C-48.18290165 48.9479149 -31.80544451 41.35954148 -13.6875 37.375 C-13.0275 37.375 -12.3675 37.375 -11.6875 37.375 C-11.6875 31.765 -11.6875 26.155 -11.6875 20.375 C-13.75 19.776875 -15.8125 19.17875 -17.9375 18.5625 C-25.54885005 16.35520849 -25.54885005 16.35520849 -28.6875 13.375 C-29.4375 10.5 -29.4375 10.5 -28.6875 7.375 C-20.84752415 -0.02044114 -10.12007601 -0.01382027 0 0 Z " fill="#45445C" transform="translate(231.6875,98.625)"/>
<path d="M0 0 C17.78698095 4.52838683 30.99655053 10.97681843 44 24 C44.65355469 24.58265625 45.30710937 25.1653125 45.98046875 25.765625 C60.75433887 39.15338831 67.60770829 60.60736542 69 80 C69.08121094 81.08474609 69.08121094 81.08474609 69.1640625 82.19140625 C69.97109496 103.87123272 61.29723161 125.39164202 47.375 141.6875 C39.92274396 149.55313234 29.25688195 158.26404962 19 162 C18.01 161.67 17.02 161.34 16 161 C17 158 17 158 19.51953125 156.52734375 C20.60621094 156.00269531 21.69289063 155.47804688 22.8125 154.9375 C34.2498676 149.11717894 46.23051196 140.21363017 51 128 C51.91046948 126.48344087 52.84955758 124.98379518 53.8125 123.5 C64.84664612 105.3705472 66.82156359 84.05175091 62.03125 63.58203125 C58.56349138 51.53682423 53.68181967 41.89925215 46 32 C45.37351562 31.17757812 44.74703125 30.35515625 44.1015625 29.5078125 C33.38977055 16.44575397 17.90075214 9.46118281 2 5 C2.66 4.67 3.32 4.34 4 4 C4 3.34 4 2.68 4 2 C2.68 2 1.36 2 0 2 C0 1.34 0 0.68 0 0 Z " fill="#757385" transform="translate(248,136)"/>
<path d="M0 0 C6.99784682 3.96544653 11.03517421 8.9281514 13.2109375 16.6875 C14.75673656 23.98569882 13.49275819 28.2092609 10.171875 34.73828125 C8.59419978 37.07573164 7.02715816 38.3927257 4.6875 39.9375 C4.77451172 38.2359375 4.77451172 38.2359375 4.86328125 36.5 C5.52444793 25.83365418 5.52444793 25.83365418 1.171875 16.44140625 C0.68203125 15.94511719 0.1921875 15.44882812 -0.3125 14.9375 C-0.78171875 14.45152344 -1.2509375 13.96554687 -1.734375 13.46484375 C-7.74685739 7.92107639 -13.78967992 6.49191311 -21.7109375 6.69921875 C-24.79885311 6.98204586 -27.46769884 7.70731571 -30.3125 8.9375 C-28.86616256 5.33338346 -27.12113332 3.82347432 -23.875 1.75 C-23.09253906 1.24082031 -22.31007813 0.73164062 -21.50390625 0.20703125 C-14.84262724 -3.65199848 -6.83874066 -3.16032712 0 0 Z " fill="#46445C" transform="translate(554.3125,542.0625)"/>
<path d="M0 0 C23.43 0 46.86 0 71 0 C71.495 0.99 71.495 0.99 72 2 C49.68681685 10.41852698 25.25196647 9.77337665 2.58203125 2.74609375 C1 2 1 2 0 0 Z " fill="#F8F8F8" transform="translate(176,302)"/>
<path d="M0 0 C1.98 0 3.96 0 6 0 C6.02505615 1.21059082 6.0501123 2.42118164 6.07592773 3.66845703 C6.17034884 8.17490587 6.27048388 12.681213 6.37231445 17.1875 C6.41553236 19.13505734 6.45721631 21.08264937 6.49731445 23.03027344 C6.55533658 25.83539262 6.61893784 28.64033933 6.68359375 31.4453125 C6.70030624 32.31116974 6.71701874 33.17702698 6.73423767 34.06912231 C6.82073021 37.6267805 6.98151517 40.90224946 7.64477539 44.40966797 C8 47 8 47 6 50 C3.0625 50.4375 3.0625 50.4375 0 50 C-2 48.375 -2 48.375 -3 46 C-2.69916504 45.15356934 -2.39833008 44.30713867 -2.08837891 43.43505859 C-0.71572686 39.10279878 -0.647748 35.180217 -0.5859375 30.6640625 C-0.56657135 29.78471039 -0.5472052 28.90535828 -0.5272522 27.99935913 C-0.46777185 25.20800282 -0.4211979 22.41660457 -0.375 19.625 C-0.33679115 17.72524306 -0.29773774 15.8255029 -0.2578125 13.92578125 C-0.16209643 9.2839915 -0.0779496 4.64212071 0 0 Z " fill="#3E3C55" transform="translate(229,175)"/>
<path d="M0 0 C0.33 0 0.66 0 1 0 C1.33 11.22 1.66 22.44 2 34 C3.65 32.35 5.3 30.7 7 29 C6.05563763 31.61515733 5.23661967 33.71601178 3.44628906 35.86474609 C1.70215336 38.43973105 1.63783723 39.83247042 1.671875 42.9140625 C1.67703125 43.83960938 1.6821875 44.76515625 1.6875 45.71875 C1.708125 46.6778125 1.72875 47.636875 1.75 48.625 C1.75515625 49.59179688 1.7603125 50.55859375 1.765625 51.5546875 C1.63867976 56.43813581 1.63867976 56.43813581 3 61 C2.67 61.66 2.34 62.32 2 63 C1.92934383 65.04055005 1.91578024 67.08334257 1.9375 69.125 C1.95103516 70.76855469 1.95103516 70.76855469 1.96484375 72.4453125 C1.97644531 73.28835938 1.98804688 74.13140625 2 75 C3.32 72.69 4.64 70.38 6 68 C6.33 68.66 6.66 69.32 7 70 C6.36578125 71.0828125 5.7315625 72.165625 5.078125 73.28125 C2.01145677 79.11900398 2.56600954 85.06033379 2.75 91.5 C2.77707031 93.30597656 2.77707031 93.30597656 2.8046875 95.1484375 C2.85153446 98.09979605 2.91711995 101.04947036 3 104 C4.32 102.68 5.64 101.36 7 100 C5.41037341 104.03520597 3.71767682 108.01811282 2 112 C1.01 112 0.02 112 -1 112 C-1.1429338 106.78557719 -1.28533657 101.57114024 -1.42724609 96.35668945 C-1.47560241 94.58259692 -1.52410412 92.80850834 -1.57275391 91.03442383 C-1.64263475 88.48519906 -1.71199361 85.93596055 -1.78125 83.38671875 C-1.80312378 82.59287277 -1.82499756 81.79902679 -1.84753418 80.98112488 C-1.92849896 77.98634439 -2 74.99603534 -2 72 C-1.67 72.33 -1.34 72.66 -1 73 C0.41236551 54.41630979 0.41236551 54.41630979 -7.34765625 38.1953125 C-7.89292969 37.47085938 -8.43820312 36.74640625 -9 36 C-8.67 35.34 -8.34 34.68 -8 34 C-5.69 37.3 -3.38 40.6 -1 44 C-0.67 29.48 -0.34 14.96 0 0 Z " fill="#40705E" transform="translate(874,612)"/>
<path d="M0 0 C2.52540116 1.08231478 4.06647878 2.06855624 6 4.0625 C7.79839274 6.14819925 7.79839274 6.14819925 10.0625 6.4375 C12 7 12 7 13.75 9.5625 C14.1625 10.366875 14.575 11.17125 15 12 C17.64 9.36 20.28 6.72 23 4 C23 8.72964202 19.947312 10.88084944 16.82421875 14.234375 C8.91645918 21.97807316 0.41642029 28.03382794 -10 32 C-10 29 -10 29 -7.98828125 26.984375 C-7.10527344 26.24703125 -6.22226562 25.5096875 -5.3125 24.75 C-2.1223362 21.99301262 0.6401036 19.43813183 3 15.9375 C3.99 14.4834375 3.99 14.4834375 5 13 C5.66 13 6.32 13 7 13 C7.33 12.01 7.66 11.02 8 10 C6.29577243 7.51406311 6.29577243 7.51406311 4 5 C2.66666667 3.33333333 1.33333333 1.66666667 0 0 Z " fill="#F4F4F5" transform="translate(274,263)"/>
<path d="M0 0 C-2.60410955 3.90616433 -4.11032031 3.71327965 -8.625 4.6875 C-21.71962556 7.84513715 -32.94601765 14.06916523 -43 23 C-44.05767578 23.84498047 -44.05767578 23.84498047 -45.13671875 24.70703125 C-49.92450312 28.60109587 -53.17832317 32.83290938 -56.45703125 38.05859375 C-56.96621094 38.69925781 -57.47539062 39.33992188 -58 40 C-58.99 40 -59.98 40 -61 40 C-62.89739368 41.5334075 -62.89739368 41.5334075 -64.6875 43.5 C-65.62142578 44.47453125 -65.62142578 44.47453125 -66.57421875 45.46875 C-67.04472656 45.9740625 -67.51523438 46.479375 -68 47 C-68 43.31480742 -67.29979914 42.89415251 -64.81640625 40.3046875 C-64.1406958 39.593125 -63.46498535 38.8815625 -62.76879883 38.1484375 C-62.04072021 37.39820313 -61.3126416 36.64796875 -60.5625 35.875 C-59.82475342 35.10671875 -59.08700684 34.3384375 -58.3269043 33.546875 C-56.8677242 32.03034301 -55.4053212 30.51690435 -53.93945312 29.00683594 C-52.40565232 27.41974598 -50.89401857 25.81123553 -49.390625 24.1953125 C-40.75492855 15.07264069 -13.40022819 -6.7001141 0 0 Z " fill="#5D5B70" transform="translate(220,137)"/>
<path d="M0 0 C3.08089673 2.77280706 4.68775452 5.06326356 6 9 C6.66 9 7.32 9 8 9 C8.33 13.29 8.66 17.58 9 22 C10.32 19.69 11.64 17.38 13 15 C13.33 15.66 13.66 16.32 14 17 C13.38125 18.093125 12.7625 19.18625 12.125 20.3125 C9.13495145 25.89048712 9.18938079 31.78831006 9 38 C9.99 36.35 10.98 34.7 12 33 C12.33 33.99 12.66 34.98 13 36 C12.29750122 37.13248169 12.29750122 37.13248169 11.58081055 38.2878418 C9.65826617 41.58630441 9.6531001 43.60137377 9.70703125 47.39453125 C9.7215332 49.19760742 9.7215332 49.19760742 9.73632812 51.03710938 C9.76146484 52.28298828 9.78660156 53.52886719 9.8125 54.8125 C9.82603516 56.07771484 9.83957031 57.34292969 9.85351562 58.64648438 C9.88881682 61.76475643 9.93813181 64.88216042 10 68 C10.99 67.01 11.98 66.02 13 65 C11.66666667 68.33333333 10.33333333 71.66666667 9 75 C8.01 75 7.02 75 6 75 C5.67 62.13 5.34 49.26 5 36 C5.33 36 5.66 36 6 36 C6.17656013 32.20893717 6.28159677 28.41895045 6.375 24.625 C6.42527344 23.56410156 6.47554687 22.50320313 6.52734375 21.41015625 C6.6597293 14.21720798 5.43905966 9.85512195 1.29931641 3.93896484 C0 2 0 2 0 0 Z " fill="#417460" transform="translate(219,649)"/>
<path d="M0 0 C1 3 1 3 -0.265625 5.93359375 C-0.9104342 7.11083596 -1.57324231 8.27832911 -2.25 9.4375 C-2.61206543 10.05786133 -2.97413086 10.67822266 -3.34716797 11.31738281 C-11.58592197 24.89728948 -25.86739687 38.48812469 -41 44 C-41.99 43.67 -42.98 43.34 -44 43 C-43 40 -43 40 -40.48046875 38.52734375 C-39.39378906 38.00269531 -38.30710937 37.47804688 -37.1875 36.9375 C-25.94735542 31.21754306 -13.40963032 22.21128398 -9 10 C-7 7.6875 -7 7.6875 -5 6 C-4.34 6 -3.68 6 -3 6 C-2.01 4.02 -1.02 2.04 0 0 Z " fill="#838292" transform="translate(308,254)"/>
<path d="M0 0 C0.33 0.66 0.66 1.32 1 2 C0.14096944 4.2292448 -0.77712579 6.38366136 -1.75 8.5625 C-10.20397769 28.58018921 -10.12637059 50.84552461 -2 71 C7.58482949 93.81671675 25.06165341 107.54769875 47 118 C46.01 118.495 46.01 118.495 45 119 C34.96942778 115.13954951 25.89144826 110.37263333 18 103 C17.17242187 102.26265625 16.34484375 101.5253125 15.4921875 100.765625 C-0.06660558 86.20602046 -9.17291476 65.84821373 -10.28125 44.58203125 C-10.74714637 29.41361418 -8.58413954 12.8762093 0 0 Z " fill="#3E3C55" transform="translate(158,180)"/>
<path d="M0 0 C0.33 0 0.66 0 1 0 C1.33 9.24 1.66 18.48 2 28 C11.57 28.33 21.14 28.66 31 29 C31.33 23.06 31.66 17.12 32 11 C32.66 11 33.32 11 34 11 C35.23107198 16.69370789 35.07070544 22.20215428 35 28 C41.27 28.33 47.54 28.66 54 29 C50.71542381 31.18971746 49.7824019 31.24583902 45.9777832 31.22705078 C44.95695145 31.22689972 43.93611969 31.22674866 42.88435364 31.22659302 C41.78427475 31.21627045 40.68419586 31.20594788 39.55078125 31.1953125 C37.85915108 31.19106766 37.85915108 31.19106766 36.13334656 31.18673706 C32.52629042 31.17552916 28.91948127 31.15042323 25.3125 31.125 C22.86914421 31.114971 20.42578453 31.10584501 17.98242188 31.09765625 C11.9881092 31.07728822 5.99433155 31.03813997 0 31 C0 20.77 0 10.54 0 0 Z " fill="#605E75" transform="translate(860,722)"/>
<path d="M0 0 C0.99 0.33 1.98 0.66 3 1 C5.10145765 17.2862968 3.4718066 32.78961189 -3 48 C-3.66 48 -4.32 48 -5 48 C-5.268125 48.969375 -5.53625 49.93875 -5.8125 50.9375 C-6.204375 51.948125 -6.59625 52.95875 -7 54 C-8.485 54.495 -8.485 54.495 -10 55 C-9.37699644 51.1789115 -8.2204106 48.01957248 -6.625 44.5 C-0.52250808 29.87871156 -0.3314223 15.66473906 0 0 Z " fill="#757385" transform="translate(313,206)"/>
<path d="M0 0 C5.77786614 4.02870745 10.07874211 9.61362106 12 16.39453125 C12.86894212 24.14983969 12.25365218 30.73545914 8 37.39453125 C6.43123752 39.28771203 4.87229559 40.78227671 3 42.39453125 C2.34 41.73453125 1.68 41.07453125 1 40.39453125 C1.7425 39.92015625 2.485 39.44578125 3.25 38.95703125 C7.7009018 34.80960003 10.16774445 29.5253392 10.4375 23.39453125 C10.0563631 17.01684053 8.06190526 10.48344791 3.62890625 5.74609375 C-2.37462593 0.76474571 -8.61186963 -1.40196211 -16.38671875 -1.0390625 C-20.43260295 -0.3677723 -23.5368486 1.28116046 -27 3.39453125 C-27.70769531 3.71421875 -28.41539062 4.03390625 -29.14453125 4.36328125 C-31.76270597 5.8184352 -32.12358585 7.61921977 -33 10.39453125 C-33.33 9.07453125 -33.66 7.75453125 -34 6.39453125 C-24.38110831 -2.63962539 -12.532991 -6.51991995 0 0 Z " fill="#C9C6DB" transform="translate(557,541.60546875)"/>
<path d="M0 0 C0.33 0 0.66 0 1 0 C1.33 11.22 1.66 22.44 2 34 C3.65 32.35 5.3 30.7 7 29 C6.05563763 31.61515733 5.23661967 33.71601178 3.44628906 35.86474609 C1.70215336 38.43973105 1.63783723 39.83247042 1.671875 42.9140625 C1.67703125 43.83960938 1.6821875 44.76515625 1.6875 45.71875 C1.708125 46.6778125 1.72875 47.636875 1.75 48.625 C1.75515625 49.59179688 1.7603125 50.55859375 1.765625 51.5546875 C1.63867976 56.43813581 1.63867976 56.43813581 3 61 C2.67 61.66 2.34 62.32 2 63 C1.77141886 65.0374763 1.58975722 67.08040303 1.4375 69.125 C1.35371094 70.22070312 1.26992188 71.31640625 1.18359375 72.4453125 C1.12300781 73.28835938 1.06242188 74.13140625 1 75 C0.01 75 -0.98 75 -2 75 C-2 74.01 -2 73.02 -2 72 C-1.67 72.33 -1.34 72.66 -1 73 C0.41236551 54.41630979 0.41236551 54.41630979 -7.34765625 38.1953125 C-7.89292969 37.47085938 -8.43820312 36.74640625 -9 36 C-8.67 35.34 -8.34 34.68 -8 34 C-5.69 37.3 -3.38 40.6 -1 44 C-0.67 29.48 -0.34 14.96 0 0 Z " fill="#41545B" transform="translate(874,612)"/>
<path d="M0 0 C0.66 0.33 1.32 0.66 2 1 C2 10.57 2 20.14 2 30 C6.95 30 11.9 30 17 30 C16.67 30.66 16.34 31.32 16 32 C10.72 32 5.44 32 0 32 C-0.79874875 28.00625624 -1.1285331 24.8685625 -1.1328125 20.859375 C-1.13410156 19.70695313 -1.13539063 18.55453125 -1.13671875 17.3671875 C-1.13285156 16.17351563 -1.12898437 14.97984375 -1.125 13.75 C-1.12886719 12.54085937 -1.13273438 11.33171875 -1.13671875 10.0859375 C-1.13542969 8.93867187 -1.13414062 7.79140625 -1.1328125 6.609375 C-1.13168457 5.55717773 -1.13055664 4.50498047 -1.12939453 3.42089844 C-1 1 -1 1 0 0 Z " fill="#52515A" transform="translate(212,721)"/>
<path d="M0 0 C8.05547696 0.69387997 16.08513746 0.80829948 24.16333008 0.89868164 C25.73659229 0.91931234 27.30984973 0.94031011 28.88310242 0.96165466 C32.97805862 1.01624516 37.07305944 1.06592602 41.16809082 1.11450195 C45.3651109 1.16518418 49.56206803 1.22062364 53.7590332 1.27563477 C61.96015149 1.38244263 70.16132325 1.48405166 78.36254883 1.58227539 C78.36254883 1.91227539 78.36254883 2.24227539 78.36254883 2.58227539 C48.66254883 2.58227539 18.96254883 2.58227539 -11.63745117 2.58227539 C-7.36254191 -0.26766412 -4.98060282 -0.49583053 0 0 Z " fill="#838392" transform="translate(266.637451171875,298.417724609375)"/>
<path d="M0 0 C10.86688592 2.82408892 20.35675398 6.18051066 30 12 C29.01 12.495 29.01 12.495 28 13 C27.34 12.67 26.68 12.34 26 12 C25.67 12.66 25.34 13.32 25 14 C24.42894531 13.68546875 23.85789062 13.3709375 23.26953125 13.046875 C16.41069566 9.4266311 9.45562622 7.09178228 2 5 C2.66 4.67 3.32 4.34 4 4 C4 3.34 4 2.68 4 2 C2.68 2 1.36 2 0 2 C0 1.34 0 0.68 0 0 Z " fill="#8C8B9A" transform="translate(248,136)"/>
<path d="M0 0 C0.66 0 1.32 0 2 0 C3.23107198 5.69370789 3.07070544 11.20215428 3 17 C9.27 17.33 15.54 17.66 22 18 C18.69711664 20.20192224 17.72537273 20.23959968 13.89453125 20.1953125 C12.91162109 20.18886719 11.92871094 20.18242188 10.91601562 20.17578125 C9.89185547 20.15902344 8.86769531 20.14226563 7.8125 20.125 C6.77673828 20.11597656 5.74097656 20.10695313 4.67382812 20.09765625 C2.11565315 20.0740786 -0.44205748 20.0411703 -3 20 C-2.01 19.67 -1.02 19.34 0 19 C0 12.73 0 6.46 0 0 Z " fill="#6C6B7C" transform="translate(892,733)"/>
<path d="M0 0 C3.12422563 4.16563418 3.38704945 4.97233826 3.51171875 9.859375 C3.54716797 10.97441406 3.58261719 12.08945312 3.61914062 13.23828125 C3.64169922 14.39714844 3.66425781 15.55601562 3.6875 16.75 C3.72166016 17.92433594 3.75582031 19.09867188 3.79101562 20.30859375 C3.87345173 23.20563389 3.94261811 26.10237298 4 29 C4.99 28.01 5.98 27.02 7 26 C5.66666667 29.33333333 4.33333333 32.66666667 3 36 C2.01 36 1.02 36 0 36 C0 24.12 0 12.24 0 0 Z " fill="#407B60" transform="translate(225,688)"/>
<path d="M0 0 C0.495 0.99 0.495 0.99 1 2 C-4.87673854 3.02127326 -10.57076796 3.13007966 -16.52734375 3.09765625 C-18.01071983 3.09553383 -18.01071983 3.09553383 -19.52406311 3.09336853 C-22.66190704 3.08780088 -25.79967787 3.0752544 -28.9375 3.0625 C-31.07356667 3.05748082 -33.20963447 3.05291864 -35.34570312 3.04882812 C-40.56382675 3.03784206 -45.78190815 3.02113636 -51 3 C-48.55514759 0.55514759 -47.80082923 0.7125131 -44.43359375 0.5859375 C-43.48419922 0.54718506 -42.53480469 0.50843262 -41.55664062 0.46850586 C-40.52732422 0.43764893 -39.49800781 0.40679199 -38.4375 0.375 C-37.38369141 0.33705322 -36.32988281 0.29910645 -35.24414062 0.26000977 C-23.49831215 -0.12198952 -11.75031926 -0.09741974 0 0 Z " fill="#555469" transform="translate(173,300)"/>
<path d="M0 0 C8.09865028 1.2324033 13.85832366 6.99777754 18.796875 13.2890625 C19.19390625 13.85367188 19.5909375 14.41828125 20 15 C19.34 15 18.68 15 18 15 C17.67 15.66 17.34 16.32 17 17 C16.4225 16.195625 15.845 15.39125 15.25 14.5625 C11.68504155 10.20763822 7.00269074 7.1828494 2.44921875 3.953125 C1.23685547 2.98632812 1.23685547 2.98632812 0 2 C0 1.34 0 0.68 0 0 Z " fill="#898897" transform="translate(274,148)"/>
<path d="M0 0 C0.33 0 0.66 0 1 0 C1.33 11.22 1.66 22.44 2 34 C3.65 32.35 5.3 30.7 7 29 C6.05916753 31.60538222 5.29612862 33.66833595 3.4375 35.75 C1.21809807 39.2238465 1.25084684 42.95185104 1 47 C0.67 47 0.34 47 0 47 C0 31.49 0 15.98 0 0 Z " fill="#359D5C" transform="translate(874,612)"/>
<path d="M0 0 C0.33 0 0.66 0 1 0 C1.33 3.63 1.66 7.26 2 11 C2.99 9.35 3.98 7.7 5 6 C5.33 6.99 5.66 7.98 6 9 C5.37609375 9.95003906 4.7521875 10.90007813 4.109375 11.87890625 C0.88852233 17.14674661 1.32512484 22.9309275 1.25 28.9375 C1.20552734 30.67870117 1.20552734 30.67870117 1.16015625 32.45507812 C1.08982599 35.3034538 1.03694586 38.15102837 1 41 C0.67 41 0.34 41 0 41 C-0.14307911 36.92490906 -0.28547705 32.84979494 -0.42724609 28.7746582 C-0.4755617 27.38858396 -0.52406285 26.00251618 -0.57275391 24.61645508 C-0.64274186 22.62322675 -0.71200543 20.62997304 -0.78125 18.63671875 C-0.82314453 17.43748779 -0.86503906 16.23825684 -0.90820312 15.00268555 C-1.01934254 11.36730331 -0.91834912 7.92076117 -0.5 4.3125 C-0.4071875 3.50425781 -0.314375 2.69601562 -0.21875 1.86328125 C-0.1465625 1.24839844 -0.074375 0.63351562 0 0 Z " fill="#404357" transform="translate(226,676)"/>
<path d="M0 0 C0.99 0.33 1.98 0.66 3 1 C2.66179961 3.99645548 1.99645313 5.00354052 -0.1796875 7.17578125 C-1.06914062 7.88089844 -1.95859375 8.58601562 -2.875 9.3125 C-3.75929688 10.03050781 -4.64359375 10.74851563 -5.5546875 11.48828125 C-6.36164063 11.98714844 -7.16859375 12.48601562 -8 13 C-8.99 12.67 -9.98 12.34 -11 12 C-7.49102731 7.81576108 -3.91939465 3.80411834 0 0 Z " fill="#7E7D8E" transform="translate(284,165)"/>
<path d="M0 0 C-1.65593745 3.58786447 -3.62837691 6.83783588 -6 10 C-6.99 10 -7.98 10 -9 10 C-10.89739368 11.5334075 -10.89739368 11.5334075 -12.6875 13.5 C-13.31011719 14.1496875 -13.93273437 14.799375 -14.57421875 15.46875 C-15.04472656 15.9740625 -15.51523438 16.479375 -16 17 C-16 12.29800689 -12.80127906 10.11158366 -9.6875 6.8125 C-9.09259766 6.15830078 -8.49769531 5.50410156 -7.88476562 4.83007812 C-7.30791016 4.21197266 -6.73105469 3.59386719 -6.13671875 2.95703125 C-5.60780029 2.38960205 -5.07888184 1.82217285 -4.53393555 1.23754883 C-3 0 -3 0 0 0 Z " fill="#54545E" transform="translate(168,167)"/>
<path d="M0 0 C-2.67593529 4.01390293 -5.67077556 4.19895451 -10.125 5.1875 C-11.25615234 5.45336914 -11.25615234 5.45336914 -12.41015625 5.72460938 C-14.27097967 6.16037182 -16.13519867 6.58158786 -18 7 C-18 6.34 -18 5.68 -18 5 C-18.66 4.67 -19.32 4.34 -20 4 C-17.75023648 3.35334337 -15.50018033 2.70770477 -13.25 2.0625 C-11.99703125 1.70285156 -10.7440625 1.34320313 -9.453125 0.97265625 C-8.31359375 0.65167969 -7.1740625 0.33070313 -6 0 C-5.23171875 -0.22816406 -4.4634375 -0.45632812 -3.671875 -0.69140625 C-2 -1 -2 -1 0 0 Z " fill="#67657A" transform="translate(220,137)"/>
<path d="M0 0 C1 3 1 3 -0.51171875 6.25 C-1.22628403 7.50614455 -1.95204442 8.75597116 -2.6875 10 C-3.21633789 10.94359375 -3.21633789 10.94359375 -3.75585938 11.90625 C-5.7576816 15.36094868 -7.57544163 17.89733662 -11 20 C-10.71125 19.443125 -10.4225 18.88625 -10.125 18.3125 C-8.9586747 15.91505355 -7.9660119 13.48403061 -7 11 C-7.99 11.66 -8.98 12.32 -10 13 C-8.71480435 10.13302508 -7.42870746 8.02392288 -5 6 C-4.34 6 -3.68 6 -3 6 C-2.01 4.02 -1.02 2.04 0 0 Z " fill="#C5C5CD" transform="translate(308,254)"/>
<path d="M0 0 C0.33 0 0.66 0 1 0 C1.33 2.31 1.66 4.62 2 7 C3.65 5.35 5.3 3.7 7 2 C5.41037341 6.03520597 3.71767682 10.01811282 2 14 C1.01 14 0.02 14 -1 14 C-1.02685938 11.85423363 -1.04633088 9.70837355 -1.0625 7.5625 C-1.07410156 6.36753906 -1.08570313 5.17257812 -1.09765625 3.94140625 C-1 1 -1 1 0 0 Z " fill="#42555C" transform="translate(874,710)"/>
<path d="M0 0 C-2.2639961 2.46717524 -4.59060244 4.10134139 -7.5 5.75 C-8.66015625 6.42289062 -8.66015625 6.42289062 -9.84375 7.109375 C-12 8 -12 8 -15 7 C-14 4 -14 4 -12.36328125 2.83203125 C-8.06030271 0.69283621 -4.92614603 -0.4926146 0 0 Z " fill="#8C8B9A" transform="translate(279,290)"/>
<path d="M0 0 C0.66 0 1.32 0 2 0 C2.33 1.98 2.66 3.96 3 6 C3.66 6 4.32 6 5 6 C5.33 8.64 5.66 11.28 6 14 C5.34 14 4.68 14 4 14 C4 15.65 4 17.3 4 19 C3.67 19 3.34 19 3 19 C2.49521515 16.58424393 1.99602358 14.16755639 1.5 11.75 C1.35691406 11.06808594 1.21382813 10.38617188 1.06640625 9.68359375 C0.38748951 6.35366879 0 3.41667449 0 0 Z " fill="#636175" transform="translate(309,192)"/>
<path d="M0 0 C2.125 0.375 2.125 0.375 4 1 C4.38218767 2.65614657 4.71395102 4.32457024 5 6 C4 7 4 7 1.4375 7.0625 C0.2309375 7.0315625 0.2309375 7.0315625 -1 7 C-1.625 4.625 -1.625 4.625 -2 2 C-1.34 1.34 -0.68 0.68 0 0 Z " fill="#050507" transform="translate(230,216)"/>
<path d="M0 0 C5.70709064 0.46588495 9.15939723 1.93757784 14 5 C13.01 5.495 13.01 5.495 12 6 C11.34 5.67 10.68 5.34 10 5 C9.67 5.66 9.34 6.32 9 7 C6.03 5.35 3.06 3.7 0 2 C0 1.34 0 0.68 0 0 Z " fill="#6B697C" transform="translate(264,143)"/>
<path d="M0 0 C6.6 0 13.2 0 20 0 C18 2 18 2 16.02880859 2.22705078 C15.24328613 2.21657715 14.45776367 2.20610352 13.6484375 2.1953125 C12.79765625 2.18886719 11.946875 2.18242188 11.0703125 2.17578125 C9.73613281 2.15064453 9.73613281 2.15064453 8.375 2.125 C7.02921875 2.11146484 7.02921875 2.11146484 5.65625 2.09765625 C3.43723414 2.0740497 1.21874923 2.0411231 -1 2 C-0.67 1.34 -0.34 0.68 0 0 Z " fill="#494865" transform="translate(181,751)"/>
<path d="M0 0 C2.34882224 2.34882224 3.03503024 4.27123667 4.1875 7.375 C4.55230469 8.33148438 4.91710937 9.28796875 5.29296875 10.2734375 C6.01370542 13.05285296 5.98549829 14.35108103 5 17 C4.67 15.02 4.34 13.04 4 11 C3.01 11.33 2.02 11.66 1 12 C-1.22923777 7.67265609 -0.92470553 4.71599818 0 0 Z " fill="#8F8E9C" transform="translate(307,181)"/>
<path d="M0 0 C1.17949219 0.10183594 2.35898437 0.20367187 3.57421875 0.30859375 C4.47785156 0.39238281 5.38148438 0.47617187 6.3125 0.5625 C6.3125 1.2225 6.3125 1.8825 6.3125 2.5625 C0.0425 2.5625 -6.2275 2.5625 -12.6875 2.5625 C-8.09997547 -0.49584969 -5.37703014 -0.4791413 0 0 Z " fill="#B7B6C0" transform="translate(267.6875,298.4375)"/>
<path d="M0 0 C0.99 0 1.98 0 3 0 C3.02725341 1.7290774 3.04650987 3.45828176 3.0625 5.1875 C3.07410156 6.15042969 3.08570313 7.11335937 3.09765625 8.10546875 C3.00486622 10.85576513 2.62111685 13.32479591 2 16 C1.67 16 1.34 16 1 16 C-0.12862175 10.63904667 -0.09688221 5.44693314 0 0 Z " fill="#5C5B70" transform="translate(230,143)"/>
<path d="M0 0 C3.59905908 0.55550695 4.99909799 1.74887248 7.25 4.5625 C8.03117187 5.52349609 8.03117187 5.52349609 8.828125 6.50390625 C9.21484375 6.99761719 9.6015625 7.49132812 10 8 C9.67 8.66 9.34 9.32 9 10 C5.17647894 8.4422692 2.70794407 6.08404742 0 3 C0 2.01 0 1.02 0 0 Z " fill="#8A8998" transform="translate(292,163)"/>
<path d="M0 0 C0 0.66 0 1.32 0 2 C-1.26418246 2.69965443 -2.53665402 3.38434763 -3.8125 4.0625 C-4.52019531 4.44535156 -5.22789062 4.82820312 -5.95703125 5.22265625 C-8 6 -8 6 -11 5 C-7.56138316 1.21752148 -5.17193751 0 0 0 Z " fill="#57556C" transform="translate(202,142)"/>
<path d="M0 0 C2.31 0.66 4.62 1.32 7 2 C7 2.99 7 3.98 7 5 C7.66 5 8.32 5 9 5 C9 5.66 9 6.32 9 7 C5.56072421 5.7580393 2.74792181 4.44259716 0 2 C0 1.34 0 0.68 0 0 Z " fill="#656377" transform="translate(274,148)"/>
<path d="M0 0 C0.66 0.33 1.32 0.66 2 1 C2 1.66 2 2.32 2 3 C-3.14209827 7.09030544 -3.14209827 7.09030544 -6.375 6.75 C-6.91125 6.5025 -7.4475 6.255 -8 6 C-5.38485683 3.87961365 -2.80362384 1.86908256 0 0 Z " fill="#656377" transform="translate(190,146)"/>
<path d="M0 0 C3.47775179 1.51553404 5.9557984 3.5773456 8.75 6.125 C9.94882812 7.21167969 9.94882812 7.21167969 11.171875 8.3203125 C11.77515625 8.87460937 12.3784375 9.42890625 13 10 C12.34 10.66 11.68 11.32 11 12 C9.16364422 10.19047409 7.33083792 8.37759362 5.5 6.5625 C4.97535156 6.04623047 4.45070313 5.52996094 3.91015625 4.99804688 C2.58775448 3.68423213 1.29164432 2.34406495 0 1 C0 0.67 0 0.34 0 0 Z " fill="#44425A" transform="translate(274,263)"/>
<path d="M0 0 C1.13643966 3.40931897 0.86747764 4.00335456 -0.4375 7.1875 C-0.72496094 7.90292969 -1.01242187 8.61835938 -1.30859375 9.35546875 C-1.53675781 9.89816406 -1.76492188 10.44085938 -2 11 C-3.80411967 8.24075815 -4.0127245 7.11027897 -3.625 3.75 C-3.41875 2.8425 -3.2125 1.935 -3 1 C-2.01 1.33 -1.02 1.66 0 2 C0 1.34 0 0.68 0 0 Z " fill="#91909F" transform="translate(312,243)"/>
<path d="M0 0 C0.33 1.32 0.66 2.64 1 4 C-0.65 5.32 -2.3 6.64 -4 8 C-4.33 7.01 -4.66 6.02 -5 5 C-3.35 3.35 -1.7 1.7 0 0 Z M-10 9 C-9.34 9.33 -8.68 9.66 -8 10 C-8.99 10.66 -9.98 11.32 -11 12 C-10.67 11.01 -10.34 10.02 -10 9 Z " fill="#C2C2C6" transform="translate(160,175)"/>
<path d="M0 0 C0.33 0 0.66 0 1 0 C0.63118644 6.14689273 -0.90050429 8.69027374 -5 13 C-5.99 12.34 -6.98 11.68 -8 11 C-7.236875 10.484375 -6.47375 9.96875 -5.6875 9.4375 C-2.38424393 6.44152356 -1.51374274 4.14287486 0 0 Z " fill="#BFBCD1" transform="translate(566,571)"/>
<path d="M0 0 C0.99 0.33 1.98 0.66 3 1 C-1.75 5 -1.75 5 -4 5 C-4.66 6.65 -5.32 8.3 -6 10 C-6.33 8.68 -6.66 7.36 -7 6 C-5.90716423 4.96704564 -4.80029421 3.94892165 -3.6875 2.9375 C-3.07261719 2.36902344 -2.45773437 1.80054688 -1.82421875 1.21484375 C-0.92123047 0.61349609 -0.92123047 0.61349609 0 0 Z " fill="#BDBBCF" transform="translate(530,542)"/>
<path d="M0 0 C0.66 0.33 1.32 0.66 2 1 C2 1.99 2 2.98 2 4 C-0.31 4.66 -2.62 5.32 -5 6 C-3.86695008 2.60085025 -2.87481525 1.94745549 0 0 Z " fill="#706E81" transform="translate(280,285)"/>
<path d="M0 0 C0.80824219 0.11085937 1.61648437 0.22171875 2.44921875 0.3359375 C3.37154297 0.47902344 3.37154297 0.47902344 4.3125 0.625 C4.3125 1.285 4.3125 1.945 4.3125 2.625 C0.3525 2.295 -3.6075 1.965 -7.6875 1.625 C-4.33422361 -0.61051759 -3.78006343 -0.54783528 0 0 Z " fill="#4E4C63" transform="translate(247.6875,137.375)"/>
<path d="M0 0 C0 0.66 0 1.32 0 2 C0.66 2.33 1.32 2.66 2 3 C-0.64 3.66 -3.28 4.32 -6 5 C-6 4.34 -6 3.68 -6 3 C-6.66 2.67 -7.32 2.34 -8 2 C-2.25 0 -2.25 0 0 0 Z " fill="#706E81" transform="translate(208,139)"/>
<path d="M0 0 C0.66 0 1.32 0 2 0 C1.67 1.98 1.34 3.96 1 6 C-0.875 6.625 -0.875 6.625 -3 7 C-3.66 6.34 -4.32 5.68 -5 5 C-3.68 4.67 -2.36 4.34 -1 4 C-0.67 2.68 -0.34 1.36 0 0 Z " fill="#39374E" transform="translate(235,218)"/>
<path d="M0 0 C2 1 2 1 3 3 C1.03533587 4.06775224 -0.96855359 5.06553465 -3 6 C-3.66 5.67 -4.32 5.34 -5 5 C-3.35 3.35 -1.7 1.7 0 0 Z " fill="#EEEEEF" transform="translate(180,156)"/>
<path d="M0 0 C0.33 0.99 0.66 1.98 1 3 C-0.65 4.65 -2.3 6.3 -4 8 C-4 4.09161134 -2.49432124 2.88405893 0 0 Z " fill="#4A4860" transform="translate(301,264)"/>
<path d="M0 0 C0.33 0.66 0.66 1.32 1 2 C1.99 1.67 2.98 1.34 4 1 C4 2.32 4 3.64 4 5 C3.34 5 2.68 5 2 5 C2 6.65 2 8.3 2 10 C1.67 10 1.34 10 1 10 C0.67 6.7 0.34 3.4 0 0 Z " fill="#8F8E9C" transform="translate(311,201)"/>
<path d="M0 0 C2.375 0.3125 2.375 0.3125 5 1 C5.66 1.99 6.32 2.98 7 4 C6.34 4 5.68 4 5 4 C4.67 4.66 4.34 5.32 4 6 C2.68 4.02 1.36 2.04 0 0 Z " fill="#6B6A7D" transform="translate(287,159)"/>
<path d="M0 0 C2.02045442 0.60183749 4.02111039 1.27306096 6 2 C6.33 2.66 6.66 3.32 7 4 C5.68 3.67 4.36 3.34 3 3 C2.67 3.66 2.34 4.32 2 5 C1.34 4.67 0.68 4.34 0 4 C0 2.68 0 1.36 0 0 Z " fill="#9E9DAA" transform="translate(271,145)"/>
<path d="M0 0 C0.66 0.66 1.32 1.32 2 2 C1.9765625 5.0390625 1.9765625 5.0390625 1.625 8.625 C1.51414063 9.81351563 1.40328125 11.00203125 1.2890625 12.2265625 C1.19367188 13.14179687 1.09828125 14.05703125 1 15 C0.67 15 0.34 15 0 15 C-0.19390729 12.68802845 -0.37996367 10.3753971 -0.5625 8.0625 C-0.71912109 6.13083984 -0.71912109 6.13083984 -0.87890625 4.16015625 C-0.91886719 3.11730469 -0.95882812 2.07445312 -1 1 C-0.67 0.67 -0.34 0.34 0 0 Z " fill="#222C2E" transform="translate(212,721)"/>
<path d="M0 0 C2 1 2 1 2 1 Z " fill="#FFFFFF" transform="translate(244,135)"/>
<path d="" fill="#808080" transform="translate(0,0)"/>
</svg>
