<?xml version="1.0" encoding="UTF-8"?>
<svg version="1.1" xmlns="http://www.w3.org/2000/svg" width="1039" height="849">
<path d="M0 0 C10.43502919 -0.62610175 20.52297489 1.7245316 29.65625 6.765625 C31.98530221 7.99225916 34.26429129 8.83202882 36.75 9.6875 C50.1888993 15.0588469 58.51731064 24.24829905 66.53125 35.89355469 C68.03294107 38.04724328 69.58360765 40.15546857 71.15625 42.2578125 C71.66518799 42.93884033 72.17412598 43.61986816 72.69848633 44.3215332 C73.66940436 45.61975202 74.64058328 46.91777578 75.61206055 48.21557617 C77.51715543 50.8016472 78.97699364 52.93098093 80 56 C80.66 56 81.32 56 82 56 C82.44730469 56.98742187 82.89460938 57.97484375 83.35546875 58.9921875 C83.96528108 60.286866 84.5760063 61.58111479 85.1875 62.875 C85.47947266 63.52597656 85.77144531 64.17695313 86.07226562 64.84765625 C87.52016472 67.86800489 88.54644751 69.73828025 91.484375 71.43359375 C96.30976645 72.52005611 101.25336459 72.5822118 106 71 C106.33 71.99 106.66 72.98 107 74 C105.73012031 76.04087808 104.38617389 78.03625365 103 80 C101.97069953 81.98507948 100.96136071 83.98114251 100 86 C100.81791016 86.45439453 100.81791016 86.45439453 101.65234375 86.91796875 C103.23703017 87.79835009 104.82026612 88.68134539 106.40234375 89.56640625 C108.11302167 90.51049467 109.83434397 91.43558597 111.56640625 92.33984375 C112.77103516 92.97599609 112.77103516 92.97599609 114 93.625 C114.7425 94.00914062 115.485 94.39328125 116.25 94.7890625 C118 96 118 96 119 99 C113.22240116 99.12036664 107.72040011 98.8320582 102 98 C102.02320313 98.88300781 102.04640625 99.76601562 102.0703125 100.67578125 C102.25585585 113.01441412 101.64055261 122.89308391 94 133 C93.19046875 133.76054687 92.3809375 134.52109375 91.546875 135.3046875 C88.49653244 138.53281076 86.94661709 141.77520603 85.0625 145.75 C79.78255285 156.32493358 72.31362401 164.91189932 64.49536133 173.68920898 C61.00130703 177.70016108 60.1241981 180.77509464 60 186 C59.96640381 186.7619165 59.93280762 187.52383301 59.89819336 188.30883789 C59.7141077 196.31848986 60.9425142 203.88742347 62.375 211.75 C62.59671875 213.02488281 62.8184375 214.29976562 63.046875 215.61328125 C63.47767045 218.04347442 63.92802773 220.47031197 64.40136719 222.89257812 C64.74955187 224.69995767 65.06470816 226.51551548 65.29394531 228.34179688 C65.54592466 230.43608282 65.54592466 230.43608282 67 233 C69.0676143 234.08673547 71.06854075 234.6652823 73.32763672 235.26025391 C76.22522335 236.06234485 78.84616309 237.14496092 81.59765625 238.35546875 C82.62576416 238.8047876 83.65387207 239.25410645 84.71313477 239.71704102 C85.81842529 240.20229248 86.92371582 240.68754395 88.0625 241.1875 C99.97962456 246.35886942 111.99235344 251.25994168 124.0625 256.0625 C124.91992798 256.40380951 125.77735596 256.74511902 126.6607666 257.09677124 C130.06436605 258.45141794 133.46808654 259.80575927 136.87213135 261.1592865 C147.31049792 265.31230279 157.71807215 269.53946726 168.10791016 273.8125 C170.04377231 274.6073703 171.98096257 275.39901337 173.91943359 276.1875 C176.61597823 277.28446232 179.30847247 278.39079576 182 279.5 C182.77835205 279.81453125 183.5567041 280.1290625 184.35864258 280.453125 C189.73188206 282.68794174 192.58657559 284.51359656 194.85913086 289.87744141 C195.19554596 290.66196686 195.53196106 291.44649231 195.87857056 292.25479126 C196.23704071 293.11172577 196.59551086 293.96866028 196.96484375 294.8515625 C197.35006195 295.75691742 197.73528015 296.66227234 198.13217163 297.59506226 C199.40847926 300.60177994 200.67341536 303.61312501 201.9375 306.625 C202.83141336 308.74227659 203.72554121 310.85946264 204.61987305 312.9765625 C286.13483607 506.34661383 286.13483607 506.34661383 273 539 C263.1185786 553.86644341 241.45099014 564.88331073 226 573 C225.34 573 224.68 573 224 573 C223.24356843 582.35724806 222.81470133 591.66890183 222.68359375 601.0546875 C222.66281265 602.32224884 222.64203156 603.58981018 222.62062073 604.89578247 C222.56691364 608.21312074 222.51649381 611.53048589 222.46777344 614.84790039 C222.41690381 618.25411435 222.3615649 621.66025568 222.30664062 625.06640625 C222.200382 631.71087907 222.0984687 638.35540741 222 645 C223.13127319 644.97824707 223.13127319 644.97824707 224.28540039 644.95605469 C225.27531982 644.94477539 226.26523926 644.93349609 227.28515625 644.921875 C228.75674194 644.90012207 228.75674194 644.90012207 230.25805664 644.87792969 C234.99216868 645.08869062 237.81742394 646.97723151 241.3125 650 C244.568522 653.85898904 244.12052098 657.90746372 244.0625 662.6875 C244.05798828 663.38939453 244.05347656 664.09128906 244.04882812 664.81445312 C244.03706927 666.54300538 244.01913454 668.27151365 244 670 C244.80988373 669.99555878 245.61976746 669.99111755 246.45419312 669.98654175 C254.07652597 669.94651249 261.69880806 669.91603985 269.32121849 669.89637566 C273.24023284 669.88592635 277.15916053 669.87174638 281.078125 669.84912109 C284.85823039 669.82743339 288.63825228 669.81544002 292.41841507 669.81024551 C293.86255839 669.80654241 295.306697 669.7993114 296.7508049 669.78853989 C298.76920894 669.77407983 300.78769652 669.77318355 302.80615234 669.77294922 C304.53156754 669.76628738 304.53156754 669.76628738 306.2918396 669.75949097 C309 670 309 670 311 672 C310.14888641 672.00364563 309.29777283 672.00729126 308.42086792 672.01104736 C300.38749006 672.04896372 292.35451667 672.10585769 284.32142448 672.18390274 C280.19180623 672.2233589 276.06240061 672.25555631 271.93261719 672.27099609 C267.94473701 672.28617525 263.95744146 672.32064226 259.96982193 672.36830902 C258.45089941 672.38311 256.93189341 672.39104028 255.41289902 672.39188385 C253.27968266 672.39425932 251.14807447 672.4213808 249.01513672 672.45410156 C247.8026828 672.46298401 246.59022888 672.47186646 245.34103394 672.48101807 C241.33743975 673.10291928 239.22445369 674.60205559 236 677 C232.33612314 679.39144701 228.75090773 679.28078427 224.51516247 679.25447559 C223.75456448 679.25768207 222.9939665 679.26088855 222.21032009 679.26419219 C219.64690748 679.27253173 217.08372612 679.26655414 214.52030945 679.26069641 C212.66980914 679.2637153 210.81931008 679.26760346 208.96881324 679.27228898 C203.87203693 679.28261173 198.77533062 679.2803763 193.67854846 679.27610838 C188.18626489 679.27364887 182.69399852 679.2826457 177.20172119 679.29014587 C166.43685979 679.30291688 155.6720233 679.30468355 144.9071556 679.30234561 C136.1592141 679.30056484 127.4112802 679.30230691 118.66333961 679.30657005 C116.79797835 679.30746284 116.79797835 679.30746284 114.89493302 679.30837366 C112.36884627 679.30958537 109.84275952 679.3107995 107.31667278 679.31201603 C90.34683755 679.31980731 73.37700505 679.32371955 56.40716839 679.31969929 C55.41137289 679.31946472 55.41137289 679.31946472 54.39546032 679.31922542 C51.03062873 679.31841962 47.66579715 679.31757385 44.30096557 679.31671212 C43.29854232 679.31645549 43.29854232 679.31645549 42.27586809 679.31619367 C40.92443811 679.31584702 39.57300813 679.31549849 38.22157815 679.31514808 C17.19498408 679.3097913 -3.83156805 679.31771908 -24.8581543 679.33618164 C-48.4748608 679.35689412 -72.09154721 679.36759462 -95.70826501 679.36360615 C-108.21525212 679.36169144 -120.72220103 679.36420783 -133.22918129 679.37832069 C-143.87740096 679.3902142 -154.52555892 679.39166228 -165.17377941 679.37953053 C-170.60850464 679.37362734 -176.04311688 679.37258207 -181.4778347 679.38453293 C-186.451434 679.39534282 -191.42482527 679.39234688 -196.39841463 679.37827124 C-198.19921512 679.37561076 -200.00003166 679.37803298 -201.80081645 679.38600711 C-204.24667598 679.39608727 -206.69180881 679.38771362 -209.13763905 679.37473011 C-209.83845766 679.38203946 -210.53927628 679.3893488 -211.26133183 679.39687964 C-216.81727884 679.33565523 -221.63521218 678.13275796 -225.84112549 674.33952332 C-229.46061601 672.09372722 -233.37148791 672.56105967 -237.54199219 672.56762695 C-238.50817978 672.5574353 -239.47436737 672.54724365 -240.46983337 672.53674316 C-243.66223915 672.50655789 -246.85434513 672.49733863 -250.046875 672.48828125 C-252.26077272 672.4714387 -254.47466086 672.45328903 -256.6885376 672.43388367 C-262.51476038 672.38633173 -268.34094429 672.35655584 -274.16729736 672.33044434 C-280.11291176 672.30066511 -286.05839216 672.25412571 -292.00390625 672.20898438 C-303.66920082 672.12289208 -315.33452292 672.05557306 -327 672 C-327.79339944 668.22922175 -328.18345283 664.67986787 -328.31640625 660.82421875 C-328.35830078 659.66728516 -328.40019531 658.51035156 -328.44335938 657.31835938 C-328.48267578 656.12017578 -328.52199219 654.92199219 -328.5625 653.6875 C-328.60568359 652.46998047 -328.64886719 651.25246094 -328.69335938 649.99804688 C-328.79921496 646.9988053 -328.90129726 643.99948409 -329 641 C-329.9075 640.55914063 -330.815 640.11828125 -331.75 639.6640625 C-340.72323319 635.06959454 -346.68398886 629.25988953 -350.22265625 619.6953125 C-356.07314443 600.52919712 -352.76597243 584.66067874 -344 567 C-338.27715972 556.27123026 -331.07209186 547.03629273 -323 538 C-321.66623561 536.43786794 -320.33283534 534.87542481 -319 533.3125 C-317.0250098 531.00669894 -315.58876053 529.72584035 -313 528 C-309.82437233 528.33135295 -308.16329737 529.4534899 -305.93359375 531.66796875 C-305.37115967 532.22419922 -304.80872559 532.78042969 -304.22924805 533.35351562 C-303.63797119 533.95873047 -303.04669434 534.56394531 -302.4375 535.1875 C-301.81979736 535.81462891 -301.20209473 536.44175781 -300.56567383 537.08789062 C-283.0680174 555.15173395 -266.26831004 578.00373822 -266 604 C-266.8981424 615.51903266 -270.12680708 626.19626913 -279 634 C-282.8429306 636.64453545 -286.83033941 638.91516971 -291 641 C-291.33 650.24 -291.66 659.48 -292 669 C-260.32 669.495 -260.32 669.495 -228 670 C-228 665.38 -228 660.76 -228 656 C-224.7847914 650.64131899 -222.58905549 648.08740331 -216.875 645.6875 C-214 645 -214 645 -211 646 C-211.02922924 644.99628388 -211.05845848 643.99256777 -211.08857346 642.95843601 C-211.85685832 616.14902391 -212.1754839 589.35760878 -212.20018864 562.53784442 C-212.20317578 559.44348726 -212.20728793 556.34913335 -212.21169281 553.25477791 C-212.22521809 543.51804552 -212.23497115 533.78132102 -212.2388947 524.04457992 C-212.24341848 512.89396867 -212.26122546 501.74347736 -212.2898953 490.5929026 C-212.31149622 481.88543879 -212.32159719 473.17800896 -212.32293582 464.47051865 C-212.32397971 459.30199314 -212.32980585 454.1335828 -212.34775543 448.96508598 C-212.36422106 444.13583203 -212.36639913 439.30678057 -212.35761642 434.47750854 C-212.3568468 432.71185322 -212.36117893 430.94618692 -212.37107468 429.18055916 C-212.38381564 426.76587933 -212.3779077 424.35191611 -212.36749268 421.9372406 C-212.37957728 420.89938837 -212.37957728 420.89938837 -212.39190602 419.84056944 C-212.33920796 414.59485051 -211.11967436 410.72844231 -209 406 C-207.00634766 404.89746094 -207.00634766 404.89746094 -204.7890625 404.484375 C-199.87607175 402.65915221 -198.19313374 399.51910658 -196.0859375 394.953125 C-194.7973008 392.07248488 -193.58145644 389.16581607 -192.375 386.25 C-191.7554003 384.81259357 -191.1330215 383.37638177 -190.5078125 381.94140625 C-189.26246104 379.07156549 -188.03717045 376.19437497 -186.8269043 373.30957031 C-185.61456071 370.42837458 -184.36907404 367.56566311 -183.08911133 364.71386719 C-179.85645232 357.5075358 -176.92173543 350.41487161 -174.9375 342.75 C-174.4448134 340.95811236 -173.95130222 339.16645126 -173.45703125 337.375 C-172.97120497 335.58337378 -172.48552657 333.79170746 -172 332 C-167.33719844 314.91901851 -161.6461195 298.39374453 -151 284 C-150.46632813 283.27425781 -149.93265625 282.54851562 -149.3828125 281.80078125 C-145.38753119 277.13961972 -140.89816728 274.92024017 -135.25390625 272.7421875 C-129.34800344 270.38666573 -123.51164653 267.93814412 -117.73828125 265.2734375 C-117.05701675 264.95932419 -116.37575226 264.64521088 -115.67384338 264.32157898 C-114.27371049 263.6744314 -112.87402086 263.02632399 -111.47476196 262.37728882 C-99.48803063 256.82099315 -87.45316729 251.39874439 -75.3125 246.1875 C-54.97904393 237.48234179 -54.97904393 237.48234179 -35 228 C-33.72256681 220.59088751 -34.00144658 213.30040408 -34.3125 205.8125 C-34.36317627 204.58885742 -34.41385254 203.36521484 -34.46606445 202.10449219 C-34.63039153 198.40220071 -34.81276241 194.70119659 -35 191 C-35.04995117 189.9054248 -35.09990234 188.81084961 -35.15136719 187.68310547 C-35.29763366 184.70234389 -35.48433999 181.72736266 -35.6875 178.75 C-35.7285083 177.87706299 -35.7695166 177.00412598 -35.81176758 176.10473633 C-36.26635717 170.43152488 -37.8187113 167.23413214 -41.45141602 162.87597656 C-43.7407857 160.10260171 -45.36417264 157.13669651 -47.125 154 C-47.4655542 153.39551025 -47.8061084 152.79102051 -48.15698242 152.16821289 C-50.57828644 147.84143022 -52.81574958 143.44939901 -55 139 C-55.47566406 138.33613281 -55.95132812 137.67226562 -56.44140625 136.98828125 C-58.79778761 132.47040722 -59.60273743 127.71617681 -60.625 122.75 C-60.8415625 121.75097656 -61.058125 120.75195312 -61.28125 119.72265625 C-65.52388897 99.68797222 -67.33413142 76.72056396 -56.69140625 58.44921875 C-54.56669495 55.37255827 -52.18804428 52.84086117 -49.41796875 50.33984375 C-47.87452808 49.03486037 -47.87452808 49.03486037 -47 47 C-47.63808594 46.81824219 -48.27617187 46.63648438 -48.93359375 46.44921875 C-50.17302734 46.07216797 -50.17302734 46.07216797 -51.4375 45.6875 C-52.26121094 45.44386719 -53.08492188 45.20023438 -53.93359375 44.94921875 C-54.61550781 44.63597656 -55.29742187 44.32273438 -56 44 C-56.33 43.01 -56.66 42.02 -57 41 C-52.33903658 36.7073416 -47.60189058 32.88622491 -42.265625 29.46484375 C-40.79409752 28.51342512 -39.34398549 27.52771888 -37.921875 26.50390625 C-27.46296562 19.04709123 -15.05030743 14.23025424 -2.3125 12.8125 C-1.55388672 12.71775391 -0.79527344 12.62300781 -0.01367188 12.52539062 C3.36989163 12.13417543 5.73005458 11.91001819 9 13 C7.87895467 11.68412059 6.75303035 10.37239647 5.625 9.0625 C4.99851562 8.33160156 4.37203125 7.60070312 3.7265625 6.84765625 C2.12252286 4.91619094 2.12252286 4.91619094 0 4 C0 2.68 0 1.36 0 0 Z M-303.1015625 642.21875 C-304.73859131 642.2796582 -304.73859131 642.2796582 -306.40869141 642.34179688 C-307.80007324 642.39400391 -309.19145508 642.44621094 -310.625 642.5 C-315.03875 642.665 -319.4525 642.83 -324 643 C-324 651.91 -324 660.82 -324 670 C-314.43 670 -304.86 670 -295 670 C-295 660.76 -295 651.52 -295 642 C-297.70398638 642 -300.39940491 642.11773476 -303.1015625 642.21875 Z " fill="#1E1D28" transform="translate(539,81)"/>
<path d="M0 0 C10.43502919 -0.62610175 20.52297489 1.7245316 29.65625 6.765625 C31.98530221 7.99225916 34.26429129 8.83202882 36.75 9.6875 C50.1888993 15.0588469 58.51731064 24.24829905 66.53125 35.89355469 C68.03294107 38.04724328 69.58360765 40.15546857 71.15625 42.2578125 C71.66518799 42.93884033 72.17412598 43.61986816 72.69848633 44.3215332 C73.66940436 45.61975202 74.64058328 46.91777578 75.61206055 48.21557617 C77.51715543 50.8016472 78.97699364 52.93098093 80 56 C80.66 56 81.32 56 82 56 C82.44730469 56.98742187 82.89460938 57.97484375 83.35546875 58.9921875 C83.96528108 60.286866 84.5760063 61.58111479 85.1875 62.875 C85.47947266 63.52597656 85.77144531 64.17695313 86.07226562 64.84765625 C87.52016472 67.86800489 88.54644751 69.73828025 91.484375 71.43359375 C96.30976645 72.52005611 101.25336459 72.5822118 106 71 C106.33 71.99 106.66 72.98 107 74 C105.73012031 76.04087808 104.38617389 78.03625365 103 80 C101.97069953 81.98507948 100.96136071 83.98114251 100 86 C100.81791016 86.45439453 100.81791016 86.45439453 101.65234375 86.91796875 C103.23703017 87.79835009 104.82026612 88.68134539 106.40234375 89.56640625 C108.11302167 90.51049467 109.83434397 91.43558597 111.56640625 92.33984375 C112.77103516 92.97599609 112.77103516 92.97599609 114 93.625 C114.7425 94.00914062 115.485 94.39328125 116.25 94.7890625 C118 96 118 96 119 99 C113.22240116 99.12036664 107.72040011 98.8320582 102 98 C102.02320313 98.88300781 102.04640625 99.76601562 102.0703125 100.67578125 C102.25585585 113.01441412 101.64055261 122.89308391 94 133 C93.19046875 133.76054687 92.3809375 134.52109375 91.546875 135.3046875 C88.49653244 138.53281076 86.94661709 141.77520603 85.0625 145.75 C79.78255285 156.32493358 72.31362401 164.91189932 64.49536133 173.68920898 C61.00130703 177.70016108 60.1241981 180.77509464 60 186 C59.96640381 186.7619165 59.93280762 187.52383301 59.89819336 188.30883789 C59.7141077 196.31848986 60.9425142 203.88742347 62.375 211.75 C62.59671875 213.02488281 62.8184375 214.29976562 63.046875 215.61328125 C63.47767045 218.04347442 63.92802773 220.47031197 64.40136719 222.89257812 C64.74955187 224.69995767 65.06470816 226.51551548 65.29394531 228.34179688 C65.54592466 230.43608282 65.54592466 230.43608282 67 233 C69.0676143 234.08673547 71.06854075 234.6652823 73.32763672 235.26025391 C76.22522335 236.06234485 78.84616309 237.14496092 81.59765625 238.35546875 C82.62576416 238.8047876 83.65387207 239.25410645 84.71313477 239.71704102 C85.81842529 240.20229248 86.92371582 240.68754395 88.0625 241.1875 C99.97962456 246.35886942 111.99235344 251.25994168 124.0625 256.0625 C124.91992798 256.40380951 125.77735596 256.74511902 126.6607666 257.09677124 C130.06436605 258.45141794 133.46808654 259.80575927 136.87213135 261.1592865 C147.31049792 265.31230279 157.71807215 269.53946726 168.10791016 273.8125 C170.04377231 274.6073703 171.98096257 275.39901337 173.91943359 276.1875 C176.61597823 277.28446232 179.30847247 278.39079576 182 279.5 C182.77835205 279.81453125 183.5567041 280.1290625 184.35864258 280.453125 C189.73188206 282.68794174 192.58657559 284.51359656 194.85913086 289.87744141 C195.19554596 290.66196686 195.53196106 291.44649231 195.87857056 292.25479126 C196.41627579 293.54019302 196.41627579 293.54019302 196.96484375 294.8515625 C197.35006195 295.75691742 197.73528015 296.66227234 198.13217163 297.59506226 C199.40847926 300.60177994 200.67341536 303.61312501 201.9375 306.625 C202.83141336 308.74227659 203.72554121 310.85946264 204.61987305 312.9765625 C286.13483607 506.34661383 286.13483607 506.34661383 273 539 C263.1185786 553.86644341 241.45099014 564.88331073 226 573 C225.34 573 224.68 573 224 573 C223.24356843 582.35724806 222.81470133 591.66890183 222.68359375 601.0546875 C222.6524221 602.95602951 222.6524221 602.95602951 222.62062073 604.89578247 C222.56691364 608.21312074 222.51649381 611.53048589 222.46777344 614.84790039 C222.41690381 618.25411435 222.3615649 621.66025568 222.30664062 625.06640625 C222.20038197 631.71088056 222.09888348 638.35541201 222 645 C225.63 645 229.26 645 233 645 C233 645.33 233 645.66 233 646 C228.71 646 224.42 646 220 646 C219.99503478 644.21617999 219.99503478 644.21617999 219.98996925 642.3963232 C219.91093659 614.16123313 219.82171097 585.92618784 219.71994839 557.6911706 C219.70742965 554.21525658 219.69499686 550.73934225 219.68261719 547.26342773 C219.6789182 546.22544805 219.6789182 546.22544805 219.67514448 545.16649909 C219.63543034 533.96475082 219.60267705 522.76299247 219.57250018 511.56121492 C219.54137647 500.06553363 219.50261572 488.56989927 219.45720994 477.07426506 C219.43195085 470.61803352 219.41016772 464.1618322 219.39665604 457.7055645 C219.38383048 451.62928565 219.36177045 445.55311043 219.33261681 439.47688866 C219.32354495 437.24644847 219.31785171 435.01599159 219.31578636 432.78553391 C219.31246113 429.74003781 219.29697619 426.69483507 219.2784729 423.6493988 C219.281375 422.32593363 219.281375 422.32593363 219.28433573 420.97573179 C219.23890256 415.97272163 218.98602272 411.6340886 217 407 C213.41331701 404.71991883 209.9185976 404.74263824 205.74211121 404.7215271 C204.48152893 404.71036362 203.22094666 404.69920013 201.92216492 404.68769836 C200.5329898 404.68533364 199.14381435 404.68315795 197.75463867 404.68115234 C196.28593394 404.67185019 194.81723448 404.66168108 193.34854126 404.65071106 C189.36757052 404.62342933 185.38663514 404.60826709 181.40559554 404.59528303 C177.24287474 404.5796445 173.08022604 404.55285657 168.91755676 404.5272522 C161.03769769 404.48047722 153.15782503 404.44372691 145.27789813 404.41057932 C136.30571969 404.3723489 127.33361369 404.32294114 118.36149633 404.27259517 C99.90771725 404.16929436 81.45389394 404.08002793 63 404 C62.67 403.34 62.34 402.68 62 402 C71.1726945 398.53067142 80.36714414 395.12630474 89.5859375 391.78125 C91.09643677 391.23259277 91.09643677 391.23259277 92.63745117 390.67285156 C95.0914995 389.78152956 97.5456844 388.89058574 100 388 C99.26038025 387.99191315 98.5207605 387.98382629 97.75872803 387.97549438 C90.64471292 387.89619262 83.53085452 387.80855041 76.41704941 387.71247292 C72.76341962 387.66339696 69.10980735 387.61709474 65.45605469 387.578125 C15.9472063 387.04281209 15.9472063 387.04281209 -7.8125 382.375 C-27.22288534 378.59692609 -42.67720184 378.93764263 -60 389 C-64.5278721 392.1860146 -67.66694494 395.40699717 -70.46673584 400.16390991 C-72.38295374 402.72800938 -73.41523368 403.83033622 -76.51508331 404.72972488 C-79.7129797 405.00069335 -82.82346162 405.01238637 -86.03222656 404.93994141 C-87.23933289 404.9443222 -88.44643921 404.948703 -89.69012451 404.95321655 C-92.98886456 404.95703999 -96.28356718 404.92534747 -99.58170795 404.87701464 C-103.03468505 404.83432926 -106.48765795 404.83560881 -109.94085693 404.83163452 C-115.73472901 404.81875654 -121.52775387 404.77632142 -127.32128906 404.71337891 C-134.76219226 404.63264637 -142.20254508 404.59797927 -149.64383316 404.57876015 C-156.04108185 404.5621726 -162.43821365 404.52770466 -168.83536053 404.48868513 C-170.20876819 404.48058432 -171.58217967 404.47310565 -172.95559406 404.46624041 C-177.46573124 404.44369415 -181.97540983 404.40339278 -186.48535156 404.35400391 C-187.62822632 404.3486261 -188.77110107 404.34324829 -189.9486084 404.33770752 C-190.98604187 404.32339691 -192.02347534 404.3090863 -193.09234619 404.29434204 C-193.99712833 404.28579508 -194.90191048 404.27724812 -195.83411026 404.26844215 C-198 404 -198 404 -200 402 C-199.37339478 400.62618164 -199.37339478 400.62618164 -198.73413086 399.22460938 C-197.1468041 395.74355945 -195.56110305 392.2617708 -193.97583008 388.77978516 C-193.29656843 387.28838019 -192.61689743 385.79716158 -191.93676758 384.30615234 C-189.94307338 379.93507743 -187.95738904 375.56051202 -185.98330688 371.18054199 C-185.3296396 369.73099558 -184.67435432 368.28217768 -184.01742554 366.83410645 C-180.44376398 358.94061316 -177.11514714 351.16199863 -174.9375 342.75 C-174.4448134 340.95811236 -173.95130222 339.16645126 -173.45703125 337.375 C-172.97120497 335.58337378 -172.48552657 333.79170746 -172 332 C-167.33719844 314.91901851 -161.6461195 298.39374453 -151 284 C-150.46632813 283.27425781 -149.93265625 282.54851562 -149.3828125 281.80078125 C-145.38753119 277.13961972 -140.89816728 274.92024017 -135.25390625 272.7421875 C-129.34800344 270.38666573 -123.51164653 267.93814412 -117.73828125 265.2734375 C-117.05701675 264.95932419 -116.37575226 264.64521088 -115.67384338 264.32157898 C-114.27371049 263.6744314 -112.87402086 263.02632399 -111.47476196 262.37728882 C-99.48803063 256.82099315 -87.45316729 251.39874439 -75.3125 246.1875 C-54.97904393 237.48234179 -54.97904393 237.48234179 -35 228 C-33.72256681 220.59088751 -34.00144658 213.30040408 -34.3125 205.8125 C-34.36317627 204.58885742 -34.41385254 203.36521484 -34.46606445 202.10449219 C-34.63039153 198.40220071 -34.81276241 194.70119659 -35 191 C-35.07492676 189.35813721 -35.07492676 189.35813721 -35.15136719 187.68310547 C-35.29763366 184.70234389 -35.48433999 181.72736266 -35.6875 178.75 C-35.7285083 177.87706299 -35.7695166 177.00412598 -35.81176758 176.10473633 C-36.26635717 170.43152488 -37.8187113 167.23413214 -41.45141602 162.87597656 C-43.7407857 160.10260171 -45.36417264 157.13669651 -47.125 154 C-47.4655542 153.39551025 -47.8061084 152.79102051 -48.15698242 152.16821289 C-50.57828644 147.84143022 -52.81574958 143.44939901 -55 139 C-55.47566406 138.33613281 -55.95132813 137.67226562 -56.44140625 136.98828125 C-58.79778761 132.47040722 -59.60273743 127.71617681 -60.625 122.75 C-60.8415625 121.75097656 -61.058125 120.75195312 -61.28125 119.72265625 C-65.52388897 99.68797222 -67.33413142 76.72056396 -56.69140625 58.44921875 C-54.56669495 55.37255827 -52.18804428 52.84086117 -49.41796875 50.33984375 C-47.87452808 49.03486037 -47.87452808 49.03486037 -47 47 C-47.63808594 46.81824219 -48.27617187 46.63648438 -48.93359375 46.44921875 C-50.17302734 46.07216797 -50.17302734 46.07216797 -51.4375 45.6875 C-52.67306641 45.32205078 -52.67306641 45.32205078 -53.93359375 44.94921875 C-54.61550781 44.63597656 -55.29742187 44.32273438 -56 44 C-56.33 43.01 -56.66 42.02 -57 41 C-52.33903658 36.7073416 -47.60189058 32.88622491 -42.265625 29.46484375 C-40.79409752 28.51342512 -39.34398549 27.52771888 -37.921875 26.50390625 C-27.46296562 19.04709123 -15.05030743 14.23025424 -2.3125 12.8125 C-1.55388672 12.71775391 -0.79527344 12.62300781 -0.01367188 12.52539062 C3.36989163 12.13417543 5.73005458 11.91001819 9 13 C7.87895467 11.68412059 6.75303035 10.37239647 5.625 9.0625 C4.99851562 8.33160156 4.37203125 7.60070312 3.7265625 6.84765625 C2.12252286 4.91619094 2.12252286 4.91619094 0 4 C0 2.68 0 1.36 0 0 Z " fill="#F5F5F5" transform="translate(539,81)"/>
<path d="M0 0 C10.43502919 -0.62610175 20.52297489 1.7245316 29.65625 6.765625 C31.98530221 7.99225916 34.26429129 8.83202882 36.75 9.6875 C50.1888993 15.0588469 58.51731064 24.24829905 66.53125 35.89355469 C68.03294107 38.04724328 69.58360765 40.15546857 71.15625 42.2578125 C71.91965698 43.27935425 71.91965698 43.27935425 72.69848633 44.3215332 C73.66940436 45.61975202 74.64058328 46.91777578 75.61206055 48.21557617 C77.51715543 50.8016472 78.97699364 52.93098093 80 56 C80.66 56 81.32 56 82 56 C82.44730469 56.98742187 82.89460937 57.97484375 83.35546875 58.9921875 C83.96528108 60.286866 84.5760063 61.58111479 85.1875 62.875 C85.47947266 63.52597656 85.77144531 64.17695313 86.07226562 64.84765625 C87.52016472 67.86800489 88.54644751 69.73828025 91.484375 71.43359375 C96.30976645 72.52005611 101.25336459 72.5822118 106 71 C106.33 71.99 106.66 72.98 107 74 C105.73012031 76.04087808 104.38617389 78.03625365 103 80 C101.97069953 81.98507948 100.96136071 83.98114251 100 86 C100.54527344 86.30292969 101.09054687 86.60585937 101.65234375 86.91796875 C103.23703017 87.79835009 104.82026612 88.68134539 106.40234375 89.56640625 C108.11302167 90.51049467 109.83434397 91.43558597 111.56640625 92.33984375 C112.36949219 92.76394531 113.17257812 93.18804687 114 93.625 C114.7425 94.00914062 115.485 94.39328125 116.25 94.7890625 C118 96 118 96 119 99 C113.22240116 99.12036664 107.72040011 98.8320582 102 98 C102.02320313 98.88300781 102.04640625 99.76601562 102.0703125 100.67578125 C102.25585585 113.01441412 101.64055261 122.89308391 94 133 C93.19046875 133.76054687 92.3809375 134.52109375 91.546875 135.3046875 C88.49653244 138.53281076 86.94661709 141.77520603 85.0625 145.75 C79.78255285 156.32493358 72.31362401 164.91189932 64.49536133 173.68920898 C61.00130197 177.70016689 60.12422595 180.77506807 60 186 C59.96640381 186.76046631 59.93280762 187.52093262 59.89819336 188.30444336 C59.71295266 196.35350044 60.94536384 203.97184279 62.375 211.875 C62.59671875 213.16664063 62.8184375 214.45828125 63.046875 215.7890625 C63.98972529 221.13557829 64.97298676 225.96314661 67 231 C67 231.99 67 232.98 67 234 C53.26271724 241.19745932 39.85980588 247.21791933 24.625 250.4375 C23.81708008 250.6137793 23.00916016 250.79005859 22.17675781 250.97167969 C12.39110688 252.8647729 3.8795354 251.0568247 -5.4375 247.875 C-6.35474854 247.56296631 -7.27199707 247.25093262 -8.21704102 246.92944336 C-18.5255505 243.28657287 -27.52955781 238.8820992 -33 229 C-33.93373328 225.21982602 -34.08718538 221.51540513 -34.20703125 217.6328125 C-34.26275803 216.55804657 -34.3184848 215.48328064 -34.37590027 214.37594604 C-34.54753953 210.95961668 -34.68099801 207.54308651 -34.8125 204.125 C-34.97066616 200.71488929 -35.13655324 197.30520922 -35.30265808 193.89547729 C-35.40270615 191.78096912 -35.49660855 189.66615763 -35.58320618 187.55105591 C-35.77852754 182.86542537 -36.01119684 178.18322595 -36.3737793 173.50732422 C-36.43196335 172.72767303 -36.4901474 171.94802185 -36.5500946 171.14474487 C-37.23874542 167.86187626 -39.05861714 165.84737438 -41.18359375 163.328125 C-43.4759166 160.39000797 -45.30013322 157.23866997 -47.125 154 C-47.46885742 153.39067627 -47.81271484 152.78135254 -48.16699219 152.15356445 C-50.58208368 147.83012986 -52.81834322 143.44411567 -55 139 C-55.47566406 138.33613281 -55.95132812 137.67226562 -56.44140625 136.98828125 C-58.79778761 132.47040722 -59.60273743 127.71617681 -60.625 122.75 C-60.8415625 121.75097656 -61.058125 120.75195312 -61.28125 119.72265625 C-65.52388897 99.68797222 -67.33413142 76.72056396 -56.69140625 58.44921875 C-54.56669495 55.37255827 -52.18804428 52.84086117 -49.41796875 50.33984375 C-47.87452808 49.03486037 -47.87452808 49.03486037 -47 47 C-47.63808594 46.81824219 -48.27617187 46.63648438 -48.93359375 46.44921875 C-50.17302734 46.07216797 -50.17302734 46.07216797 -51.4375 45.6875 C-52.26121094 45.44386719 -53.08492188 45.20023438 -53.93359375 44.94921875 C-54.61550781 44.63597656 -55.29742187 44.32273438 -56 44 C-56.495 42.515 -56.495 42.515 -57 41 C-52.33903658 36.7073416 -47.60189058 32.88622491 -42.265625 29.46484375 C-40.79409752 28.51342512 -39.34398549 27.52771888 -37.921875 26.50390625 C-27.46296562 19.04709123 -15.05030743 14.23025424 -2.3125 12.8125 C-1.55388672 12.71775391 -0.79527344 12.62300781 -0.01367188 12.52539062 C3.36989163 12.13417543 5.73005458 11.91001819 9 13 C7.87895467 11.68412059 6.75303035 10.37239647 5.625 9.0625 C4.99851562 8.33160156 4.37203125 7.60070312 3.7265625 6.84765625 C2.12252286 4.91619094 2.12252286 4.91619094 0 4 C0 2.68 0 1.36 0 0 Z " fill="#9F616A" transform="translate(539,81)"/>
<path d="M0 0 C1.1537915 0.00088623 2.30758301 0.00177246 3.49633789 0.00268555 C11.9204078 0.1198931 21.2303022 0.25819785 28.1015625 5.82421875 C29.3125 7.375 29.3125 7.375 29.75 10.375 C29.3125 13.375 29.3125 13.375 27.70703125 14.92578125 C23.00446912 17.77186697 17.55716843 18.85404616 12.3125 20.375 C12.3125 25.985 12.3125 31.595 12.3125 37.375 C13.4675 37.41625 14.6225 37.4575 15.8125 37.5 C33.29997644 39.4583767 48.08860567 49.45010741 60.3125 61.375 C60.97121094 61.96023437 61.62992188 62.54546875 62.30859375 63.1484375 C77.05940263 76.57065159 83.91909661 97.96688139 85.3125 117.375 C85.39371094 118.45974609 85.39371094 118.45974609 85.4765625 119.56640625 C86.28359496 141.24623272 77.60973161 162.76664202 63.6875 179.0625 C55.66403664 187.5310245 45.70956121 194.14896394 35.3125 199.375 C40.11309625 200.14617944 44.732893 200.51129453 49.59301758 200.54858398 C50.28333069 200.555271 50.9736438 200.56195801 51.68487549 200.56884766 C53.17002993 200.58279902 54.65520457 200.59472372 56.1403904 200.60479546 C58.48972217 200.62132374 60.83890154 200.64455897 63.18815613 200.66969299 C69.86258279 200.74018998 76.53706576 200.80083099 83.21166992 200.85180664 C87.30469012 200.88353273 91.39752344 200.92477152 95.49039268 200.97200203 C97.04892326 200.98803682 98.60749663 201.00035156 100.1660862 201.00890923 C102.33723717 201.02101602 104.50794415 201.04513888 106.67895508 201.07202148 C107.91470779 201.08232895 109.15046051 201.09263641 110.42366028 201.10325623 C113.3125 201.375 113.3125 201.375 115.3125 203.375 C113.58054382 203.37713753 113.58054382 203.37713753 111.81359863 203.37931824 C100.86958116 203.39607294 89.92593149 203.43910342 78.98210907 203.50709057 C73.35732311 203.54121021 67.73280444 203.56644705 62.10791016 203.57055664 C56.66761899 203.57487197 51.22792926 203.60360031 45.78782654 203.64843178 C43.72451801 203.66130414 41.66113713 203.66575141 39.59779358 203.66115379 C28.26410837 203.64180289 18.41033654 204.23978788 7.7166748 208.17793274 C-5.28213329 212.74892233 -20.00482779 212.38906856 -33.4375 210.125 C-34.42810425 209.96124878 -34.42810425 209.96124878 -35.4387207 209.79418945 C-39.40207185 209.05011577 -42.88734752 207.89168507 -46.60766602 206.33398438 C-53.19901854 203.9175767 -59.27340164 203.863681 -66.23046875 203.984375 C-67.48007889 203.99003479 -68.72968903 203.99569458 -70.01716614 204.00152588 C-73.3004238 204.01997786 -76.58285845 204.05575729 -79.86584473 204.1003418 C-83.23142556 204.1416473 -86.59712807 204.15961124 -89.96289062 204.1796875 C-96.53807556 204.22355837 -103.11272066 204.29032208 -109.6875 204.375 C-107.26483381 201.95233381 -106.56521199 202.09163379 -103.23779297 201.96435547 C-102.31698944 201.92446503 -101.39618591 201.88457458 -100.44747925 201.84347534 C-99.45160797 201.81005035 -98.45573669 201.77662537 -97.4296875 201.7421875 C-96.41149933 201.70062531 -95.39331116 201.65906311 -94.3442688 201.61624146 C-91.08395995 201.48521914 -87.82332265 201.36746825 -84.5625 201.25 C-82.35543446 201.16363235 -80.14840242 201.07640385 -77.94140625 200.98828125 C-72.5237871 200.77385428 -67.1058395 200.57032855 -61.6875 200.375 C-62.36151855 199.77461914 -63.03553711 199.17423828 -63.72998047 198.55566406 C-64.62088379 197.75870117 -65.51178711 196.96173828 -66.4296875 196.140625 C-67.75009033 194.96161621 -67.75009033 194.96161621 -69.09716797 193.75878906 C-86.30590696 177.92220777 -94.81421762 157.77307562 -95.97265625 134.7109375 C-96.56124341 115.02666275 -91.37907836 94.9690779 -77.6875 80.375 C-76.58521463 79.16862886 -75.48371554 77.96153901 -74.3828125 76.75390625 C-71.39072619 73.49292329 -68.35731142 70.27425196 -65.30175781 67.07275391 C-63.93641173 65.63678647 -62.5874195 64.18529632 -61.2421875 62.73046875 C-48.25537499 49.04878989 -31.92348387 41.38550098 -13.6875 37.375 C-13.0275 37.375 -12.3675 37.375 -11.6875 37.375 C-11.6875 31.765 -11.6875 26.155 -11.6875 20.375 C-13.75 19.776875 -15.8125 19.17875 -17.9375 18.5625 C-25.54885005 16.35520849 -25.54885005 16.35520849 -28.6875 13.375 C-29.4375 10.5 -29.4375 10.5 -28.6875 7.375 C-20.84752415 -0.02044114 -10.12007601 -0.01382027 0 0 Z M57.3125 65.375 C56.39774432 66.79795327 55.48635183 68.22320255 54.59375 69.66015625 C52.70774566 72.18441206 50.32224833 73.9224022 47.80078125 75.78515625 C45.76352142 77.96144168 45.42843787 79.40966596 45.3125 82.375 C46.50583678 84.69289635 46.50583678 84.69289635 48.375 86.875 C54.89680727 95.64436237 58.57294175 105.28543528 61.35546875 115.79296875 C62.13948103 118.68388695 62.13948103 118.68388695 65.3125 120.375 C68.28092658 120.83415507 68.28092658 120.83415507 71.5 121 C72.58667969 121.07476562 73.67335938 121.14953125 74.79296875 121.2265625 C75.62441406 121.27554688 76.45585937 121.32453125 77.3125 121.375 C76.38566406 121.43558594 75.45882812 121.49617188 74.50390625 121.55859375 C73.30636719 121.64238281 72.10882813 121.72617188 70.875 121.8125 C69.68003906 121.89371094 68.48507812 121.97492188 67.25390625 122.05859375 C64.42679756 122.05156114 64.42679756 122.05156114 63.3125 123.375 C63.21682442 125.5032501 63.12782835 127.63201862 63.07324219 129.76171875 C62.6630325 144.74804583 59.64278013 157.6766889 53.3125 171.375 C53.9725 172.035 54.6325 172.695 55.3125 173.375 C56.00998583 174.69247324 56.68209957 176.02414193 57.3125 177.375 C71.52461363 164.32305891 80.67140265 147.14227121 81.59765625 127.6328125 C82.2080254 105.04915409 76.58127238 83.97064961 61.1640625 67.01171875 C59.47463091 65.154233 59.47463091 65.154233 57.3125 65.375 Z " fill="#010101" transform="translate(231.6875,98.625)"/>
<path d="M0 0 C10.43502919 -0.62610175 20.52297489 1.7245316 29.65625 6.765625 C31.98530221 7.99225916 34.26429129 8.83202882 36.75 9.6875 C50.1888993 15.0588469 58.51731064 24.24829905 66.53125 35.89355469 C68.03294107 38.04724328 69.58360765 40.15546857 71.15625 42.2578125 C71.91965698 43.27935425 71.91965698 43.27935425 72.69848633 44.3215332 C73.66940436 45.61975202 74.64058328 46.91777578 75.61206055 48.21557617 C77.51715543 50.8016472 78.97699364 52.93098093 80 56 C80.66 56 81.32 56 82 56 C82.44730469 56.98742187 82.89460937 57.97484375 83.35546875 58.9921875 C83.96528108 60.286866 84.5760063 61.58111479 85.1875 62.875 C85.47947266 63.52597656 85.77144531 64.17695313 86.07226562 64.84765625 C87.52016472 67.86800489 88.54644751 69.73828025 91.484375 71.43359375 C96.30976645 72.52005611 101.25336459 72.5822118 106 71 C106.33 71.99 106.66 72.98 107 74 C105.73012031 76.04087808 104.38617389 78.03625365 103 80 C101.97069953 81.98507948 100.96136071 83.98114251 100 86 C100.54527344 86.30292969 101.09054687 86.60585937 101.65234375 86.91796875 C103.23703017 87.79835009 104.82026612 88.68134539 106.40234375 89.56640625 C108.11302167 90.51049467 109.83434397 91.43558597 111.56640625 92.33984375 C112.36949219 92.76394531 113.17257812 93.18804687 114 93.625 C114.7425 94.00914062 115.485 94.39328125 116.25 94.7890625 C118 96 118 96 119 99 C113.22240116 99.12036664 107.72040011 98.8320582 102 98 C102.02320313 98.88300781 102.04640625 99.76601562 102.0703125 100.67578125 C102.26814103 113.8313787 101.4207325 124.44206434 92.49609375 134.734375 C91.37648879 135.86992875 90.19574985 136.9449266 89 138 C86 137 86 137 84.57373047 134.54736328 C84.09307129 133.48243652 83.61241211 132.41750977 83.1171875 131.3203125 C82.32634766 129.58587891 82.32634766 129.58587891 81.51953125 127.81640625 C80.97125706 126.58598077 80.42308104 125.35551153 79.875 124.125 C79.31993825 122.90192225 78.76395913 121.67926039 78.20703125 120.45703125 C74.20773486 111.62320458 74.20773486 111.62320458 73 108 C72.01 109.98 72.01 109.98 71 112 C64.62730104 107.05790693 59.63145875 101.2629175 56 94 C53.525 96.97 53.525 96.97 51 100 C49.515 99.505 49.515 99.505 48 99 C47.05078125 96.49609375 47.05078125 96.49609375 46.3125 93.4375 C46.06113281 92.42558594 45.80976562 91.41367188 45.55078125 90.37109375 C45.36902344 89.58863281 45.18726563 88.80617188 45 88 C41.63328661 88 40.03703067 88.16107053 37.01342773 89.20922852 C36.24260361 89.47272598 35.47177948 89.73622345 34.67759705 90.00770569 C33.85457596 90.29520187 33.03155487 90.58269806 32.18359375 90.87890625 C30.4329898 91.47604953 28.68233728 92.07305045 26.93164062 92.66992188 C24.17644809 93.61738104 21.422305 94.56776243 18.66918945 95.52124023 C16.00987525 96.43977443 13.34701565 97.34736518 10.68359375 98.25390625 C9.44602577 98.68818687 9.44602577 98.68818687 8.18345642 99.13124084 C7.03194847 99.5217588 7.03194847 99.5217588 5.85717773 99.92016602 C5.18307358 100.15333023 4.50896942 100.38649445 3.81443787 100.62672424 C2 101 2 101 -1 100 C0.65 96.7 2.3 93.4 4 90 C-4.25 90.99 -12.5 91.98 -21 93 C-21 88.86356447 -20.84767359 88.30197567 -18.5 85.25 C-18.0359375 84.63640625 -17.571875 84.0228125 -17.09375 83.390625 C-16.7328125 82.93171875 -16.371875 82.4728125 -16 82 C-26.6835559 88.39016428 -37.08117085 95.07507537 -42 107 C-42.79936207 110.63459939 -43.40057872 114.27862927 -44.01171875 117.94921875 C-45.50860689 125.15665526 -49.46882933 131.61705255 -53 138 C-53.99 138 -54.98 138 -56 138 C-58.30871824 132.24139708 -59.89914154 126.63785454 -61.125 120.5625 C-61.29386719 119.76779297 -61.46273438 118.97308594 -61.63671875 118.15429688 C-65.67586215 98.61056757 -67.02103871 76.18304891 -56.69140625 58.44921875 C-54.56669495 55.37255827 -52.18804428 52.84086117 -49.41796875 50.33984375 C-47.87452808 49.03486037 -47.87452808 49.03486037 -47 47 C-47.63808594 46.81824219 -48.27617187 46.63648438 -48.93359375 46.44921875 C-50.17302734 46.07216797 -50.17302734 46.07216797 -51.4375 45.6875 C-52.26121094 45.44386719 -53.08492188 45.20023438 -53.93359375 44.94921875 C-54.61550781 44.63597656 -55.29742187 44.32273438 -56 44 C-56.495 42.515 -56.495 42.515 -57 41 C-52.33903658 36.7073416 -47.60189058 32.88622491 -42.265625 29.46484375 C-40.79409752 28.51342512 -39.34398549 27.52771888 -37.921875 26.50390625 C-27.46296562 19.04709123 -15.05030743 14.23025424 -2.3125 12.8125 C-1.55388672 12.71775391 -0.79527344 12.62300781 -0.01367188 12.52539062 C3.36989163 12.13417543 5.73005458 11.91001819 9 13 C7.87895467 11.68412059 6.75303035 10.37239647 5.625 9.0625 C4.99851562 8.33160156 4.37203125 7.60070312 3.7265625 6.84765625 C2.12252286 4.91619094 2.12252286 4.91619094 0 4 C0 2.68 0 1.36 0 0 Z " fill="#000000" transform="translate(539,81)"/>
<path d="M0 0 C9.37528612 3.85525784 17.04193622 15.15918806 23 23 C23.70640625 23.88945313 24.4128125 24.77890625 25.140625 25.6953125 C39.09136254 43.59713305 48.01173043 60.32483429 45.64453125 83.4765625 C44.27151894 92.93509173 40.67331583 100.11102944 34 107 C31.1944491 109.00838747 28.35078587 110.78175814 25.35546875 112.4921875 C22.75244669 113.93614111 22.75244669 113.93614111 21 117 C20.34 117 19.68 117 19 117 C19 116.34 19 115.68 19 115 C18.01 115.33 17.02 115.66 16 116 C14.11641666 116.09417917 12.22968518 116.13071168 10.34375 116.1328125 C9.23902344 116.13410156 8.13429688 116.13539063 6.99609375 116.13671875 C5.84238281 116.13285156 4.68867187 116.12898437 3.5 116.125 C1.76943359 116.13080078 1.76943359 116.13080078 0.00390625 116.13671875 C-1.65318359 116.13478516 -1.65318359 116.13478516 -3.34375 116.1328125 C-4.86258789 116.13112061 -4.86258789 116.13112061 -6.41210938 116.12939453 C-9 116 -9 116 -12 115 C-11.67 123.91 -11.34 132.82 -11 142 C-1.43 142.33 8.14 142.66 18 143 C18.33 137.06 18.66 131.12 19 125 C19.66 125 20.32 125 21 125 C22.23107198 130.69370789 22.07070544 136.20215428 22 142 C28.27 142.33 34.54 142.66 41 143 C37.69477196 145.20348536 36.72339001 145.24563385 32.88598633 145.22705078 C31.84513382 145.22689972 30.80428131 145.22674866 29.73188782 145.22659302 C28.60993515 145.21627045 27.48798248 145.20594788 26.33203125 145.1953125 C25.18208176 145.1924826 24.03213226 145.18965271 22.84733582 145.18673706 C19.16895204 145.17552833 15.49081038 145.15042224 11.8125 145.125 C9.32096705 145.11497111 6.8294303 145.1058451 4.33789062 145.09765625 C-1.77482241 145.07558673 -7.88739391 145.04210224 -14 145 C-15.19305058 134.59080572 -15.19305058 134.59080572 -14.67578125 129.89453125 C-14.03123972 122.40473888 -14.03123972 122.40473888 -15 115 C-17.76955556 112.10536774 -20.20016005 110.96461441 -23.875 109.421875 C-29.78892442 106.73103939 -33.24483704 101.23733565 -35.75 95.375 C-42.25054499 74.93891168 -39.37802331 58.53117284 -29.88671875 39.68359375 C-25.15682417 30.74840447 -19.449037 22.77059926 -13 15 C-12.51112305 14.40960937 -12.02224609 13.81921875 -11.51855469 13.2109375 C-3.17409306 3.17409306 -3.17409306 3.17409306 0 0 Z " fill="#69CE8E" transform="translate(873,608)"/>
<path d="M0 0 C2.2078746 0.87223015 3.39186976 1.79249226 5.07055664 3.4597168 C5.63299072 4.01594727 6.1954248 4.57217773 6.77490234 5.14526367 C7.66181763 6.05308594 7.66181763 6.05308594 8.56665039 6.97924805 C9.18435303 7.60637695 9.80205566 8.23350586 10.43847656 8.87963867 C27.93613299 26.943482 44.73584035 49.79548627 45.00415039 75.79174805 C44.10600799 87.31078071 40.87734331 97.98801718 32.00415039 105.79174805 C28.16121979 108.4362835 24.17381098 110.70691775 20.00415039 112.79174805 C19.67415039 122.03174805 19.34415039 131.27174805 19.00415039 140.79174805 C20.32415039 141.12174805 21.64415039 141.45174805 23.00415039 141.79174805 C20.69415039 141.46174805 18.38415039 141.13174805 16.00415039 140.79174805 C16.00415039 131.88174805 16.00415039 122.97174805 16.00415039 113.79174805 C15.01415039 114.28674805 15.01415039 114.28674805 14.00415039 114.79174805 C11.97182405 114.87702433 9.93668033 114.8989094 7.90258789 114.8894043 C6.81123535 114.88690674 5.71988281 114.88440918 4.59545898 114.88183594 C3.20407715 114.87273193 1.81269531 114.86362793 0.37915039 114.85424805 C-4.03459961 114.83362305 -8.44834961 114.81299805 -12.99584961 114.79174805 C-12.99584961 123.70174805 -12.99584961 132.61174805 -12.99584961 141.79174805 C-13.32584961 141.79174805 -13.65584961 141.79174805 -13.99584961 141.79174805 C-14.32584961 132.22174805 -14.65584961 122.65174805 -14.99584961 112.79174805 C-16.97584961 112.46174805 -18.95584961 112.13174805 -20.99584961 111.79174805 C-23.55834961 109.91674805 -23.55834961 109.91674805 -25.99584961 107.79174805 C-26.80022461 107.37924805 -27.60459961 106.96674805 -28.43334961 106.54174805 C-36.71580272 100.88543861 -39.80955539 91.43102845 -41.78881836 82.0222168 C-45.37192164 61.27166184 -35.93933946 41.45847614 -24.35473633 24.66870117 C-20.5625642 19.43078897 -16.29962953 14.60960888 -11.99584961 9.79174805 C-10.66208522 8.22961598 -9.32868495 6.66717286 -7.99584961 5.10424805 C-3.32659614 -0.34710538 -3.32659614 -0.34710538 0 0 Z " fill="#6ECE92" transform="translate(227.995849609375,609.208251953125)"/>
<path d="M0 0 C1.1537915 0.00088623 2.30758301 0.00177246 3.49633789 0.00268555 C11.9204078 0.1198931 21.2303022 0.25819785 28.1015625 5.82421875 C29.3125 7.375 29.3125 7.375 29.75 10.375 C29.3125 13.375 29.3125 13.375 27.70703125 14.92578125 C23.00446912 17.77186697 17.55716843 18.85404616 12.3125 20.375 C12.3125 25.985 12.3125 31.595 12.3125 37.375 C13.4675 37.41625 14.6225 37.4575 15.8125 37.5 C33.29997644 39.4583767 48.08860567 49.45010741 60.3125 61.375 C60.97121094 61.96023437 61.62992188 62.54546875 62.30859375 63.1484375 C77.05940263 76.57065159 83.91909661 97.96688139 85.3125 117.375 C85.39371094 118.45974609 85.39371094 118.45974609 85.4765625 119.56640625 C86.28359496 141.24623272 77.60973161 162.76664202 63.6875 179.0625 C55.66403664 187.5310245 45.70956121 194.14896394 35.3125 199.375 C40.11309625 200.14617944 44.732893 200.51129453 49.59301758 200.54858398 C50.28333069 200.555271 50.9736438 200.56195801 51.68487549 200.56884766 C53.17002993 200.58279902 54.65520457 200.59472372 56.1403904 200.60479546 C58.48972217 200.62132374 60.83890154 200.64455897 63.18815613 200.66969299 C69.86258279 200.74018998 76.53706576 200.80083099 83.21166992 200.85180664 C87.30469012 200.88353273 91.39752344 200.92477152 95.49039268 200.97200203 C97.04892326 200.98803682 98.60749663 201.00035156 100.1660862 201.00890923 C102.33723717 201.02101602 104.50794415 201.04513888 106.67895508 201.07202148 C107.91470779 201.08232895 109.15046051 201.09263641 110.42366028 201.10325623 C113.3125 201.375 113.3125 201.375 115.3125 203.375 C113.58054382 203.37713753 113.58054382 203.37713753 111.81359863 203.37931824 C100.86958116 203.39607294 89.92593149 203.43910342 78.98210907 203.50709057 C73.35732311 203.54121021 67.73280444 203.56644705 62.10791016 203.57055664 C56.66761899 203.57487197 51.22792926 203.60360031 45.78782654 203.64843178 C43.72451801 203.66130414 41.66113713 203.66575141 39.59779358 203.66115379 C28.26410837 203.64180289 18.41033654 204.23978788 7.7166748 208.17793274 C-5.28213329 212.74892233 -20.00482779 212.38906856 -33.4375 210.125 C-34.42810425 209.96124878 -34.42810425 209.96124878 -35.4387207 209.79418945 C-39.40207185 209.05011577 -42.88734752 207.89168507 -46.60766602 206.33398438 C-53.19901854 203.9175767 -59.27340164 203.863681 -66.23046875 203.984375 C-67.48007889 203.99003479 -68.72968903 203.99569458 -70.01716614 204.00152588 C-73.3004238 204.01997786 -76.58285845 204.05575729 -79.86584473 204.1003418 C-83.23142556 204.1416473 -86.59712807 204.15961124 -89.96289062 204.1796875 C-96.53807556 204.22355837 -103.11272066 204.29032208 -109.6875 204.375 C-107.26483381 201.95233381 -106.56521199 202.09163379 -103.23779297 201.96435547 C-102.31698944 201.92446503 -101.39618591 201.88457458 -100.44747925 201.84347534 C-99.45160797 201.81005035 -98.45573669 201.77662537 -97.4296875 201.7421875 C-96.41149933 201.70062531 -95.39331116 201.65906311 -94.3442688 201.61624146 C-91.08395995 201.48521914 -87.82332265 201.36746825 -84.5625 201.25 C-82.35543446 201.16363235 -80.14840242 201.07640385 -77.94140625 200.98828125 C-72.5237871 200.77385428 -67.1058395 200.57032855 -61.6875 200.375 C-62.36151855 199.77461914 -63.03553711 199.17423828 -63.72998047 198.55566406 C-64.62088379 197.75870117 -65.51178711 196.96173828 -66.4296875 196.140625 C-67.75009033 194.96161621 -67.75009033 194.96161621 -69.09716797 193.75878906 C-86.30590696 177.92220777 -94.81421762 157.77307562 -95.97265625 134.7109375 C-96.56124341 115.02666275 -91.37907836 94.9690779 -77.6875 80.375 C-76.58521463 79.16862886 -75.48371554 77.96153901 -74.3828125 76.75390625 C-71.39072619 73.49292329 -68.35731142 70.27425196 -65.30175781 67.07275391 C-63.93641173 65.63678647 -62.5874195 64.18529632 -61.2421875 62.73046875 C-48.25537499 49.04878989 -31.92348387 41.38550098 -13.6875 37.375 C-13.0275 37.375 -12.3675 37.375 -11.6875 37.375 C-11.6875 31.765 -11.6875 26.155 -11.6875 20.375 C-13.75 19.776875 -15.8125 19.17875 -17.9375 18.5625 C-25.54885005 16.35520849 -25.54885005 16.35520849 -28.6875 13.375 C-29.4375 10.5 -29.4375 10.5 -28.6875 7.375 C-20.84752415 -0.02044114 -10.12007601 -0.01382027 0 0 Z M-1.6875 44.375 C-1.6875 47.345 -1.6875 50.315 -1.6875 53.375 C-2.5125 53.34881592 -3.3375 53.32263184 -4.1875 53.2956543 C-25.1971267 52.71677577 -44.70661646 52.45944215 -61.69921875 67.109375 C-76.02634815 82.17700772 -82.25278169 103.59088654 -81.87109375 123.91015625 C-80.65150107 146.92672444 -71.35258463 166.52962762 -54.796875 182.5078125 C-39.18158227 196.33023829 -22.02124979 201.92858526 -1.54394531 201.82104492 C0.94028512 201.81249041 3.42224275 201.84145806 5.90625 201.87304688 C21.17296304 201.94086875 30.03402536 197.59533982 41 186.9375 C44.5526134 183.31112992 47.52007581 179.60867538 50.3125 175.375 C51.6325 175.705 52.9525 176.035 54.3125 176.375 C54.3125 175.385 54.3125 174.395 54.3125 173.375 C55.3025 174.695 56.2925 176.015 57.3125 177.375 C71.52461363 164.32305891 80.67140265 147.14227121 81.59765625 127.6328125 C82.18623233 105.85549771 76.91619796 86.51565943 63.3125 69.375 C62.00524749 68.01608631 60.68096266 66.67225306 59.3125 65.375 C56.17562728 66.05018265 56.17562728 66.05018265 55.0625 68.5625 C53.0790331 71.75021466 50.8709477 73.56725888 47.93359375 75.84765625 C46.13673977 77.54059578 45.28581157 79.12330905 44.3125 81.375 C43.89742188 80.84132812 43.48234375 80.30765625 43.0546875 79.7578125 C32.68625604 67.22025312 17.70775929 57.21972576 1.3125 55.375 C1.3125 51.745 1.3125 48.115 1.3125 44.375 C0.3225 44.375 -0.6675 44.375 -1.6875 44.375 Z " fill="#45445C" transform="translate(231.6875,98.625)"/>
<path d="M0 0 C0.99 0 1.98 0 3 0 C3.33 11.88 3.66 23.76 4 36 C5.65 34.02 7.3 32.04 9 30 C9 33 9 33 7.046875 35.4765625 C3.8994136 39.96460931 4.32517455 45.07861133 4.25 50.375 C4.20552734 51.90833984 4.20552734 51.90833984 4.16015625 53.47265625 C4.08980506 55.98184853 4.03693794 58.49013054 4 61 C5.32 58.69 6.64 56.38 8 54 C8.33 54.66 8.66 55.32 9 56 C8.38125 57.093125 7.7625 58.18625 7.125 59.3125 C4.13495145 64.89048712 4.18938079 70.78831006 4 77 C4.99 75.35 5.98 73.7 7 72 C7.33 72.99 7.66 73.98 8 75 C7.53166748 75.75498779 7.06333496 76.50997559 6.58081055 77.2878418 C4.65826617 80.58630441 4.6531001 82.60137377 4.70703125 86.39453125 C4.71669922 87.59658203 4.72636719 88.79863281 4.73632812 90.03710938 C4.76146484 91.28298828 4.78660156 92.52886719 4.8125 93.8125 C4.82603516 95.07771484 4.83957031 96.34292969 4.85351562 97.64648438 C4.88881682 100.76475643 4.93813181 103.88216042 5 107 C5.99 106.01 6.98 105.02 8 104 C6.66666667 107.33333333 5.33333333 110.66666667 4 114 C-0.29 114 -4.58 114 -9 114 C-9 122.91 -9 131.82 -9 141 C-9.33 141 -9.66 141 -10 141 C-10.33 131.43 -10.66 121.86 -11 112 C-12.98 111.67 -14.96 111.34 -17 111 C-19.5625 109.125 -19.5625 109.125 -22 107 C-22.804375 106.5875 -23.60875 106.175 -24.4375 105.75 C-32.71995311 100.09369056 -35.81370578 90.6392804 -37.79296875 81.23046875 C-41.37607203 60.47991379 -31.94348985 40.6667281 -20.35888672 23.87695312 C-16.5671279 18.63961181 -12.30748051 13.81385608 -8 9 C-6.62390805 7.4176156 -5.24873522 5.83443081 -3.875 4.25 C-1.17241379 1.17241379 -1.17241379 1.17241379 0 0 Z " fill="#69CE8E" transform="translate(224,610)"/>
<path d="M0 0 C23.99090426 4.39725469 48.5953006 4.30321453 72.91027832 4.55401611 C76.70653912 4.59501581 80.50267248 4.64565324 84.29882812 4.6953125 C91.66332193 4.79031396 99.0278812 4.87523943 106.39257812 4.953125 C104.08155402 7.26414911 102.39513448 7.82105077 99.32617188 8.90625 C97.77434204 9.46034546 97.77434204 9.46034546 96.19116211 10.02563477 C94.52742554 10.60849243 94.52742554 10.60849243 92.83007812 11.203125 C90.53825741 12.00867643 88.24659105 12.81466716 85.95507812 13.62109375 C84.83101562 14.01603027 83.70695313 14.4109668 82.54882812 14.81787109 C79.8479869 15.78932156 77.18057786 16.8092756 74.51757812 17.87890625 C64.88735003 21.68595146 56.72793482 22.70428148 46.39257812 21.953125 C46.39257812 20.963125 46.39257812 19.973125 46.39257812 18.953125 C21.64257812 18.623125 -3.10742188 18.293125 -28.60742188 17.953125 C-28.60742188 19.273125 -28.60742188 20.593125 -28.60742188 21.953125 C-42.13742187 21.953125 -55.66742188 21.953125 -69.60742188 21.953125 C-62.93605245 11.94607087 -57.83179676 6.8369865 -47.54492188 1.578125 C-46.87219238 1.23193115 -46.19946289 0.8857373 -45.50634766 0.52905273 C-44.84747559 0.20751221 -44.18860352 -0.11402832 -43.50976562 -0.4453125 C-42.92702881 -0.73067871 -42.34429199 -1.01604492 -41.74389648 -1.31005859 C-28.50819977 -5.8747178 -13.2798971 -2.60895751 0 0 Z " fill="#030303" transform="translate(534.607421875,463.046875)"/>
<path d="M0 0 C5.99260894 3.11747855 9.66453168 8.05018218 13.0625 13.75 C15.3199912 21.71761601 15.07691869 29.2119142 11.25 36.61328125 C8.27229996 41.60713236 4.46165424 45.1388576 0.05859375 48.86328125 C-1.4177304 50.11293745 -2.84585406 51.41975648 -4.25 52.75 C-10.45277213 56.88518142 -17.1599623 58.15819527 -24.4921875 57.06640625 C-31.71075889 55.35051633 -36.88977296 51.79442402 -40.875 45.5 C-43.62008919 39.83372155 -45.07400391 33.74481201 -43.875 27.5 C-39.9483165 16.65699898 -32.78409133 6.04545478 -22.6015625 0.3046875 C-15.8159914 -2.85781849 -6.93321746 -2.71351787 0 0 Z " fill="#CFCCE0" transform="translate(554.875,540.5)"/>
<path d="M0 0 C0.66 0.33 1.32 0.66 2 1 C1.46890625 1.969375 0.9378125 2.93875 0.390625 3.9375 C-7.24306938 18.23263894 -10.31465455 30.62651527 -10.4375 46.8125 C-10.4478125 47.94534424 -10.458125 49.07818848 -10.46875 50.24536133 C-10.39120098 57.60551775 -9.32160018 64.02266155 -7 71 C-6.78110107 71.67748291 -6.56220215 72.35496582 -6.33666992 73.05297852 C-3.01034643 82.86323185 1.68493439 90.82165532 8 99 C8.56460938 99.74894531 9.12921875 100.49789062 9.7109375 101.26953125 C17.72138349 111.17513153 28.41949027 117.04684253 39.7265625 122.37109375 C43 124 43 124 45 126 C40.56319944 126.20572142 36.12764516 126.3284438 31.6875 126.4375 C29.82254883 126.52547852 29.82254883 126.52547852 27.91992188 126.61523438 C17.45053616 126.80758529 11.2305074 123.85065313 3.61987305 116.79272461 C2.3372385 115.5195085 1.0785209 114.22148405 -0.1484375 112.89453125 C-2.00822635 110.89602814 -2.00822635 110.89602814 -4.4765625 109.13671875 C-16.98712405 98.54341044 -21.50027178 79.61652487 -23 64 C-24.36593938 45.01938155 -20.92344901 24.55540214 -8.875 9.25 C-7.61082766 7.80874516 -6.32201326 6.38839049 -5 5 C-4.46632812 4.43539062 -3.93265625 3.87078125 -3.3828125 3.2890625 C-2.28321777 2.16461817 -1.14736597 1.07565559 0 0 Z " fill="#040405" transform="translate(159,174)"/>
<path d="M0 0 C4.15089541 3.15352749 8.03358451 6.54865758 11.8125 10.13671875 C6.39454974 17.87939235 6.39454974 17.87939235 2.5625 20.82421875 C-0.2567122 23.19491992 -1.19096775 24.64885586 -2.1875 28.13671875 C-2.826875 27.47671875 -3.46625 26.81671875 -4.125 26.13671875 C-5.14111531 25.13192506 -6.16266497 24.13261726 -7.1875 23.13671875 C-8.11755859 22.22986328 -8.11755859 22.22986328 -9.06640625 21.3046875 C-19.13974653 11.89919298 -30.18230493 6.22056033 -43.1875 2.13671875 C-44.1775 1.80671875 -45.1675 1.47671875 -46.1875 1.13671875 C-46.1875 -2.49328125 -46.1875 -6.12328125 -46.1875 -9.86328125 C-47.1775 -9.86328125 -48.1675 -9.86328125 -49.1875 -9.86328125 C-49.1875 -6.89328125 -49.1875 -3.92328125 -49.1875 -0.86328125 C-50.425 -0.85711792 -50.425 -0.85711792 -51.6875 -0.85083008 C-75.82807247 -0.84103424 -75.82807247 -0.84103424 -98.46875 6.86328125 C-99.81453125 7.49363281 -99.81453125 7.49363281 -101.1875 8.13671875 C-101.8475 7.80671875 -102.5075 7.47671875 -103.1875 7.13671875 C-75.64431843 -20.23538716 -31.19370743 -21.77752181 0 0 Z " fill="#FAFAFA" transform="translate(279.1875,152.86328125)"/>
<path d="M0 0 C0.66 0 1.32 0 2 0 C1.31726543 4.08621735 -0.80343249 7.3870748 -2.8125 10.9375 C-7.98130919 20.36317878 -11.59873107 30.16573881 -12 41 C-12.03996094 42.05832031 -12.07992187 43.11664063 -12.12109375 44.20703125 C-12.58343796 68.87445495 -4.58041511 89.77460263 12.375 107.6875 C27.85145675 122.53794277 46.11664596 128.55645664 67.08862305 128.44604492 C69.5618741 128.43750216 72.03283313 128.46643879 74.50585938 128.49804688 C83.05328518 128.53381016 90.33023214 128.28314871 98 124 C98 125.32 98 126.64 98 128 C97.01 128.33 96.02 128.66 95 129 C139.055 129.495 139.055 129.495 184 130 C184 130.33 184 130.66 184 131 C182.26804382 131.00213753 182.26804382 131.00213753 180.50109863 131.00431824 C169.55708116 131.02107294 158.61343149 131.06410342 147.66960907 131.13209057 C142.04482311 131.16621021 136.42030444 131.19144705 130.79541016 131.19555664 C125.35511899 131.19987197 119.91542926 131.22860031 114.47532654 131.27343178 C112.41201801 131.28630414 110.34863713 131.29075141 108.28529358 131.28615379 C96.95160837 131.26680289 87.09783654 131.86478788 76.4041748 135.80293274 C63.40536671 140.37392233 48.68267221 140.01406856 35.25 137.75 C34.25939575 137.58624878 34.25939575 137.58624878 33.2487793 137.41918945 C29.28542815 136.67511577 25.80015248 135.51668507 22.07983398 133.95898438 C15.48848146 131.5425767 9.41409836 131.488681 2.45703125 131.609375 C1.20742111 131.61503479 -0.04218903 131.62069458 -1.32966614 131.62652588 C-4.6129238 131.64497786 -7.89535845 131.68075729 -11.17834473 131.7253418 C-14.54392556 131.7666473 -17.90962807 131.78461124 -21.27539062 131.8046875 C-27.85057556 131.84855837 -34.42522066 131.91532208 -41 132 C-38.57733381 129.57733381 -37.87771199 129.71663379 -34.55029297 129.58935547 C-33.62948944 129.54946503 -32.70868591 129.50957458 -31.75997925 129.46847534 C-30.76410797 129.43505035 -29.76823669 129.40162537 -28.7421875 129.3671875 C-27.72399933 129.32562531 -26.70581116 129.28406311 -25.6567688 129.24124146 C-22.39645995 129.11021914 -19.13582265 128.99246825 -15.875 128.875 C-13.66793446 128.78863235 -11.46090242 128.70140385 -9.25390625 128.61328125 C-3.8362871 128.39885428 1.5816605 128.19532855 7 128 C6.32453125 127.39671875 5.6490625 126.7934375 4.953125 126.171875 C4.06109375 125.37265625 3.1690625 124.5734375 2.25 123.75 C0.92742187 122.56664062 0.92742187 122.56664062 -0.421875 121.359375 C-2.67866165 119.29407328 -4.85739926 117.18264936 -7 115 C-6.67 114.34 -6.34 113.68 -6 113 C-5.46632812 113.58007812 -4.93265625 114.16015625 -4.3828125 114.7578125 C-3.63773438 115.53898437 -2.89265625 116.32015625 -2.125 117.125 C-1.40570313 117.89070313 -0.68640625 118.65640625 0.0546875 119.4453125 C8.71579717 126.95773388 15.17888543 128.87265716 26.625 128.375 C27.81996094 128.34792969 29.01492187 128.32085937 30.24609375 128.29296875 C33.16600152 128.22289096 36.08200169 128.12470078 39 128 C37.94941406 127.50371094 36.89882812 127.00742187 35.81640625 126.49609375 C27.85992436 122.67239362 20.69092757 118.83935497 14 113 C13.35160156 112.505 12.70320313 112.01 12.03515625 111.5 C-2.17511842 100.24433689 -12.17543567 80.71640264 -15 63 C-16.6905884 40.41043127 -14.02722857 20.68698684 -1.37890625 1.546875 C-0.92386719 1.03640625 -0.46882813 0.5259375 0 0 Z " fill="#38364C" transform="translate(163,171)"/>
<path d="M0 0 C17.78698095 4.52838683 30.99655053 10.97681843 44 24 C44.65355469 24.58265625 45.30710937 25.1653125 45.98046875 25.765625 C60.75433887 39.15338831 67.60770829 60.60736542 69 80 C69.08121094 81.08474609 69.08121094 81.08474609 69.1640625 82.19140625 C69.97109496 103.87123272 61.29723161 125.39164202 47.375 141.6875 C39.35153664 150.1560245 29.39706121 156.77396394 19 162 C23.80668116 162.76952694 28.44647716 163.14460845 33.31225586 163.20532227 C34.00578156 163.21522186 34.69930725 163.22512146 35.41384888 163.23532104 C37.68081377 163.26662773 39.94779954 163.29156992 42.21484375 163.31640625 C43.79668182 163.3370025 45.37851473 163.35799963 46.96034241 163.37937927 C51.10470363 163.43432437 55.24911223 163.48385408 59.39355469 163.53222656 C63.63025075 163.58264406 67.8668788 163.63822397 72.10351562 163.69335938 C80.40228609 163.80060334 88.70111381 163.90212191 97 164 C97 164.33 97 164.66 97 165 C67.3 165 37.6 165 7 165 C10 163 10 163 13 163 C13.06960938 162.26394531 13.13921875 161.52789062 13.2109375 160.76953125 C14.22930172 157.19517368 15.77935183 156.03881351 18.625 153.6875 C24.50016871 148.64443673 29.40318723 143.21598862 34 137 C35.32 137.33 36.64 137.66 38 138 C37.34 136.35 36.68 134.7 36 133 C39.875 135.625 39.875 135.625 41 139 C54.08398483 127.13945272 62.85738265 110.49322887 64.16845703 92.71582031 C65.24963684 69.94318783 60.00392723 50.04629798 46 32 C45.37351562 31.17757812 44.74703125 30.35515625 44.1015625 29.5078125 C33.38977055 16.44575397 17.90075214 9.46118281 2 5 C2.66 4.67 3.32 4.34 4 4 C4 3.34 4 2.68 4 2 C2.68 2 1.36 2 0 2 C0 1.34 0 0.68 0 0 Z " fill="#757385" transform="translate(248,136)"/>
<path d="M0 0 C1 3 1 3 -0.265625 5.93359375 C-0.9104342 7.11083596 -1.57324231 8.27832911 -2.25 9.4375 C-2.61206543 10.05786133 -2.97413086 10.67822266 -3.34716797 11.31738281 C-12.28212055 26.04483095 -25.72503784 36.32210897 -41 44 C-36.19331884 44.76952694 -31.55352284 45.14460845 -26.68774414 45.20532227 C-25.99421844 45.21522186 -25.30069275 45.22512146 -24.58615112 45.23532104 C-22.31918623 45.26662773 -20.05220046 45.29156992 -17.78515625 45.31640625 C-16.20331818 45.3370025 -14.62148527 45.35799963 -13.03965759 45.37937927 C-8.89529637 45.43432437 -4.75088777 45.48385408 -0.60644531 45.53222656 C3.63025075 45.58264406 7.8668788 45.63822397 12.10351562 45.69335938 C20.40228609 45.80060334 28.70111381 45.90212191 37 46 C37 46.33 37 46.66 37 47 C7.3 47 -22.4 47 -53 47 C-50 45 -50 45 -47 45 C-46.93039062 44.26394531 -46.86078125 43.52789062 -46.7890625 42.76953125 C-45.77069828 39.19517368 -44.22064817 38.03881351 -41.375 35.6875 C-35.49983129 30.64443673 -30.59681277 25.21598862 -26 19 C-24.68 19.33 -23.36 19.66 -22 20 C-22.66 18.35 -23.32 16.7 -24 15 C-20.125 17.625 -20.125 17.625 -19 21 C-15.04479788 17.22145704 -11.23259825 13.56764737 -8.1875 9 C-7.465625 8.01 -6.74375 7.02 -6 6 C-5.01 6 -4.02 6 -3 6 C-2.01 4.02 -1.02 2.04 0 0 Z " fill="#828191" transform="translate(308,254)"/>
<path d="M0 0 C6.99784682 3.96544653 11.03517421 8.9281514 13.2109375 16.6875 C14.75673656 23.98569882 13.49275819 28.2092609 10.171875 34.73828125 C8.59419978 37.07573164 7.02715816 38.3927257 4.6875 39.9375 C4.77451172 38.2359375 4.77451172 38.2359375 4.86328125 36.5 C5.52444793 25.83365418 5.52444793 25.83365418 1.171875 16.44140625 C0.68203125 15.94511719 0.1921875 15.44882812 -0.3125 14.9375 C-0.78171875 14.45152344 -1.2509375 13.96554687 -1.734375 13.46484375 C-7.74685739 7.92107639 -13.78967992 6.49191311 -21.7109375 6.69921875 C-24.79885311 6.98204586 -27.46769884 7.70731571 -30.3125 8.9375 C-28.86616256 5.33338346 -27.12113332 3.82347432 -23.875 1.75 C-23.09253906 1.24082031 -22.31007813 0.73164062 -21.50390625 0.20703125 C-14.84262724 -3.65199848 -6.83874066 -3.16032712 0 0 Z " fill="#46445C" transform="translate(554.3125,542.0625)"/>
<path d="M0 0 C2.31 0 4.62 0 7 0 C7.02505615 1.2367749 7.0501123 2.4735498 7.07592773 3.74780273 C7.16982253 8.31936713 7.27008629 12.89077318 7.37231445 17.4621582 C7.41573144 19.44389146 7.45740137 21.42566378 7.49731445 23.4074707 C7.55485383 26.2496317 7.61859445 29.09159483 7.68359375 31.93359375 C7.70030624 32.82525742 7.71701874 33.71692108 7.73423767 34.63560486 C7.436587 38.63948395 7.436587 38.63948395 9 42 C9.04063832 43.66617115 9.042721 45.33388095 9 47 C8.01 47.495 8.01 47.495 7 48 C6.34 46.35 5.68 44.7 5 43 C3.02 43 1.04 43 -1 43 C-0.67 28.81 -0.34 14.62 0 0 Z " fill="#3D3B54" transform="translate(228,174)"/>
<path d="M0 0 C5.34871091 -0.02518408 10.69738547 -0.04308238 16.04614258 -0.05493164 C17.85637006 -0.05988416 19.66659373 -0.06664799 21.47680664 -0.07543945 C34.02139304 -0.13472718 46.47993852 0.20523191 59 1 C58 3 58 3 55.55859375 3.81640625 C41.53829371 7.1679423 28.19451455 8.13235948 13.9375 5.6875 C13.23568604 5.56987305 12.53387207 5.45224609 11.81079102 5.33105469 C7.45297582 4.51275441 3.86737799 3.15390631 0 1 C0 0.67 0 0.34 0 0 Z " fill="#080808" transform="translate(184,303)"/>
<path d="M0 0 C0.33 0 0.66 0 1 0 C1.33 11.22 1.66 22.44 2 34 C3.65 32.35 5.3 30.7 7 29 C6.05563763 31.61515733 5.23661967 33.71601178 3.44628906 35.86474609 C1.70215336 38.43973105 1.63783723 39.83247042 1.671875 42.9140625 C1.67703125 43.83960938 1.6821875 44.76515625 1.6875 45.71875 C1.708125 46.6778125 1.72875 47.636875 1.75 48.625 C1.75515625 49.59179688 1.7603125 50.55859375 1.765625 51.5546875 C1.63867976 56.43813581 1.63867976 56.43813581 3 61 C2.67 61.66 2.34 62.32 2 63 C1.92934383 65.04055005 1.91578024 67.08334257 1.9375 69.125 C1.95103516 70.76855469 1.95103516 70.76855469 1.96484375 72.4453125 C1.97644531 73.28835938 1.98804688 74.13140625 2 75 C3.32 72.69 4.64 70.38 6 68 C6.33 68.66 6.66 69.32 7 70 C6.36578125 71.0828125 5.7315625 72.165625 5.078125 73.28125 C2.01145677 79.11900398 2.56600954 85.06033379 2.75 91.5 C2.77707031 93.30597656 2.77707031 93.30597656 2.8046875 95.1484375 C2.85153446 98.09979605 2.91711995 101.04947036 3 104 C4.32 102.68 5.64 101.36 7 100 C5.41037341 104.03520597 3.71767682 108.01811282 2 112 C1.01 112 0.02 112 -1 112 C-1.1429338 106.78557719 -1.28533657 101.57114024 -1.42724609 96.35668945 C-1.47560241 94.58259692 -1.52410412 92.80850834 -1.57275391 91.03442383 C-1.64263475 88.48519906 -1.71199361 85.93596055 -1.78125 83.38671875 C-1.80312378 82.59287277 -1.82499756 81.79902679 -1.84753418 80.98112488 C-1.92849896 77.98634439 -2 74.99603534 -2 72 C-1.67 72.33 -1.34 72.66 -1 73 C0.41236551 54.41630979 0.41236551 54.41630979 -7.34765625 38.1953125 C-7.89292969 37.47085938 -8.43820312 36.74640625 -9 36 C-8.67 35.34 -8.34 34.68 -8 34 C-5.69 37.3 -3.38 40.6 -1 44 C-0.67 29.48 -0.34 14.96 0 0 Z " fill="#40705E" transform="translate(874,612)"/>
<path d="M0 0 C3.08089673 2.77280706 4.68775452 5.06326356 6 9 C6.66 9 7.32 9 8 9 C8.33 13.29 8.66 17.58 9 22 C10.32 19.69 11.64 17.38 13 15 C13.33 15.66 13.66 16.32 14 17 C13.38125 18.093125 12.7625 19.18625 12.125 20.3125 C9.13495145 25.89048712 9.18938079 31.78831006 9 38 C9.99 36.35 10.98 34.7 12 33 C12.33 33.99 12.66 34.98 13 36 C12.29750122 37.13248169 12.29750122 37.13248169 11.58081055 38.2878418 C9.65826617 41.58630441 9.6531001 43.60137377 9.70703125 47.39453125 C9.7215332 49.19760742 9.7215332 49.19760742 9.73632812 51.03710938 C9.76146484 52.28298828 9.78660156 53.52886719 9.8125 54.8125 C9.82603516 56.07771484 9.83957031 57.34292969 9.85351562 58.64648438 C9.88881682 61.76475643 9.93813181 64.88216042 10 68 C10.99 67.01 11.98 66.02 13 65 C11.66666667 68.33333333 10.33333333 71.66666667 9 75 C8.01 75 7.02 75 6 75 C5.67 62.13 5.34 49.26 5 36 C5.33 36 5.66 36 6 36 C6.17656013 32.20893717 6.28159677 28.41895045 6.375 24.625 C6.42527344 23.56410156 6.47554687 22.50320313 6.52734375 21.41015625 C6.6597293 14.21720798 5.43905966 9.85512195 1.29931641 3.93896484 C0 2 0 2 0 0 Z " fill="#417460" transform="translate(219,649)"/>
<path d="M0 0 C0.33 0 0.66 0 1 0 C1.33 9.24 1.66 18.48 2 28 C11.57 28.33 21.14 28.66 31 29 C31.33 23.06 31.66 17.12 32 11 C32.66 11 33.32 11 34 11 C35.23107198 16.69370789 35.07070544 22.20215428 35 28 C41.27 28.33 47.54 28.66 54 29 C50.71542381 31.18971746 49.7824019 31.24583902 45.9777832 31.22705078 C44.95695145 31.22689972 43.93611969 31.22674866 42.88435364 31.22659302 C41.78427475 31.21627045 40.68419586 31.20594788 39.55078125 31.1953125 C37.85915108 31.19106766 37.85915108 31.19106766 36.13334656 31.18673706 C32.52629042 31.17552916 28.91948127 31.15042323 25.3125 31.125 C22.86914421 31.114971 20.42578453 31.10584501 17.98242188 31.09765625 C11.9881092 31.07728822 5.99433155 31.03813997 0 31 C0 20.77 0 10.54 0 0 Z " fill="#605E75" transform="translate(860,722)"/>
<path d="M0 0 C-2.60410955 3.90616433 -4.11032031 3.71327965 -8.625 4.6875 C-21.14727064 7.70711952 -33.90327788 13.68460667 -43 23 C-43 23.66 -43 24.32 -43 25 C-44.44226615 25.93915005 -45.88721442 26.87452782 -47.34765625 27.78515625 C-49.12274204 29.09024297 -50.28453823 30.44615246 -51.625 32.1875 C-54 35 -54 35 -56.125 35.875 C-57.7469338 35.98312892 -59.3744659 36 -61 36 C-17.92716934 -8.96358467 -17.92716934 -8.96358467 0 0 Z " fill="#646275" transform="translate(220,137)"/>
<path d="M0 0 C0 4.7310982 -3.05543571 6.88387298 -6.1796875 10.23828125 C-14.16397964 18.05669474 -23.41589745 25.13374105 -34 29 C-34.66 28.67 -35.32 28.34 -36 28 C-35.23816406 27.33355469 -34.47632813 26.66710937 -33.69140625 25.98046875 C-26.71957063 19.78894417 -20.68521126 13.42235915 -15 6 C-13.68 6.33 -12.36 6.66 -11 7 C-11.66 5.35 -12.32 3.7 -13 2 C-9.125 4.625 -9.125 4.625 -8 8 C-5.36 5.36 -2.72 2.72 0 0 Z " fill="#F2F2F3" transform="translate(297,267)"/>
<path d="M0 0 C0.99 0.33 1.98 0.66 3 1 C5.10145765 17.2862968 3.4718066 32.78961189 -3 48 C-3.66 48 -4.32 48 -5 48 C-5.268125 48.969375 -5.53625 49.93875 -5.8125 50.9375 C-6.204375 51.948125 -6.59625 52.95875 -7 54 C-8.485 54.495 -8.485 54.495 -10 55 C-9.37699644 51.1789115 -8.2204106 48.01957248 -6.625 44.5 C-0.52250808 29.87871156 -0.3314223 15.66473906 0 0 Z " fill="#757385" transform="translate(313,206)"/>
<path d="M0 0 C1.4540625 1.2684375 1.4540625 1.2684375 2.9375 2.5625 C4.28950173 3.71088701 5.6438423 4.85652386 7 6 C7.69867188 6.59941406 8.39734375 7.19882812 9.1171875 7.81640625 C14.388301 12.1589784 19.53278343 14.82625915 26 17 C26 17.66 26 18.32 26 19 C6.2 19 -13.6 19 -34 19 C-31.57733381 16.57733381 -30.87771199 16.71663379 -27.55029297 16.58935547 C-26.62948944 16.54946503 -25.70868591 16.50957458 -24.75997925 16.46847534 C-23.76410797 16.43505035 -22.76823669 16.40162537 -21.7421875 16.3671875 C-20.72399933 16.32562531 -19.70581116 16.28406311 -18.6567688 16.24124146 C-15.39645995 16.11021914 -12.13582265 15.99246825 -8.875 15.875 C-6.66793446 15.78863235 -4.46090242 15.70140385 -2.25390625 15.61328125 C3.1637129 15.39885428 8.5816605 15.19532855 14 15 C13.32453125 14.39671875 12.6490625 13.7934375 11.953125 13.171875 C11.06109375 12.37265625 10.1690625 11.5734375 9.25 10.75 C8.36828125 9.96109375 7.4865625 9.1721875 6.578125 8.359375 C1.90343075 4.08132147 1.90343075 4.08132147 0 2 C0 1.34 0 0.68 0 0 Z " fill="#555468" transform="translate(156,284)"/>
<path d="M0 0 C5.77786614 4.02870745 10.07874211 9.61362106 12 16.39453125 C12.86894212 24.14983969 12.25365218 30.73545914 8 37.39453125 C6.43123752 39.28771203 4.87229559 40.78227671 3 42.39453125 C2.34 41.73453125 1.68 41.07453125 1 40.39453125 C1.7425 39.92015625 2.485 39.44578125 3.25 38.95703125 C7.7009018 34.80960003 10.16774445 29.5253392 10.4375 23.39453125 C10.0563631 17.01684053 8.06190526 10.48344791 3.62890625 5.74609375 C-2.37462593 0.76474571 -8.61186963 -1.40196211 -16.38671875 -1.0390625 C-20.43260295 -0.3677723 -23.5368486 1.28116046 -27 3.39453125 C-27.70769531 3.71421875 -28.41539062 4.03390625 -29.14453125 4.36328125 C-31.76270597 5.8184352 -32.12358585 7.61921977 -33 10.39453125 C-33.33 9.07453125 -33.66 7.75453125 -34 6.39453125 C-24.38110831 -2.63962539 -12.532991 -6.51991995 0 0 Z " fill="#C9C6DB" transform="translate(557,541.60546875)"/>
<path d="M0 0 C0.33 1.32 0.66 2.64 1 4 C0.01 4.33 -0.98 4.66 -2 5 C42.055 5.495 42.055 5.495 87 6 C87 6.33 87 6.66 87 7 C54 7 21 7 -13 7 C-11.53073487 4.06146974 -9.55564859 3.97311286 -6.5 2.9375 C-2.9728355 1.94590766 -2.9728355 1.94590766 0 0 Z " fill="#413F57" transform="translate(260,295)"/>
<path d="M0 0 C0.33 0 0.66 0 1 0 C1.33 11.22 1.66 22.44 2 34 C3.65 32.35 5.3 30.7 7 29 C6.05563763 31.61515733 5.23661967 33.71601178 3.44628906 35.86474609 C1.70215336 38.43973105 1.63783723 39.83247042 1.671875 42.9140625 C1.67703125 43.83960938 1.6821875 44.76515625 1.6875 45.71875 C1.708125 46.6778125 1.72875 47.636875 1.75 48.625 C1.75515625 49.59179688 1.7603125 50.55859375 1.765625 51.5546875 C1.63867976 56.43813581 1.63867976 56.43813581 3 61 C2.67 61.66 2.34 62.32 2 63 C1.77141886 65.0374763 1.58975722 67.08040303 1.4375 69.125 C1.35371094 70.22070312 1.26992188 71.31640625 1.18359375 72.4453125 C1.12300781 73.28835938 1.06242188 74.13140625 1 75 C0.01 75 -0.98 75 -2 75 C-2 74.01 -2 73.02 -2 72 C-1.67 72.33 -1.34 72.66 -1 73 C0.41236551 54.41630979 0.41236551 54.41630979 -7.34765625 38.1953125 C-7.89292969 37.47085938 -8.43820312 36.74640625 -9 36 C-8.67 35.34 -8.34 34.68 -8 34 C-5.69 37.3 -3.38 40.6 -1 44 C-0.67 29.48 -0.34 14.96 0 0 Z " fill="#41545B" transform="translate(874,612)"/>
<path d="M0 0 C0.66 0.33 1.32 0.66 2 1 C2 10.57 2 20.14 2 30 C6.95 30 11.9 30 17 30 C16.67 30.66 16.34 31.32 16 32 C10.72 32 5.44 32 0 32 C-0.79874875 28.00625624 -1.1285331 24.8685625 -1.1328125 20.859375 C-1.13410156 19.70695313 -1.13539063 18.55453125 -1.13671875 17.3671875 C-1.13285156 16.17351563 -1.12898437 14.97984375 -1.125 13.75 C-1.12886719 12.54085937 -1.13273438 11.33171875 -1.13671875 10.0859375 C-1.13542969 8.93867187 -1.13414062 7.79140625 -1.1328125 6.609375 C-1.13168457 5.55717773 -1.13055664 4.50498047 -1.12939453 3.42089844 C-1 1 -1 1 0 0 Z " fill="#52515A" transform="translate(212,721)"/>
<path d="M0 0 C8.05547696 0.69387997 16.08513746 0.80829948 24.16333008 0.89868164 C25.73659229 0.91931234 27.30984973 0.94031011 28.88310242 0.96165466 C32.97805862 1.01624516 37.07305944 1.06592602 41.16809082 1.11450195 C45.3651109 1.16518418 49.56206803 1.22062364 53.7590332 1.27563477 C61.96015149 1.38244263 70.16132325 1.48405166 78.36254883 1.58227539 C78.36254883 1.91227539 78.36254883 2.24227539 78.36254883 2.58227539 C48.66254883 2.58227539 18.96254883 2.58227539 -11.63745117 2.58227539 C-7.36254191 -0.26766412 -4.98060282 -0.49583053 0 0 Z " fill="#838392" transform="translate(266.637451171875,298.417724609375)"/>
<path d="M0 0 C10.86688592 2.82408892 20.35675398 6.18051066 30 12 C29.01 12.495 29.01 12.495 28 13 C27.34 12.67 26.68 12.34 26 12 C25.67 12.66 25.34 13.32 25 14 C24.42894531 13.68546875 23.85789062 13.3709375 23.26953125 13.046875 C16.41069566 9.4266311 9.45562622 7.09178228 2 5 C2.66 4.67 3.32 4.34 4 4 C4 3.34 4 2.68 4 2 C2.68 2 1.36 2 0 2 C0 1.34 0 0.68 0 0 Z " fill="#8C8B9A" transform="translate(248,136)"/>
<path d="M0 0 C0.66 0 1.32 0 2 0 C3.23107198 5.69370789 3.07070544 11.20215428 3 17 C9.27 17.33 15.54 17.66 22 18 C18.69711664 20.20192224 17.72537273 20.23959968 13.89453125 20.1953125 C12.91162109 20.18886719 11.92871094 20.18242188 10.91601562 20.17578125 C9.89185547 20.15902344 8.86769531 20.14226563 7.8125 20.125 C6.77673828 20.11597656 5.74097656 20.10695313 4.67382812 20.09765625 C2.11565315 20.0740786 -0.44205748 20.0411703 -3 20 C-2.01 19.67 -1.02 19.34 0 19 C0 12.73 0 6.46 0 0 Z " fill="#6C6B7C" transform="translate(892,733)"/>
<path d="M0 0 C1.25 2.0625 1.25 2.0625 2 4 C2.66 3.01 3.32 2.02 4 1 C3.64005447 3.6635969 3.28838998 5.58183452 1.75 7.8125 C-0.6685327 9.45364719 -2.13550877 9.42967368 -5 9 C-6.8125 7.875 -6.8125 7.875 -8 6 C-8.1875 2.8125 -8.1875 2.8125 -8 0 C-4.99135897 -0.96706319 -2.94639752 -1.27677226 0 0 Z " fill="#3A384F" transform="translate(234,217)"/>
<path d="M0 0 C3.12422563 4.16563418 3.38704945 4.97233826 3.51171875 9.859375 C3.54716797 10.97441406 3.58261719 12.08945312 3.61914062 13.23828125 C3.64169922 14.39714844 3.66425781 15.55601562 3.6875 16.75 C3.72166016 17.92433594 3.75582031 19.09867188 3.79101562 20.30859375 C3.87345173 23.20563389 3.94261811 26.10237298 4 29 C4.99 28.01 5.98 27.02 7 26 C5.66666667 29.33333333 4.33333333 32.66666667 3 36 C2.01 36 1.02 36 0 36 C0 24.12 0 12.24 0 0 Z " fill="#407B60" transform="translate(225,688)"/>
<path d="M0 0 C1.20628008 2.33214148 2.1654738 4.49642139 3 7 C6.48243093 8.74121546 10.50306686 8.4062356 14.34765625 8.62109375 C15.22292969 8.74613281 16.09820312 8.87117187 17 9 C17.33 9.66 17.66 10.32 18 11 C13.38 11.33 8.76 11.66 4 12 C3.93941406 13.38574219 3.87882812 14.77148438 3.81640625 16.19921875 C3.73197073 18.02865507 3.64732424 19.85808166 3.5625 21.6875 C3.50352539 23.05551758 3.50352539 23.05551758 3.44335938 24.45117188 C3.40146484 25.33740234 3.35957031 26.22363281 3.31640625 27.13671875 C3.27974854 27.94842529 3.24309082 28.76013184 3.20532227 29.59643555 C2.98962569 32.12144485 2.54100548 34.52600697 2 37 C1.67 37 1.34 37 1 37 C1.00523682 36.29391602 1.01047363 35.58783203 1.01586914 34.86035156 C1.03667413 31.65691012 1.04967141 28.4534829 1.0625 25.25 C1.07087891 24.13882813 1.07925781 23.02765625 1.08789062 21.8828125 C1.09111328 20.81289062 1.09433594 19.74296875 1.09765625 18.640625 C1.10289307 17.65610352 1.10812988 16.67158203 1.11352539 15.65722656 C1.01109114 13.25960434 0.64004052 11.29764545 0 9 C-0.06548492 7.41788427 -0.08578381 5.83329919 -0.0625 4.25 C-0.05347656 3.45078125 -0.04445313 2.6515625 -0.03515625 1.828125 C-0.02355469 1.22484375 -0.01195312 0.6215625 0 0 Z " fill="#9D9CA6" transform="translate(292,210)"/>
<path d="M0 0 C8.09865028 1.2324033 13.85832366 6.99777754 18.796875 13.2890625 C19.19390625 13.85367188 19.5909375 14.41828125 20 15 C19.34 15 18.68 15 18 15 C17.67 15.66 17.34 16.32 17 17 C16.4225 16.195625 15.845 15.39125 15.25 14.5625 C11.68504155 10.20763822 7.00269074 7.1828494 2.44921875 3.953125 C1.23685547 2.98632812 1.23685547 2.98632812 0 2 C0 1.34 0 0.68 0 0 Z " fill="#898897" transform="translate(274,148)"/>
<path d="M0 0 C0.99 0.33 1.98 0.66 3 1 C2.44470416 4.53715843 1.39534373 5.81139483 -1.4375 7.9375 C-4.43411001 10.35075355 -5.98875774 12.17975146 -7 16 C-8.32 15.01 -9.64 14.02 -11 13 C-9.46356148 9.31930113 -7.21849055 7.01224796 -4.375 4.25 C-3.55773437 3.45078125 -2.74046875 2.6515625 -1.8984375 1.828125 C-0.95871094 0.92320312 -0.95871094 0.92320312 0 0 Z " fill="#8A8997" transform="translate(284,165)"/>
<path d="M0 0 C0.33 0 0.66 0 1 0 C1.33 11.22 1.66 22.44 2 34 C3.65 32.35 5.3 30.7 7 29 C6.05916753 31.60538222 5.29612862 33.66833595 3.4375 35.75 C1.21809807 39.2238465 1.25084684 42.95185104 1 47 C0.67 47 0.34 47 0 47 C0 31.49 0 15.98 0 0 Z " fill="#359D5C" transform="translate(874,612)"/>
<path d="M0 0 C0.33 0 0.66 0 1 0 C1.33 3.63 1.66 7.26 2 11 C2.99 9.35 3.98 7.7 5 6 C5.33 6.99 5.66 7.98 6 9 C5.37609375 9.95003906 4.7521875 10.90007813 4.109375 11.87890625 C0.88852233 17.14674661 1.32512484 22.9309275 1.25 28.9375 C1.20552734 30.67870117 1.20552734 30.67870117 1.16015625 32.45507812 C1.08982599 35.3034538 1.03694586 38.15102837 1 41 C0.67 41 0.34 41 0 41 C-0.14307911 36.92490906 -0.28547705 32.84979494 -0.42724609 28.7746582 C-0.4755617 27.38858396 -0.52406285 26.00251618 -0.57275391 24.61645508 C-0.64274186 22.62322675 -0.71200543 20.62997304 -0.78125 18.63671875 C-0.82314453 17.43748779 -0.86503906 16.23825684 -0.90820312 15.00268555 C-1.01934254 11.36730331 -0.91834912 7.92076117 -0.5 4.3125 C-0.4071875 3.50425781 -0.314375 2.69601562 -0.21875 1.86328125 C-0.1465625 1.24839844 -0.074375 0.63351562 0 0 Z " fill="#404357" transform="translate(226,676)"/>
<path d="M0 0 C-2.67593529 4.01390293 -5.67077556 4.19895451 -10.125 5.1875 C-11.25615234 5.45336914 -11.25615234 5.45336914 -12.41015625 5.72460938 C-14.27097967 6.16037182 -16.13519867 6.58158786 -18 7 C-18 6.34 -18 5.68 -18 5 C-18.66 4.67 -19.32 4.34 -20 4 C-17.75023648 3.35334337 -15.50018033 2.70770477 -13.25 2.0625 C-11.99703125 1.70285156 -10.7440625 1.34320313 -9.453125 0.97265625 C-8.31359375 0.65167969 -7.1740625 0.33070313 -6 0 C-5.23171875 -0.22816406 -4.4634375 -0.45632812 -3.671875 -0.69140625 C-2 -1 -2 -1 0 0 Z " fill="#67657A" transform="translate(220,137)"/>
<path d="M0 0 C0.99 0 1.98 0 3 0 C3 5.61 3 11.22 3 17 C2.01 17 1.02 17 0 17 C0 11.39 0 5.78 0 0 Z " fill="#313044" transform="translate(230,280)"/>
<path d="M0 0 C1 3 1 3 -0.51171875 6.25 C-1.22628403 7.50614455 -1.95204442 8.75597116 -2.6875 10 C-3.21633789 10.94359375 -3.21633789 10.94359375 -3.75585938 11.90625 C-5.7576816 15.36094868 -7.57544163 17.89733662 -11 20 C-10.71125 19.443125 -10.4225 18.88625 -10.125 18.3125 C-8.9586747 15.91505355 -7.9660119 13.48403061 -7 11 C-7.99 11.66 -8.98 12.32 -10 13 C-8.71480435 10.13302508 -7.42870746 8.02392288 -5 6 C-4.34 6 -3.68 6 -3 6 C-2.01 4.02 -1.02 2.04 0 0 Z " fill="#C5C5CD" transform="translate(308,254)"/>
<path d="M0 0 C0.99 0.33 1.98 0.66 3 1 C-0.50074982 5.17443363 -3.97950843 9.3145494 -8 13 C-8.66 13 -9.32 13 -10 13 C-9.48223379 8.89552608 -7.35372556 7.04300477 -4.4375 4.25 C-3.61121094 3.45078125 -2.78492188 2.6515625 -1.93359375 1.828125 C-1.29550781 1.22484375 -0.65742188 0.6215625 0 0 Z " fill="#343247" transform="translate(187,262)"/>
<path d="M0 0 C0.33 0 0.66 0 1 0 C1.33 2.31 1.66 4.62 2 7 C3.65 5.35 5.3 3.7 7 2 C5.41037341 6.03520597 3.71767682 10.01811282 2 14 C1.01 14 0.02 14 -1 14 C-1.02685938 11.85423363 -1.04633088 9.70837355 -1.0625 7.5625 C-1.07410156 6.36753906 -1.08570313 5.17257812 -1.09765625 3.94140625 C-1 1 -1 1 0 0 Z " fill="#42555C" transform="translate(874,710)"/>
<path d="M0 0 C0.66 0 1.32 0 2 0 C2.33 1.98 2.66 3.96 3 6 C3.66 6 4.32 6 5 6 C5.33 8.64 5.66 11.28 6 14 C5.34 14 4.68 14 4 14 C4 15.65 4 17.3 4 19 C3.67 19 3.34 19 3 19 C2.49521515 16.58424393 1.99602358 14.16755639 1.5 11.75 C1.35691406 11.06808594 1.21382813 10.38617188 1.06640625 9.68359375 C0.38748951 6.35366879 0 3.41667449 0 0 Z " fill="#636175" transform="translate(309,192)"/>
<path d="M0 0 C2.125 0.375 2.125 0.375 4 1 C4.38218767 2.65614657 4.71395102 4.32457024 5 6 C4 7 4 7 1.4375 7.0625 C0.2309375 7.0315625 0.2309375 7.0315625 -1 7 C-1.625 4.625 -1.625 4.625 -2 2 C-1.34 1.34 -0.68 0.68 0 0 Z " fill="#050507" transform="translate(230,216)"/>
<path d="M0 0 C0.969375 0.845625 1.93875 1.69125 2.9375 2.5625 C6.51904245 5.64072997 10.22594527 8.52847237 13.984375 11.38671875 C15.7900344 12.83194614 17.40475187 14.32902807 19 16 C14.40335451 15.51484422 12.25855779 13.82376941 8.9375 10.6875 C8.10089844 9.90761719 7.26429688 9.12773437 6.40234375 8.32421875 C5.60957031 7.55722656 4.81679687 6.79023438 4 6 C2.85724609 4.92685547 2.85724609 4.92685547 1.69140625 3.83203125 C0 2 0 2 0 0 Z " fill="#E0E0E0" transform="translate(156,284)"/>
<path d="M0 0 C5.70709064 0.46588495 9.15939723 1.93757784 14 5 C13.01 5.495 13.01 5.495 12 6 C11.34 5.67 10.68 5.34 10 5 C9.67 5.66 9.34 6.32 9 7 C6.03 5.35 3.06 3.7 0 2 C0 1.34 0 0.68 0 0 Z " fill="#6B697C" transform="translate(264,143)"/>
<path d="M0 0 C0.99 0 1.98 0 3 0 C3.02725341 1.7290774 3.04650987 3.45828176 3.0625 5.1875 C3.07410156 6.15042969 3.08570313 7.11335937 3.09765625 8.10546875 C3.00486622 10.85576513 2.62111685 13.32479591 2 16 C1.67 16 1.34 16 1 16 C1 14.02 1 12.04 1 10 C-0.32 9.67 -1.64 9.34 -3 9 C-2.01 9 -1.02 9 0 9 C0 6.03 0 3.06 0 0 Z " fill="#616073" transform="translate(230,143)"/>
<path d="M0 0 C6.6 0 13.2 0 20 0 C18 2 18 2 16.02880859 2.22705078 C15.24328613 2.21657715 14.45776367 2.20610352 13.6484375 2.1953125 C12.79765625 2.18886719 11.946875 2.18242188 11.0703125 2.17578125 C9.73613281 2.15064453 9.73613281 2.15064453 8.375 2.125 C7.02921875 2.11146484 7.02921875 2.11146484 5.65625 2.09765625 C3.43723414 2.0740497 1.21874923 2.0411231 -1 2 C-0.67 1.34 -0.34 0.68 0 0 Z " fill="#494865" transform="translate(181,751)"/>
<path d="M0 0 C-1.44827586 4.5862069 -1.44827586 4.5862069 -3.75 6.3125 C-6.57109421 7.17450101 -9.06759551 7.13329111 -12 7 C-12 6.34 -12 5.68 -12 5 C-10.37750059 4.16180842 -8.75191503 3.3295884 -7.125 2.5 C-6.22007812 2.0359375 -5.31515625 1.571875 -4.3828125 1.09375 C-2 0 -2 0 0 0 Z " fill="#6F6E80" transform="translate(273,291)"/>
<path d="M0 0 C0.66 0.33 1.32 0.66 2 1 C2 1.99 2 2.98 2 4 C0.03125 5.60546875 0.03125 5.60546875 -2.5 7.1875 C-3.3353125 7.71730469 -4.170625 8.24710937 -5.03125 8.79296875 C-5.6809375 9.19128906 -6.330625 9.58960938 -7 10 C-7.66 9.67 -8.32 9.34 -9 9 C-7.48328036 4.44984107 -3.83108947 2.49942736 0 0 Z " fill="#898897" transform="translate(280,285)"/>
<path d="M0 0 C2.34882224 2.34882224 3.03503024 4.27123667 4.1875 7.375 C4.55230469 8.33148438 4.91710937 9.28796875 5.29296875 10.2734375 C6.01370542 13.05285296 5.98549829 14.35108103 5 17 C4.67 15.02 4.34 13.04 4 11 C3.01 11.33 2.02 11.66 1 12 C-1.22923777 7.67265609 -0.92470553 4.71599818 0 0 Z " fill="#8F8E9C" transform="translate(307,181)"/>
<path d="M0 0 C1.17949219 0.10183594 2.35898437 0.20367187 3.57421875 0.30859375 C4.47785156 0.39238281 5.38148438 0.47617187 6.3125 0.5625 C6.3125 1.2225 6.3125 1.8825 6.3125 2.5625 C0.0425 2.5625 -6.2275 2.5625 -12.6875 2.5625 C-8.09997547 -0.49584969 -5.37703014 -0.4791413 0 0 Z " fill="#B7B6C0" transform="translate(267.6875,298.4375)"/>
<path d="M0 0 C3.68069887 1.53643852 5.98775204 3.78150945 8.75 6.625 C9.54921875 7.44226563 10.3484375 8.25953125 11.171875 9.1015625 C12.07679688 10.04128906 12.07679688 10.04128906 13 11 C12.34 11.66 11.68 12.32 11 13 C9.83593677 11.83593677 8.67245135 10.67129061 7.51171875 9.50390625 C6.46205398 8.4596661 5.40128152 7.42652024 4.33203125 6.40234375 C2.85185191 4.97138652 1.42232322 3.48847779 0 2 C0 1.34 0 0.68 0 0 Z " fill="#434158" transform="translate(274,262)"/>
<path d="M0 0 C3.68069887 1.53643852 5.98775204 3.78150945 8.75 6.625 C9.54921875 7.44226563 10.3484375 8.25953125 11.171875 9.1015625 C12.07679688 10.04128906 12.07679688 10.04128906 13 11 C12.34 11.66 11.68 12.32 11 13 C9.16052663 11.21427748 7.32842259 9.42197551 5.5 7.625 C4.71302734 6.86316406 4.71302734 6.86316406 3.91015625 6.0859375 C2.56846819 4.76167396 1.28004185 3.38394135 0 2 C0 1.34 0 0.68 0 0 Z " fill="#3B3951" transform="translate(177,165)"/>
<path d="M0 0 C3.59905908 0.55550695 4.99909799 1.74887248 7.25 4.5625 C8.03117187 5.52349609 8.03117187 5.52349609 8.828125 6.50390625 C9.21484375 6.99761719 9.6015625 7.49132812 10 8 C9.67 8.66 9.34 9.32 9 10 C5.17647894 8.4422692 2.70794407 6.08404742 0 3 C0 2.01 0 1.02 0 0 Z " fill="#8A8998" transform="translate(292,163)"/>
<path d="M0 0 C0 0.66 0 1.32 0 2 C-1.26418246 2.69965443 -2.53665402 3.38434763 -3.8125 4.0625 C-4.52019531 4.44535156 -5.22789062 4.82820312 -5.95703125 5.22265625 C-8 6 -8 6 -11 5 C-7.56138316 1.21752148 -5.17193751 0 0 0 Z " fill="#57556C" transform="translate(202,142)"/>
<path d="M0 0 C2.31 0.66 4.62 1.32 7 2 C7 2.99 7 3.98 7 5 C7.66 5 8.32 5 9 5 C9 5.66 9 6.32 9 7 C5.56072421 5.7580393 2.74792181 4.44259716 0 2 C0 1.34 0 0.68 0 0 Z " fill="#656377" transform="translate(274,148)"/>
<path d="M0 0 C1.13643966 3.40931897 0.86747764 4.00335456 -0.4375 7.1875 C-0.72496094 7.90292969 -1.01242187 8.61835938 -1.30859375 9.35546875 C-1.53675781 9.89816406 -1.76492188 10.44085938 -2 11 C-3.80411967 8.24075815 -4.0127245 7.11027897 -3.625 3.75 C-3.41875 2.8425 -3.2125 1.935 -3 1 C-2.01 1.33 -1.02 1.66 0 2 C0 1.34 0 0.68 0 0 Z " fill="#91909F" transform="translate(312,243)"/>
<path d="M0 0 C0.33 0 0.66 0 1 0 C0.63118644 6.14689273 -0.90050429 8.69027374 -5 13 C-5.99 12.34 -6.98 11.68 -8 11 C-7.236875 10.484375 -6.47375 9.96875 -5.6875 9.4375 C-2.38424393 6.44152356 -1.51374274 4.14287486 0 0 Z " fill="#BFBCD1" transform="translate(566,571)"/>
<path d="M0 0 C0.99 0.33 1.98 0.66 3 1 C-1.75 5 -1.75 5 -4 5 C-4.66 6.65 -5.32 8.3 -6 10 C-6.33 8.68 -6.66 7.36 -7 6 C-5.90716423 4.96704564 -4.80029421 3.94892165 -3.6875 2.9375 C-3.07261719 2.36902344 -2.45773437 1.80054688 -1.82421875 1.21484375 C-0.92123047 0.61349609 -0.92123047 0.61349609 0 0 Z " fill="#BDBBCF" transform="translate(530,542)"/>
<path d="M0 0 C0.80824219 0.11085937 1.61648437 0.22171875 2.44921875 0.3359375 C3.37154297 0.47902344 3.37154297 0.47902344 4.3125 0.625 C4.3125 1.285 4.3125 1.945 4.3125 2.625 C0.3525 2.295 -3.6075 1.965 -7.6875 1.625 C-4.33422361 -0.61051759 -3.78006343 -0.54783528 0 0 Z " fill="#4E4C63" transform="translate(247.6875,137.375)"/>
<path d="M0 0 C0.33 0 0.66 0 1 0 C1.33 3.96 1.66 7.92 2 12 C1.01 11.67 0.02 11.34 -1 11 C-2.23076923 4.6 -2.23076923 4.6 -1.0625 1.5625 C-0.711875 1.046875 -0.36125 0.53125 0 0 Z " fill="#2F2D40" transform="translate(150,226)"/>
<path d="M0 0 C0.75 1.75 0.75 1.75 1 4 C-0.625 6.25 -0.625 6.25 -3 8 C-5.75 8.25 -5.75 8.25 -8 8 C-3.25 4.125 -3.25 4.125 -1 3 C-0.67 2.01 -0.34 1.02 0 0 Z " fill="#333145" transform="translate(237,218)"/>
<path d="M0 0 C0 0.66 0 1.32 0 2 C0.66 2.33 1.32 2.66 2 3 C-0.64 3.66 -3.28 4.32 -6 5 C-6 4.34 -6 3.68 -6 3 C-6.66 2.67 -7.32 2.34 -8 2 C-2.25 0 -2.25 0 0 0 Z " fill="#706E81" transform="translate(208,139)"/>
<path d="M0 0 C0.66 0.33 1.32 0.66 2 1 C-0.02882906 3.94180214 -2.05819786 5.97117094 -5 8 C-5.66 7.67 -6.32 7.34 -7 7 C-4.69 4.69 -2.38 2.38 0 0 Z " fill="#202021" transform="translate(159,174)"/>
<path d="M0 0 C0.33 0.99 0.66 1.98 1 3 C-0.65 4.65 -2.3 6.3 -4 8 C-4 4.09161134 -2.49432124 2.88405893 0 0 Z " fill="#4A4860" transform="translate(301,264)"/>
<path d="M0 0 C0.33 0.66 0.66 1.32 1 2 C1.99 1.67 2.98 1.34 4 1 C4 2.32 4 3.64 4 5 C3.34 5 2.68 5 2 5 C2 6.65 2 8.3 2 10 C1.67 10 1.34 10 1 10 C0.67 6.7 0.34 3.4 0 0 Z " fill="#8F8E9C" transform="translate(311,201)"/>
<path d="M0 0 C2.375 0.3125 2.375 0.3125 5 1 C5.66 1.99 6.32 2.98 7 4 C6.34 4 5.68 4 5 4 C4.67 4.66 4.34 5.32 4 6 C2.68 4.02 1.36 2.04 0 0 Z " fill="#6B6A7D" transform="translate(287,159)"/>
<path d="M0 0 C2.02045442 0.60183749 4.02111039 1.27306096 6 2 C6.33 2.66 6.66 3.32 7 4 C5.68 3.67 4.36 3.34 3 3 C2.67 3.66 2.34 4.32 2 5 C1.34 4.67 0.68 4.34 0 4 C0 2.68 0 1.36 0 0 Z " fill="#9E9DAA" transform="translate(271,145)"/>
<path d="M0 0 C0.66 0.66 1.32 1.32 2 2 C1.9765625 5.0390625 1.9765625 5.0390625 1.625 8.625 C1.51414063 9.81351563 1.40328125 11.00203125 1.2890625 12.2265625 C1.19367188 13.14179687 1.09828125 14.05703125 1 15 C0.67 15 0.34 15 0 15 C-0.19390729 12.68802845 -0.37996367 10.3753971 -0.5625 8.0625 C-0.71912109 6.13083984 -0.71912109 6.13083984 -0.87890625 4.16015625 C-0.91886719 3.11730469 -0.95882812 2.07445312 -1 1 C-0.67 0.67 -0.34 0.34 0 0 Z " fill="#222C2E" transform="translate(212,721)"/>
<path d="M0 0 C2 1 2 1 2 1 Z " fill="#FFFFFF" transform="translate(244,135)"/>
<path d="" fill="#808080" transform="translate(0,0)"/>
</svg>
