<?xml version="1.0" encoding="UTF-8"?>
<svg version="1.1" xmlns="http://www.w3.org/2000/svg" width="890" height="930">
<path d="M0 0 C1.28877265 0.8422846 2.57923521 1.68198735 3.87109375 2.51953125 C12.5773935 8.23734878 19.96632173 14.29573799 27 22 C25.79618552 24.49361571 24.54571278 26.68143083 23 29 C24.48886719 28.20335937 24.48886719 28.20335937 26.0078125 27.390625 C37.01374534 21.62178186 48.37350827 16.5489779 61 16 C62.50046875 15.92265625 62.50046875 15.92265625 64.03125 15.84375 C90.03721828 15.14088599 111.77479046 25.08712359 130.65625 42.44140625 C147.86540329 59.00262455 157.68955379 81.51345259 158.25 105.4375 C157.61835373 131.11206306 147.17794787 151.8133267 129.4375 169.8125 C128.90753418 170.35197266 128.37756836 170.89144531 127.83154297 171.44726562 C124.15085318 175.09734913 120.28261419 178.07831743 116 181 C120.00710741 185.7083512 124.08800507 190.32857918 128.265625 194.88671875 C132.26207953 199.75627258 132.31952665 203.74518114 132.3359375 209.859375 C132.3425943 210.72258362 132.3492511 211.58579224 132.35610962 212.47515869 C132.36622438 214.30080031 132.370927 216.12647882 132.37060547 217.95214844 C132.37496316 220.72654299 132.41125099 223.49932589 132.44921875 226.2734375 C132.4550905 228.05207793 132.4590575 229.83072587 132.4609375 231.609375 C132.47530853 232.43048767 132.48967957 233.25160034 132.50448608 234.09759521 C132.44097258 242.22420583 129.41999313 248.07066673 123.72460938 253.7734375 C123.21736328 254.26070313 122.71011719 254.74796875 122.1875 255.25 C121.69185547 255.75273437 121.19621094 256.25546875 120.68554688 256.7734375 C114.95688546 262.40625258 108.87169806 266.12087947 100.66987133 266.12863445 C99.80582532 266.1318589 98.94177931 266.13508335 98.05155009 266.1384055 C97.10691207 266.1368569 96.16227404 266.1353083 95.18901062 266.13371277 C94.18189445 266.13597833 93.17477828 266.13824388 92.13714343 266.14057809 C88.75246882 266.14692316 85.36783421 266.1460884 81.9831543 266.14526367 C79.56045479 266.14825486 77.13775577 266.15165729 74.71505737 266.15544128 C68.81102098 266.16337018 62.906994 266.16649614 57.00295337 266.16705366 C52.2033358 266.16752886 47.40372152 266.16958377 42.604105 266.17275429 C28.99482604 266.18156122 15.38555498 266.18617365 1.77627315 266.18542381 C1.04258592 266.18538386 0.30889869 266.1853439 -0.44702148 266.18530273 C-1.54889699 266.18524141 -1.54889699 266.18524141 -2.6730326 266.18517885 C-14.57617141 266.18477246 -26.47927858 266.19434012 -38.38240824 266.2084411 C-50.60591507 266.22280727 -62.82940647 266.22971114 -75.05292195 266.22884732 C-81.91488079 266.22851542 -88.77680647 266.23125966 -95.63875771 266.24202538 C-102.0926088 266.25208593 -108.54640794 266.25179252 -115.00026321 266.24450874 C-117.36939916 266.24346161 -119.73853944 266.24583339 -122.10766792 266.2518692 C-125.34121462 266.25957384 -128.57451832 266.25495425 -131.80805969 266.24723816 C-132.74600555 266.25238172 -133.68395141 266.25752529 -134.65031987 266.26282471 C-142.39006332 266.22200036 -148.12313409 265.4281548 -153.9375 259.875 C-154.783125 259.06933594 -155.62875 258.26367188 -156.5 257.43359375 C-157.7375 256.22896484 -157.7375 256.22896484 -159 255 C-160.1446875 253.96552734 -160.1446875 253.96552734 -161.3125 252.91015625 C-162.01375 252.25917969 -162.715 251.60820312 -163.4375 250.9375 C-164.05496094 250.36902344 -164.67242187 249.80054688 -165.30859375 249.21484375 C-169.62237399 243.56608302 -170.45602765 237.45782701 -170.3984375 230.58984375 C-170.40130768 229.81870743 -170.40417786 229.04757111 -170.40713501 228.25306702 C-170.40916187 226.63541929 -170.4037293 225.01774628 -170.39111328 223.40014648 C-170.37501656 220.94003022 -170.3910194 218.48155091 -170.41015625 216.02148438 C-170.408174 214.44010058 -170.4043307 212.8587178 -170.3984375 211.27734375 C-170.40451019 210.55111313 -170.41058289 209.82488251 -170.4168396 209.0766449 C-170.27765499 198.85621068 -164.92128925 192.97765154 -158 186 C-155.40512088 183.57519722 -152.72339251 181.27842878 -150 179 C-148.55932499 177.75366065 -147.12178349 176.5036894 -145.6875 175.25 C-145.05199219 174.69828125 -144.41648437 174.1465625 -143.76171875 173.578125 C-142.88966797 172.79695313 -142.88966797 172.79695313 -142 172 C-141.47758224 171.55142136 -140.95516449 171.10284271 -140.41691589 170.64067078 C-137.94516123 167.77858443 -138.51661453 164.01147827 -138.48828125 160.39453125 C-138.47033005 159.55532639 -138.45237885 158.71612152 -138.43388367 157.85148621 C-138.37971437 155.17187521 -138.34586427 152.49244298 -138.3125 149.8125 C-138.27933271 147.99541779 -138.2448436 146.1783592 -138.20898438 144.36132812 C-138.12398428 139.90768095 -138.05720498 135.45408741 -138 131 C-138.66314209 130.97421875 -139.32628418 130.9484375 -140.00952148 130.921875 C-145.60181678 130.5624323 -148.98125616 130.14602549 -153.0625 126 C-153.87976563 125.1853125 -154.69703125 124.370625 -155.5390625 123.53125 C-156.35117187 122.6959375 -157.16328125 121.860625 -158 121 C-158.83273437 120.2471875 -159.66546875 119.494375 -160.5234375 118.71875 C-165.54947245 114.09935218 -169.2156358 109.97212621 -170 103 C-169.87938927 95.92417076 -165.69253781 91.82164188 -161 87 C-160.30076416 86.25032959 -159.60152832 85.50065918 -158.88110352 84.72827148 C-152.52677221 78.08574669 -145.58509407 72.94675834 -137.9375 67.9375 C-136.69840966 67.11319409 -135.46014387 66.28764753 -134.22265625 65.4609375 C-131.70089371 63.77760451 -129.17579225 62.0994797 -126.64794922 60.42529297 C-121.23207857 56.83247027 -115.86788693 53.16394663 -110.5 49.5 C-108.4403907 48.09853714 -106.38049229 46.69749908 -104.3203125 45.296875 C-103.2880957 44.59498047 -102.25587891 43.89308594 -101.19238281 43.16992188 C-92.65519894 37.36703947 -84.11296428 31.57160436 -75.56924438 25.77835083 C-71.67931342 23.14027358 -67.79137778 20.49927836 -63.9045105 17.85668945 C-61.14759054 15.98273431 -58.38969652 14.11021581 -55.63165283 12.23791504 C-54.32162552 11.34814682 -53.0119962 10.45779226 -51.70281982 9.56677246 C-47.48039089 6.69330302 -43.24597094 3.83855839 -39 1 C-38.36831909 0.57561646 -37.73663818 0.15123291 -37.08581543 -0.28601074 C-35.19584269 -1.55127993 -33.29844344 -2.80454886 -31.3984375 -4.0546875 C-30.54422714 -4.62897995 -30.54422714 -4.62897995 -29.67276001 -5.21487427 C-18.55138842 -12.46006005 -9.76719863 -6.74142458 0 0 Z M51.0625 39.75 C50.01352539 40.01635254 50.01352539 40.01635254 48.94335938 40.28808594 C43.91237798 41.62202276 39.51261313 43.36764234 35 46 C38.04292583 48.02861722 41.06351296 49.45215887 44.375 51 C52.07010975 54.71985825 58.40763905 59.58646563 65 65 C66.66556069 66.33471462 68.33184128 67.66853387 70 69 C70 67.68 70 66.36 70 65 C67.63624434 62.89229266 67.63624434 62.89229266 65 61 C62.33254015 56.99881022 62.27500075 53.70832847 63 49 C64.29944744 47.30678061 65.62926214 45.63604196 67 44 C66.86382428 40.75706416 66.86382428 40.75706416 66 38 C60.76885939 37.80952934 56.10262881 38.43802016 51.0625 39.75 Z M78 39 C79.485 39.99 79.485 39.99 81 41 C86.03949735 44.90818162 88.47974777 46.99409822 89.5625 53.25 C88.93791639 57.41389076 88.35883516 57.93159281 85.5 60.75 C82.31850856 64.0469488 81.5 66.03151468 81.5 70.625 C81.72536466 74.46746751 82.33333018 78.21109317 83 82 C85.54161712 82.30487331 88.07735304 82.5693358 90.625 82.8125 C91.33785156 82.90208984 92.05070312 82.99167969 92.78515625 83.08398438 C96.95302451 83.46205612 96.95302451 83.46205612 100.73925781 81.93115234 C102.19945391 80.66543652 103.60254826 79.33466768 105 78 C109.07108776 76.83683207 111.19028135 76.71421695 115.1875 78.125 C118.76339452 80.50892968 121.29985253 83.01624883 122.75 87.125 C124.84867118 90.27300678 128.44136125 91.06982116 132 92 C132.99 92 133.98 92 135 92 C132.12664611 77.8726767 125.5987878 64.84826915 115 55 C114.32582031 54.36835938 113.65164063 53.73671875 112.95703125 53.0859375 C103.89546823 45.36745793 89.99121263 38.4150628 78 39 Z M13 64 C12.4534375 64.77085937 11.906875 65.54171875 11.34375 66.3359375 C5.35767071 75.52884499 1.56710815 86.03590909 1 97 C4.14183058 96.41547338 6.35729664 95.87623821 8.30078125 93.2265625 C8.69652344 92.53304687 9.09226562 91.83953125 9.5 91.125 C11.78408334 87.1567666 13.68909277 84.90674743 18 83 C21.1339955 82.83873093 24.00393917 83.04696732 27 84 C27.44851318 84.51224121 27.89702637 85.02448242 28.35913086 85.55224609 C29.88489971 87.19245471 29.88489971 87.19245471 31.98388672 87.14672852 C32.74975098 87.03772217 33.51561523 86.92871582 34.3046875 86.81640625 C35.19124023 86.69797363 36.07779297 86.57954102 36.99121094 86.45751953 C37.98411133 86.30653809 38.97701172 86.15555664 40 86 C41.10375977 85.84515137 42.20751953 85.69030273 43.34472656 85.53076172 C46.94128909 85.01902339 50.5332075 84.48165272 54.125 83.9375 C55.36765625 83.75123047 56.6103125 83.56496094 57.890625 83.37304688 C60.9274156 82.91752829 63.96385511 82.45979925 67 82 C58.7501941 67.90949466 45.29509588 60.49429358 30 56 C29.13890625 55.7215625 28.2778125 55.443125 27.390625 55.15625 C19.96554244 53.41519616 16.95137225 58.32408817 13 64 Z M87 93 C88.36979665 96.44844851 89.77516973 99.88127606 91.1875 103.3125 C91.57486328 104.28896484 91.96222656 105.26542969 92.36132812 106.27148438 C92.75126953 107.20927734 93.14121094 108.14707031 93.54296875 109.11328125 C93.89383545 109.97735596 94.24470215 110.84143066 94.60620117 111.73168945 C96.32471841 114.52845661 98.11655938 115.50522255 101 117 C107.79127358 121.89033019 107.79127358 121.89033019 109 126 C109.375 129.4375 109.375 129.4375 109 133 C108.319375 133.7425 107.63875 134.485 106.9375 135.25 C103.82402681 139.66912323 105.16978761 143.86183515 106 149 C106.17402344 150.11632812 106.34804688 151.23265625 106.52734375 152.3828125 C106.99331822 155.26028989 107.48429516 158.13107892 108 161 C122.37595264 152.78516992 129.9174406 139.05174865 134.3125 123.5 C135.91386901 117.21671679 136.48333051 111.4578326 136 105 C130.67848761 102.09735688 125.19828313 99.13554894 119 99 C116.75 100.75 116.75 100.75 115 103 C110.75966206 104.41344598 107.77411167 104.06257619 103.7109375 102.1640625 C101.15472472 100.42490403 99.59425639 98.111515 97.9453125 95.5234375 C94.75440348 93.02453284 90.94987317 93.21269346 87 93 Z M35 98 C33.23624143 100.35798581 33.23624143 100.35798581 32 103 C29.41530934 106.2724935 27.03950045 108.59323895 23.125 110.125 C19.33104053 109.97324162 17.21764793 108.67260553 13.94921875 106.8671875 C10.06988745 105.14131265 6.88679534 106.67227129 3.125 108.0625 C2.42375 108.371875 1.7225 108.68125 1 109 C-0.15107044 125.40275376 6.96771099 140.33056762 17.5 152.5 C26.01188627 161.35872034 36.82040757 168.56408151 49 171 C50.98 168.03 52.96 165.06 55 162 C54.505 161.319375 54.01 160.63875 53.5 159.9375 C51.62141085 156.25859625 51.49761154 154.0908775 52 150 C54.08337861 146.13086829 56.20048166 143.25596401 60 141 C60.65871094 140.90847656 61.31742188 140.81695312 61.99609375 140.72265625 C64.1811938 140.17653496 64.1811938 140.17653496 65.16015625 138.015625 C69.87458092 123.56621952 71.68801106 108.16172515 71 93 C59.80253635 93 45.46998673 93.86908702 35 98 Z M82 108 C81.85900879 108.75095947 81.71801758 109.50191895 81.57275391 110.27563477 C80.92687712 113.70523522 80.27598343 117.13386534 79.625 120.5625 C79.29242187 122.33463867 79.29242187 122.33463867 78.953125 124.14257812 C77.07694889 133.9925027 77.07694889 133.9925027 75.82421875 138.18359375 C74.48637108 142.75510168 75.62250841 145.23103565 77.6875 149.4375 C79 153 79 153 78.5 156.0625 C75.44214802 162.05079346 73.08750665 164.80696003 66.8125 167.125 C65.95269531 167.39570313 65.09289062 167.66640625 64.20703125 167.9453125 C61.55167473 169.21424394 61.00572072 170.29185816 60 173 C72.04491203 175.09723174 85.98885053 173.50557473 97 168 C98.01546288 164.95361136 98.00760566 163.9497429 97.4765625 160.91015625 C97.27546875 159.73356445 97.27546875 159.73356445 97.0703125 158.53320312 C96.92335938 157.71787109 96.77640625 156.90253906 96.625 156.0625 C96.48578125 155.25103516 96.3465625 154.43957031 96.203125 153.60351562 C95.81956413 151.3980406 95.43185796 149.19653689 95 147 C94.8870459 146.29286865 94.7740918 145.5857373 94.65771484 144.85717773 C93.64665631 142.0022697 91.3322455 141.40742557 88.7890625 140.046875 C85.97377312 138.39950043 84.58548967 136.85388141 83 134 C82.45214185 130.89923585 82.39132177 128.09458836 83 125 C83.721875 124.175 84.44375 123.35 85.1875 122.5 C87.2941687 120.20926993 87.2941687 120.20926993 86.66796875 117.8046875 C85.4747545 114.14863202 84.14204689 111.21307033 82 108 Z M-73 114 C-73 135.12 -73 156.24 -73 178 C-71.68 178 -70.36 178 -69 178 C-69 156.88 -69 135.76 -69 114 C-70.32 114 -71.64 114 -73 114 Z M-21 117 C-21 137.13 -21 157.26 -21 178 C-19.68 178 -18.36 178 -17 178 C-16.94972656 176.96746094 -16.89945313 175.93492187 -16.84765625 174.87109375 C-15.83845098 170.26223466 -13.81589298 168.1119109 -10.4375 165.0625 C-9.65729492 164.32290039 -9.65729492 164.32290039 -8.86132812 163.56835938 C-7.58752167 162.36467071 -6.29552951 161.18027648 -5 160 C-3.02 161.32 -1.04 162.64 1 164 C-0.27853917 161.25173824 -1.68558678 159.06862809 -3.625 156.75 C-12.46632204 145.17156106 -17.48075486 131.1966873 -20 117 C-20.33 117 -20.66 117 -21 117 Z " fill="#FEFEFE" transform="translate(444,165)"/>
<path d="M0 0 C1.15145508 -0.04350586 1.15145508 -0.04350586 2.32617188 -0.08789062 C9.01267525 -0.1623761 12.38385622 2.10601124 17.33203125 6.6015625 C18.46705078 7.75785156 18.46705078 7.75785156 19.625 8.9375 C20.39457031 9.71351563 21.16414062 10.48953125 21.95703125 11.2890625 C24.241595 13.78043939 24.76777706 14.75423435 25.0390625 18.140625 C24.33603038 27.98307465 13.34470698 38.18434418 7.4453125 45.6796875 C-0.28684773 55.50981596 -7.72699466 65.52206362 -14.78515625 75.84765625 C-17.63699876 79.99346909 -20.60491668 84.05433378 -23.5625 88.125 C-27.91621462 94.13779133 -32.24879906 100.16416594 -36.5 106.25 C-37.2113208 107.25220581 -37.2113208 107.25220581 -37.93701172 108.2746582 C-40.56085974 111.94110452 -40.56085974 111.94110452 -41.1875 116.3125 C-39.88293498 117.76284604 -39.88293498 117.76284604 -38.1875 119 C-37.1975 119.763125 -36.2075 120.52625 -35.1875 121.3125 C-33.85210614 119.1053907 -32.51891551 116.89700868 -31.1875 114.6875 C-30.77959229 114.01178955 -30.37168457 113.3360791 -29.95141602 112.63989258 C-27.59385484 108.71641012 -25.31150331 104.763985 -23.09960938 100.75683594 C-17.15888391 90.04805326 -9.52792908 79.20611939 0.8125 72.3125 C5.13717403 72.3330204 7.86010122 73.00699582 11.05078125 75.859375 C12.09128958 76.91172224 13.11592887 77.97997159 14.125 79.0625 C14.64900391 79.5884375 15.17300781 80.114375 15.71289062 80.65625 C18.62768011 83.67180685 20.73357698 86.15510108 21.8125 90.3125 C20.93798828 92.9597168 20.93798828 92.9597168 19.3828125 95.76171875 C18.83496094 96.77427734 18.28710938 97.78683594 17.72265625 98.83007812 C17.13355469 99.87615234 16.54445313 100.92222656 15.9375 102 C14.79115694 104.08553101 13.64776833 106.17268962 12.5078125 108.26171875 C11.99234863 109.18299561 11.47688477 110.10427246 10.94580078 111.0534668 C9.66302966 113.18921407 9.66302966 113.18921407 9.8125 115.3125 C15.54187857 108.8244883 20.42188342 102.6376055 24.40234375 94.8984375 C30.07397214 84.49783363 39.53239729 73.42286409 50.9453125 69.59765625 C54.27491344 69.22552438 56.59890602 69.4245044 59.37402344 71.45507812 C68.98024395 79.81573186 68.98024395 79.81573186 70.8125 85.3125 C69.79165104 87.71983149 68.72614467 89.95186811 67.5 92.25 C67.17837891 92.87068359 66.85675781 93.49136719 66.52539062 94.13085938 C65.62778553 95.86155997 64.72044574 97.58720177 63.8125 99.3125 C63.14318506 100.64450591 62.47588866 101.97753269 61.8125 103.3125 C62.61917114 102.46655273 62.61917114 102.46655273 63.44213867 101.60351562 C78.21467809 86.20842707 93.69610286 70.39299201 116.40625 69.109375 C117.6953125 69.09390625 118.984375 69.0784375 120.3125 69.0625 C121.6015625 69.03671875 122.890625 69.0109375 124.21875 68.984375 C131.37711134 69.63796451 135.26242193 74.48031458 140.0625 79.375 C140.69929688 80.01244141 141.33609375 80.64988281 141.9921875 81.30664062 C147.68397147 87.0529204 147.68397147 87.0529204 148.125 91.375 C147.73373746 96.30490795 146.02939071 99.94799641 143.8125 104.3125 C144.6478125 103.45978516 144.6478125 103.45978516 145.5 102.58984375 C159.39635235 88.52917642 174.87623855 74.79813697 195.375 73 C200.96431549 73.50811959 205.89798664 75.65047193 210.8125 78.3125 C211.493125 77.6525 212.17375 76.9925 212.875 76.3125 C216.6718927 73.72738157 218.29296516 73.46987486 222.8125 74.3125 C225.81341402 76.32494727 228.25944409 78.76939752 230.8125 81.3125 C231.50472656 81.89902344 232.19695312 82.48554687 232.91015625 83.08984375 C236.07839043 85.86756 237.69384903 87.28419161 238.1875 91.5625 C236.58524554 95.93228489 234.34705671 99.38566493 231.7734375 103.24609375 C224.9990983 113.83943294 220.44782249 125.67488183 215.8125 137.3125 C220.46103587 133.74501898 224.38169034 129.6965416 228.41015625 125.45703125 C230.8125 123.3125 230.8125 123.3125 232.765625 122.1796875 C236.29522761 122.40870752 238.21944507 125.16925012 240.5 127.625 C241.24733398 128.39360352 241.24733398 128.39360352 242.00976562 129.17773438 C246.78745499 134.14990228 247.4173467 137.25961193 247.3359375 144.08984375 C246.39279768 149.89648818 242.83385126 153.24032598 238.8125 157.3125 C237.94496094 158.23160156 237.07742188 159.15070313 236.18359375 160.09765625 C226.48382232 170.12857208 216.77281149 179.94720996 202.40234375 181.4296875 C194.43019612 181.06895684 190.56931785 177.73909897 185.375 172.1875 C184.73884766 171.52878906 184.10269531 170.87007812 183.44726562 170.19140625 C181.89030903 168.57591745 180.34629085 166.94994692 178.8125 165.3125 C175.76624311 167.08686612 172.93924346 168.92481745 170.1875 171.125 C162.21421521 177.08256673 155.72230327 181.02226691 145.5390625 180.81640625 C140.06608988 179.80492564 136.77970794 176.51753504 133 172.625 C132.20980469 171.81675781 131.41960937 171.00851562 130.60546875 170.17578125 C130.01378906 169.56089844 129.42210937 168.94601562 128.8125 168.3125 C127.67554688 168.84359375 126.53859375 169.3746875 125.3671875 169.921875 C109.85248146 177.06005695 91.40401705 185.29678579 74.0625 180.1875 C69.35349468 178.38223937 65.64940386 175.53002944 61.8125 172.3125 C61.20792969 171.8175 60.60335937 171.3225 59.98046875 170.8125 C58.58059926 169.65850923 57.19481191 168.48746513 55.8125 167.3125 C55.11125 167.91578125 54.41 168.5190625 53.6875 169.140625 C45.54067474 176.00343975 38.03604204 182.20973083 26.8125 181.3125 C19.90622107 179.43152159 16.14362552 176.29306024 11.3125 171.125 C10.68085938 170.47080078 10.04921875 169.81660156 9.3984375 169.14257812 C7.85765535 167.54343301 6.32987043 165.93382182 4.8125 164.3125 C4.02939453 165.16521484 4.02939453 165.16521484 3.23046875 166.03515625 C-3.84836155 173.46110958 -12.1782953 181.1408074 -22.875 181.8125 C-28.12082611 181.73658356 -30.46023395 180.16829829 -34.09765625 176.5234375 C-34.78730469 175.79382813 -35.47695313 175.06421875 -36.1875 174.3125 C-37.07308594 173.45914063 -37.95867187 172.60578125 -38.87109375 171.7265625 C-47.03809607 163.82600139 -47.03809607 163.82600139 -47.3203125 159.078125 C-47.31773437 158.24796875 -47.31515625 157.4178125 -47.3125 156.5625 C-47.31507813 155.74265625 -47.31765625 154.9228125 -47.3203125 154.078125 C-47.16196977 150.78087045 -46.69340679 147.5727882 -46.1875 144.3125 C-46.78175781 144.96476563 -47.37601563 145.61703125 -47.98828125 146.2890625 C-54.42550522 153.07667968 -60.85363921 158.03504697 -69.71875 161.22265625 C-78.36151537 164.60044588 -81.89088135 171.59088824 -86.70166016 179.0703125 C-94.13485584 190.28728081 -102.81252746 200.68293131 -112.1875 210.3125 C-112.90276855 211.0535498 -113.61803711 211.79459961 -114.35498047 212.55810547 C-116.80855299 215.09184372 -119.27679819 217.61042582 -121.75 220.125 C-122.52939941 220.92599121 -123.30879883 221.72698242 -124.11181641 222.55224609 C-135.302803 233.80421899 -146.11516238 240.10629903 -162.046875 241.52734375 C-169.12319994 241.0432668 -173.70423139 237.50057106 -178.4375 232.625 C-178.96182617 232.0875415 -179.48615234 231.55008301 -180.02636719 230.99633789 C-185.43179972 225.26358975 -187.21775785 220.80717933 -187.625 212.9375 C-187.03998777 195.97214541 -172.76230974 184.14652192 -161.1875 173.3125 C-147.94652107 161.50297825 -132.49566144 150.91295519 -116.28515625 143.60546875 C-103.87527591 137.95709874 -95.36101301 133.33633088 -88.45214844 121.4296875 C-86.04686327 117.40292437 -83.29828483 113.6015573 -80.625 109.75 C-79.51814419 108.12594447 -78.41265055 106.50095964 -77.30859375 104.875 C-73.03867167 98.61227451 -68.62781008 92.45503652 -64.1875 86.3125 C-63.13540878 84.85547444 -62.08332591 83.39844286 -61.03125 81.94140625 C-59.35914609 79.62616655 -57.68659845 77.31125374 -56.01269531 74.99731445 C-52.22903198 69.76488576 -48.47631407 64.51135315 -44.73681641 59.24731445 C-41.18863054 54.27237975 -37.51283674 49.39948946 -33.8046875 44.54296875 C-32.0896682 42.6367423 -32.0896682 42.6367423 -32.1875 41.3125 C-61.49109625 48.75180307 -89.22679428 61.33983133 -112.1875 81.3125 C-112.98414063 81.99699219 -113.78078125 82.68148437 -114.6015625 83.38671875 C-121.44852376 89.70797699 -126.76571334 97.82230016 -127.1875 107.3125 C-116.68625135 108.24594432 -107.72598288 102.86899645 -99.1875 97.3125 C-89.97697368 105.19078947 -89.97697368 105.19078947 -88.3125 109.6640625 C-87.87474777 117.40680515 -92.86095377 122.66919395 -97.68359375 128.1484375 C-104.87974628 135.90772205 -112.67694219 141.76773897 -123.47265625 142.55078125 C-134.5862396 142.76914535 -142.85918009 141.5592413 -151.4375 134 C-153.03434627 132.45131259 -154.61857 130.88946206 -156.1875 129.3125 C-156.86039062 128.68730469 -157.53328125 128.06210937 -158.2265625 127.41796875 C-163.54238418 122.40752406 -167.69313299 117.21767776 -168.28125 109.6015625 C-167.50021295 90.53124127 -153.5162018 76.37484008 -141.1875 63.3125 C-140.49527344 62.57773437 -139.80304688 61.84296875 -139.08984375 61.0859375 C-104.27227954 25.19596372 -50.16695535 0.64152117 0 0 Z M90.8125 118.3125 C84.41143682 126.49581998 82.44929096 134.10229023 82.8125 144.3125 C95.51029504 145.13663574 112.34072632 142.89058653 122.8125 135.3125 C126.96651932 130.26666508 131.8125 122.94333164 131.8125 116.3125 C131.33039063 116.73402344 130.84828125 117.15554688 130.3515625 117.58984375 C129.71992187 118.13769531 129.08828125 118.68554688 128.4375 119.25 C127.81101562 119.79527344 127.18453125 120.34054687 126.5390625 120.90234375 C124.09748331 122.89648422 122.8060957 123.31343951 119.6171875 123.78125 C114.32912342 123.12974313 112.38882522 120.65529498 108.9375 116.8125 C106.90347918 114.63835775 104.8606212 112.47341628 102.8125 110.3125 C98.87645352 110.3125 93.62672283 115.88239115 90.8125 118.3125 Z M5.8125 118.3125 C6.8125 120.3125 6.8125 120.3125 6.8125 120.3125 Z M176.8125 118.3125 C174.5025 120.6225 172.1925 122.9325 169.8125 125.3125 C170.1425 125.9725 170.4725 126.6325 170.8125 127.3125 C173.1225 125.0025 175.4325 122.6925 177.8125 120.3125 C177.4825 119.6525 177.1525 118.9925 176.8125 118.3125 Z " fill="#FEFEFE" transform="translate(422.1875,485.6875)"/>
<path d="M0 0 C92.6405667 -0.60476351 186.55009823 28.75127596 259.84301758 86.04003906 C260.95604461 86.89714013 262.0693393 87.75389369 263.18286133 88.61035156 C280.00430509 101.61618813 295.65918598 115.79205123 310.71801758 130.79003906 C311.5148999 131.58224854 312.31178223 132.37445801 313.1328125 133.19067383 C317.90814684 137.97903227 322.45718745 142.89365247 326.84301758 148.04003906 C327.30901367 148.57902832 327.77500977 149.11801758 328.25512695 149.67333984 C335.0806472 157.57194446 341.60677534 165.66788385 347.84301758 174.04003906 C348.3405957 174.70632324 348.83817383 175.37260742 349.35083008 176.05908203 C373.97305273 209.17930703 393.89852614 246.17146147 407.84301758 285.04003906 C408.18526367 285.98588867 408.52750977 286.93173828 408.88012695 287.90625 C414.64577556 304.00787843 419.06900851 320.36517737 422.84301758 337.04003906 C423.08149414 338.09352539 423.3199707 339.14701172 423.56567383 340.23242188 C429.45670039 366.9187722 432.51277542 394.7125006 432.84301758 422.04003906 C432.85623047 423.08184326 432.86944336 424.12364746 432.88305664 425.19702148 C433.50001081 519.70501251 402.69143158 611.65594784 307.14379883 730.83300781 C305.46200053 732.52880075 303.7784056 734.22281377 302.09301758 735.91503906 C301.30080811 736.71192139 300.50859863 737.50880371 299.69238281 738.32983398 C294.90402437 743.10516833 289.98940417 747.65420894 284.84301758 752.04003906 C284.30402832 752.50603516 283.76503906 752.97203125 283.2097168 753.45214844 C275.31111218 760.27766868 267.21517279 766.80379682 258.84301758 773.04003906 C258.1767334 773.53761719 257.51044922 774.03519531 256.82397461 774.54785156 C223.70374961 799.17007422 186.71159517 819.09554762 147.84301758 833.04003906 C146.89716797 833.38228516 145.95131836 833.72453125 144.97680664 834.07714844 C128.87517822 839.84279704 112.51787927 844.26602999 95.84301758 848.04003906 C94.78953125 848.27851562 93.73604492 848.51699219 92.65063477 848.76269531 C65.96428444 854.65372188 38.17055605 857.70979691 10.84301758 858.04003906 C9.80121338 858.05325195 8.75940918 858.06646484 7.68603516 858.08007812 C-84.95453155 858.68484163 -178.86406308 829.32880217 -252.15698242 772.04003906 C-253.27000945 771.182938 -254.38330414 770.32618444 -255.49682617 769.46972656 C-272.31826994 756.46389 -287.97315082 742.2880269 -303.03198242 727.29003906 C-303.82886475 726.49782959 -304.62574707 725.70562012 -305.44677734 724.8894043 C-310.22211169 720.10104586 -314.7711523 715.18642566 -319.15698242 710.04003906 C-319.62297852 709.5010498 -320.08897461 708.96206055 -320.5690918 708.40673828 C-327.39461204 700.50813367 -333.92074018 692.41219427 -340.15698242 684.04003906 C-340.90334961 683.04061279 -340.90334961 683.04061279 -341.66479492 682.02099609 C-366.28701758 648.9007711 -386.21249098 611.90861666 -400.15698242 573.04003906 C-400.49922852 572.09418945 -400.84147461 571.14833984 -401.1940918 570.17382812 C-406.9597404 554.0721997 -411.38297335 537.71490076 -415.15698242 521.04003906 C-415.51469727 519.45980957 -415.51469727 519.45980957 -415.87963867 517.84765625 C-421.77066523 491.16130592 -424.82674027 463.36757753 -425.15698242 436.04003906 C-425.17019531 434.99823486 -425.1834082 433.95643066 -425.19702148 432.88305664 C-425.81397566 338.37506561 -395.00539643 246.42413029 -299.45776367 127.24707031 C-297.77596538 125.55127737 -296.09237044 123.85726435 -294.40698242 122.16503906 C-293.61477295 121.36815674 -292.82256348 120.57127441 -292.00634766 119.75024414 C-287.21798922 114.9749098 -282.30336902 110.42586919 -277.15698242 106.04003906 C-276.61799316 105.57404297 -276.07900391 105.10804688 -275.52368164 104.62792969 C-267.62507703 97.80240944 -259.52913763 91.2762813 -251.15698242 85.04003906 C-250.49069824 84.54246094 -249.82441406 84.04488281 -249.13793945 83.53222656 C-216.01771446 58.91000391 -179.02556002 38.9845305 -140.15698242 25.04003906 C-139.21113281 24.69779297 -138.2652832 24.35554688 -137.29077148 24.00292969 C-121.18914306 18.23728108 -104.83184412 13.81404814 -88.15698242 10.04003906 C-87.10349609 9.8015625 -86.05000977 9.56308594 -84.96459961 9.31738281 C-57.16808459 3.18128678 -28.44191891 0.36072034 0 0 Z M-124.15698242 37.04003906 C-125.66083496 37.5234375 -125.66083496 37.5234375 -127.19506836 38.01660156 C-140.97528121 42.49915675 -154.28394814 47.83313788 -167.47583008 53.82275391 C-169.18870767 54.60042716 -170.90428846 55.37219152 -172.62329102 56.13623047 C-186.735756 62.41071014 -199.95645436 70.04414926 -213.15698242 78.04003906 C-214.01888184 78.56001465 -214.88078125 79.07999023 -215.76879883 79.61572266 C-235.88827844 91.82103654 -254.2729865 105.93039825 -271.64526367 121.77441406 C-273.05479964 123.0458462 -274.47106831 124.31021154 -275.91015625 125.5480957 C-281.24331949 130.13964376 -286.25699022 134.98979245 -291.21948242 139.97753906 C-291.98325195 140.73744141 -292.74702148 141.49734375 -293.53393555 142.28027344 C-298.28230313 147.03676483 -302.79282787 151.93027058 -307.15698242 157.04003906 C-308.04601288 158.0611271 -308.93531448 159.08197917 -309.82495117 160.10253906 C-328.51172627 181.88929081 -344.20675795 205.87419522 -358.02905273 230.99707031 C-358.7597321 232.32051728 -359.49573624 233.64104402 -360.23803711 234.95800781 C-387.69484981 283.6919663 -402.39555616 340.58175354 -407.15698242 396.04003906 C-407.26284668 397.23862549 -407.26284668 397.23862549 -407.37084961 398.46142578 C-411.84957179 451.83878929 -404.56629077 506.19936712 -388.15698242 557.04003906 C-387.67358398 558.5438916 -387.67358398 558.5438916 -387.18041992 560.078125 C-382.69786473 573.85833785 -377.36388361 587.16700478 -371.37426758 600.35888672 C-370.59659433 602.07176431 -369.82482997 603.7873451 -369.06079102 605.50634766 C-362.78631135 619.61881264 -355.15287222 632.839511 -347.15698242 646.04003906 C-346.63700684 646.90193848 -346.11703125 647.76383789 -345.58129883 648.65185547 C-333.37598495 668.77133508 -319.26662323 687.15604314 -303.42260742 704.52832031 C-302.15117529 705.93785628 -300.88680995 707.35412495 -299.64892578 708.79321289 C-295.05737772 714.12637613 -290.20722904 719.14004686 -285.21948242 724.10253906 C-284.45958008 724.86630859 -283.69967773 725.63007812 -282.91674805 726.41699219 C-278.16025665 731.16535977 -273.2667509 735.67588451 -268.15698242 740.04003906 C-267.13589438 740.92906953 -266.11504232 741.81837112 -265.09448242 742.70800781 C-243.30773067 761.39478292 -219.32282627 777.08981459 -194.19995117 790.91210938 C-192.87650421 791.64278875 -191.55597746 792.37879288 -190.23901367 793.12109375 C-141.50505518 820.57790645 -84.61526794 835.2786128 -29.15698242 840.04003906 C-27.958396 840.14590332 -27.958396 840.14590332 -26.7355957 840.25390625 C26.64176781 844.73262843 81.00234564 837.44934741 131.84301758 821.04003906 C133.34687012 820.55664062 133.34687012 820.55664062 134.88110352 820.06347656 C148.66131636 815.58092137 161.96998329 810.24694025 175.16186523 804.25732422 C176.87474282 803.47965097 178.59032361 802.70788661 180.30932617 801.94384766 C194.42179116 795.66936799 207.64248952 788.03592886 220.84301758 780.04003906 C221.70491699 779.52006348 222.56681641 779.00008789 223.45483398 778.46435547 C243.5743136 766.25904159 261.95902165 752.14967987 279.33129883 736.30566406 C280.74273068 735.0325218 282.16070177 733.76626316 283.60058594 732.52539062 C288.87115125 727.98191207 293.86303631 723.21223709 298.78051758 718.29003906 C299.57321045 717.49726562 300.36590332 716.70449219 301.18261719 715.88769531 C306.07663991 710.9458056 310.64026521 705.94184491 314.92114258 700.45800781 C316.89539601 697.97414018 318.99238428 695.67292141 321.15551758 693.35253906 C338.94933045 673.73609605 352.99736078 650.19826288 365.71508789 627.08300781 C366.44576726 625.75956085 367.18177139 624.4390341 367.92407227 623.12207031 C395.38088496 574.38811182 410.08159132 517.49832458 414.84301758 462.04003906 C414.94888184 460.84145264 414.94888184 460.84145264 415.05688477 459.61865234 C419.53560694 406.24128883 412.25232592 351.88071101 395.84301758 301.04003906 C395.35961914 299.53618652 395.35961914 299.53618652 394.86645508 298.00195312 C390.38389989 284.22174028 385.04991876 270.91307335 379.06030273 257.72119141 C378.28262948 256.00831382 377.51086512 254.29273303 376.74682617 252.57373047 C370.4723465 238.46126548 362.83890738 225.24056712 354.84301758 212.04003906 C354.32304199 211.17813965 353.80306641 210.31624023 353.26733398 209.42822266 C341.0620201 189.30874304 326.95265839 170.92403499 311.10864258 153.55175781 C309.83550032 152.14032596 308.56924168 150.72235487 307.32836914 149.2824707 C302.78489058 144.01190539 298.01521561 139.02002033 293.09301758 134.10253906 C292.30024414 133.30984619 291.5074707 132.51715332 290.69067383 131.70043945 C285.74878411 126.80641673 280.74482342 122.24279143 275.26098633 117.96191406 C272.7771187 115.98766063 270.47589993 113.89067236 268.15551758 111.72753906 C248.53907456 93.93372619 225.0012414 79.88569586 201.88598633 67.16796875 C200.56253937 66.43728938 199.24201262 65.70128525 197.92504883 64.95898438 C149.19109034 37.50217168 92.3013031 22.80146532 36.84301758 18.04003906 C35.64443115 17.9341748 35.64443115 17.9341748 34.42163086 17.82617188 C-18.95573265 13.3474497 -73.31631048 20.63073072 -124.15698242 37.04003906 Z " fill="#FFFFFF" transform="translate(438.156982421875,27.9599609375)"/>
</svg>
